<svg width="18" height="17" viewBox="0 0 18 17" fill="none" xmlns="http://www.w3.org/2000/svg">
<path d="M2.38889 1C1.34705 1 0.5 1.84082 0.5 2.875V11.3125C0.5 12.3467 1.34705 13.1875 2.38889 13.1875H7.58333L7.26753 14.125H5.22222C4.69983 14.125 4.27778 14.5439 4.27778 15.0625C4.27778 15.5811 4.69983 16 5.22222 16H12.7778C13.3002 16 13.7222 15.5811 13.7222 15.0625C13.7222 14.5439 13.3002 14.125 12.7778 14.125H10.7325L10.4167 13.1875H15.6111C16.653 13.1875 17.5 12.3467 17.5 11.3125V2.875C17.5 1.84082 16.653 1 15.6111 1H2.38889ZM15.6111 2.875V10.8011H2.38889V2.875H15.6111Z" fill="#FDFDFD"/>
</svg>
