<svg width="18" height="17" viewBox="0 0 18 17" fill="none" xmlns="http://www.w3.org/2000/svg">
<path d="M1.78947 2C0.802467 2 0 2.78477 0 3.75V11.625C0 12.5902 0.802467 13.375 1.78947 13.375H7.6579L7.35872 14.25H5.42105C4.92615 14.25 4.52632 14.641 4.52632 15.125C4.52632 15.609 4.92615 16 5.42105 16H12.5789C13.0738 16 13.4737 15.609 13.4737 15.125C13.4737 14.641 13.0738 14.25 12.5789 14.25H10.6413L10.3421 13.375H16.2105C17.1975 13.375 18 12.5902 18 11.625V3.75C18 2.78477 17.1975 2 16.2105 2H1.78947ZM16.2105 3.75V11.1477H1.78947V3.75H16.2105Z" fill="#FDFDFD"/>
</svg>
