<svg width="18" height="17" viewBox="0 0 18 17" fill="none" xmlns="http://www.w3.org/2000/svg">
<path d="M3 2.125C3 0.95293 3.97841 0 5.18182 0H12.8182C14.0216 0 15 0.95293 15 2.125V14.875C15 16.0471 14.0216 17 12.8182 17H5.18182C3.97841 17 3 16.0471 3 14.875V2.125ZM7.36364 14.875C7.36364 15.1672 7.60909 15.4062 7.90909 15.4062H10.0909C10.3909 15.4062 10.6364 15.1672 10.6364 14.875C10.6364 14.5828 10.3909 14.3438 10.0909 14.3438H7.90909C7.60909 14.3438 7.36364 14.5828 7.36364 14.875ZM13 2H5V13H13V2Z" fill="#FDFDFD"/>
</svg>
