<svg width="52" height="52" viewBox="0 0 52 52" fill="none" xmlns="http://www.w3.org/2000/svg">
<rect width="52" height="52" rx="26" fill="#14141B"/>
<path d="M23.2143 36.6459V28.9034H15.7857C14.242 28.9034 13 27.609 13 26C13 24.391 14.242 23.0966 15.7857 23.0966H23.2143V15.3541C23.2143 13.7451 24.4563 12.4507 26 12.4507C27.5437 12.4507 28.7857 13.7451 28.7857 15.3541V23.0966H36.2143C37.758 23.0966 39 24.391 39 26C39 27.609 37.758 28.9034 36.2143 28.9034H28.7857V36.6459C28.7857 38.2548 27.5437 39.5493 26 39.5493C24.4563 39.5493 23.2143 38.2548 23.2143 36.6459Z" fill="white"/>
</svg>
