<svg width="32" height="32" viewBox="0 0 32 32" fill="none" xmlns="http://www.w3.org/2000/svg">
<rect width="32" height="32" rx="16" fill="#14141B"/>
<path d="M14.2857 22.5513V17.7867H9.71429C8.76429 17.7867 8 16.9901 8 16C8 15.0098 8.76429 14.2133 9.71429 14.2133H14.2857V9.44868C14.2857 8.45854 15.05 7.66196 16 7.66196C16.95 7.66196 17.7143 8.45854 17.7143 9.44868V14.2133H22.2857C23.2357 14.2133 24 15.0098 24 16C24 16.9901 23.2357 17.7867 22.2857 17.7867H17.7143V22.5513C17.7143 23.5414 16.95 24.338 16 24.338C15.05 24.338 14.2857 23.5414 14.2857 22.5513Z" fill="white"/>
</svg>
