<svg width="23" height="23" viewBox="0 0 23 23" fill="none" xmlns="http://www.w3.org/2000/svg">
<rect width="23" height="23" rx="11.5" fill="#3E52D5"/>
<path d="M12.6693 17.9262C12.9832 18.0688 13.347 18.0013 13.5966 17.7537L18.7325 12.6526C18.9037 12.4839 19 12.2476 19 12C19 11.7524 18.9037 11.5161 18.7325 11.3474L13.5966 6.24629C13.347 5.99874 12.9832 5.93122 12.6693 6.07375C12.3555 6.21628 12.1522 6.53885 12.1522 6.89893V9.5995H6.1413C5.51002 9.5995 5 10.1359 5 10.7997V13.2003C5 13.8641 5.51002 14.4005 6.1413 14.4005H12.1522V17.1011C12.1522 17.4611 12.3555 17.7837 12.6693 17.9262Z" fill="#FDFDFD"/>
</svg>
