<svg width="24" height="23" viewBox="0 0 24 23" fill="none" xmlns="http://www.w3.org/2000/svg">
<rect width="23" height="23" rx="11.5" fill="#D53E41"/>
<path d="M15.0462 17.1569L11.8137 13.9244L8.58122 17.1569C7.90947 17.8286 6.82861 17.8286 6.15685 17.1569C5.4851 16.4851 5.4851 15.4042 6.15685 14.7325L9.38934 11.5L6.15685 8.26751C5.4851 7.59576 5.4851 6.5149 6.15685 5.84315C6.82861 5.17139 7.90947 5.17139 8.58122 5.84315L11.8137 9.07563L15.0462 5.84315C15.7179 5.17139 16.7988 5.17139 17.4706 5.84315C18.1423 6.5149 18.1423 7.59576 17.4706 8.26751L14.2381 11.5L17.4706 14.7325C18.1423 15.4042 18.1423 16.4851 17.4706 17.1569C16.7988 17.8286 15.7179 17.8286 15.0462 17.1569Z" fill="white"/>
</svg>
