<svg width="31" height="22" viewBox="0 0 31 22" fill="none" xmlns="http://www.w3.org/2000/svg">
<path opacity="0.47" d="M25.8462 0.261914C28.9898 2.79422 31 6.66716 31 11.0014C31 15.3356 28.9898 19.2038 25.8462 21.7409C25.3473 22.1445 24.6159 22.0676 24.2091 21.5727C23.8022 21.0778 23.8797 20.3522 24.3786 19.9486C27.0039 17.8343 28.675 14.6149 28.675 11.0014C28.675 7.38793 27.0039 4.16849 24.3786 2.04943C23.8797 1.64579 23.807 0.920218 24.2091 0.425289C24.6111 -0.0696406 25.3473 -0.141718 25.8462 0.257109V0.261914ZM22.9158 3.84174C25.0083 5.53315 26.35 8.11351 26.35 11.0014C26.35 13.8893 25.0083 16.4696 22.9158 18.1611C22.4169 18.5647 21.6855 18.4878 21.2786 17.9929C20.8717 17.4979 20.9492 16.7724 21.4481 16.3687C23.0223 15.1002 24.025 13.1685 24.025 11.0014C24.025 8.83428 23.0223 6.90262 21.4481 5.62925C20.9492 5.22562 20.8766 4.50005 21.2786 4.00512C21.6806 3.51019 22.4169 3.43811 22.9158 3.83694V3.84174ZM19.9853 7.42157C21.0267 8.26727 21.7 9.55505 21.7 11.0014C21.7 12.4477 21.0267 13.7355 19.9853 14.5812C19.4864 14.9849 18.755 14.908 18.3481 14.413C17.9412 13.9181 18.0187 13.1925 18.5177 12.7889C19.0408 12.3661 19.375 11.7222 19.375 11.0014C19.375 10.2806 19.0408 9.63674 18.5177 9.20908C18.0187 8.80545 17.9461 8.07987 18.3481 7.58494C18.7502 7.09001 19.4864 7.01794 19.9853 7.41676V7.42157ZM14.5845 0.372432C15.1416 0.622299 15.5 1.17009 15.5 1.77553V20.2273C15.5 20.8327 15.1416 21.3805 14.5845 21.6304C14.0275 21.8802 13.3736 21.7793 12.9183 21.3757L6.38406 15.6143H3.1C1.39016 15.6143 0 14.2353 0 12.539V9.46375C0 7.76754 1.39016 6.38846 3.1 6.38846H6.38406L12.9183 0.627104C13.3736 0.223473 14.0275 0.12737 14.5845 0.372432Z" fill="black"/>
</svg>
