<svg width="45" height="45" viewBox="0 0 45 45" fill="none" xmlns="http://www.w3.org/2000/svg">
<path d="M43.6682 7.68507C45.4252 5.92808 45.4252 3.07473 43.6682 1.31774C41.9112 -0.439247 39.0579 -0.439247 37.3009 1.31774L22.5 16.1327L7.68507 1.3318C5.92808 -0.425192 3.07473 -0.425192 1.31774 1.3318C-0.439247 3.08879 -0.439247 5.94214 1.31774 7.69912L16.1327 22.5L1.3318 37.3149C-0.425191 39.0719 -0.425191 41.9253 1.3318 43.6823C3.08879 45.4392 5.94214 45.4392 7.69912 43.6823L22.5 28.8673L37.3149 43.6682C39.0719 45.4252 41.9253 45.4252 43.6823 43.6682C45.4392 41.9112 45.4392 39.0579 43.6823 37.3009L28.8673 22.5L43.6682 7.68507Z" fill="#14141B"/>
</svg>
