<svg width="42" height="41" viewBox="0 0 42 41" fill="none" xmlns="http://www.w3.org/2000/svg">
<path d="M40.757 7.00195C42.3968 5.40114 42.3968 2.80142 40.757 1.20061C39.1171 -0.400203 36.454 -0.400203 34.8141 1.20061L21 14.6987L7.17273 1.21342C5.53287 -0.387397 2.86975 -0.387397 1.22989 1.21342C-0.409964 2.81423 -0.409964 5.41395 1.22989 7.01476L15.0572 20.5L1.24301 33.998C-0.396845 35.5989 -0.396845 38.1986 1.24301 39.7994C2.88287 41.4002 5.54599 41.4002 7.18585 39.7994L21 26.3013L34.8273 39.7866C36.4671 41.3874 39.1303 41.3874 40.7701 39.7866C42.41 38.1858 42.41 35.5861 40.7701 33.9852L26.9428 20.5L40.757 7.00195Z" fill="white"/>
</svg>
