<svg width="84" height="84" viewBox="0 0 84 84" fill="none" xmlns="http://www.w3.org/2000/svg">
<rect width="84" height="84" rx="42" fill="#14141B"/>
<g filter="url(#filter0_d_1728_2043)">
<path d="M65 40.5714C65 50.8304 54.7045 59.1429 42.0013 59.1429C38.6683 59.1429 35.506 58.5714 32.6491 57.5446C31.5801 58.3214 29.8372 59.3839 27.7709 60.2768C25.6148 61.2054 23.0184 62 20.4401 62C19.8561 62 19.3351 61.6518 19.1105 61.1161C18.8859 60.5804 19.0116 59.9732 19.4159 59.5625L19.4429 59.5357C19.4698 59.5089 19.5058 59.4732 19.5597 59.4107C19.6585 59.3036 19.8112 59.1339 19.9999 58.9018C20.3682 58.4554 20.8623 57.7946 21.3654 56.9732C22.2638 55.4911 23.1173 53.5446 23.288 51.3571C20.5928 48.3214 19.0027 44.5982 19.0027 40.5714C19.0027 30.3125 29.2982 22 42.0013 22C54.7045 22 65 30.3125 65 40.5714Z" fill="#FDFDFD"/>
<path d="M32.9874 56.6036L32.4894 56.4246L32.0613 56.7356C31.0493 57.4709 29.3706 58.4961 27.3749 59.3585C25.2813 60.2601 22.8276 61 20.4401 61C20.2598 61 20.1018 60.8943 20.0327 60.7294C19.9686 60.5765 19.9991 60.3977 20.1258 60.2669L20.1478 60.245C20.1478 60.245 20.1478 60.245 20.1479 60.2449C20.1808 60.2122 20.2333 60.1599 20.3054 60.0772C20.4138 59.9593 20.576 59.7783 20.7737 59.5352C21.1687 59.0561 21.6896 58.3586 22.2182 57.4955L22.2206 57.4916C23.1689 55.9271 24.0981 53.8289 24.2849 51.4349L24.318 51.0111L24.0358 50.6932C21.4819 47.8166 20.0027 44.3234 20.0027 40.5714C20.0027 31.0539 29.6401 23 42.0013 23C54.3626 23 64 31.0539 64 40.5714C64 50.089 54.3626 58.1429 42.0013 58.1429C38.7825 58.1429 35.7346 57.591 32.9874 56.6036Z" stroke="black" stroke-width="2"/>
</g>
<defs>
<filter id="filter0_d_1728_2043" x="15" y="22" width="54" height="48" filterUnits="userSpaceOnUse" color-interpolation-filters="sRGB">
<feFlood flood-opacity="0" result="BackgroundImageFix"/>
<feColorMatrix in="SourceAlpha" type="matrix" values="0 0 0 0 0 0 0 0 0 0 0 0 0 0 0 0 0 0 127 0" result="hardAlpha"/>
<feOffset dy="4"/>
<feGaussianBlur stdDeviation="2"/>
<feComposite in2="hardAlpha" operator="out"/>
<feColorMatrix type="matrix" values="0 0 0 0 0 0 0 0 0 0 0 0 0 0 0 0 0 0 0.25 0"/>
<feBlend mode="normal" in2="BackgroundImageFix" result="effect1_dropShadow_1728_2043"/>
<feBlend mode="normal" in="SourceGraphic" in2="effect1_dropShadow_1728_2043" result="shape"/>
</filter>
</defs>
</svg>
