<svg width="41" height="38" viewBox="0 0 41 38" fill="none" xmlns="http://www.w3.org/2000/svg">
<path d="M0 31.6667C0 33.0679 1.14512 34.2 2.5625 34.2H6.94277C7.92773 36.4404 10.1859 38 12.8125 38C15.4391 38 17.6973 36.4404 18.6822 34.2H38.4375C39.8549 34.2 41 33.0679 41 31.6667C41 30.2654 39.8549 29.1333 38.4375 29.1333H18.6822C17.6973 26.8929 15.4391 25.3333 12.8125 25.3333C10.1859 25.3333 7.92773 26.8929 6.94277 29.1333H2.5625C1.14512 29.1333 0 30.2654 0 31.6667ZM10.25 31.6667C10.25 30.9948 10.52 30.3504 11.0005 29.8753C11.4811 29.4002 12.1329 29.1333 12.8125 29.1333C13.4921 29.1333 14.1439 29.4002 14.6245 29.8753C15.105 30.3504 15.375 30.9948 15.375 31.6667C15.375 32.3385 15.105 32.9829 14.6245 33.458C14.1439 33.9331 13.4921 34.2 12.8125 34.2C12.1329 34.2 11.4811 33.9331 11.0005 33.458C10.52 32.9829 10.25 32.3385 10.25 31.6667ZM25.625 19C25.625 18.3281 25.895 17.6838 26.3755 17.2087C26.8561 16.7336 27.5079 16.4667 28.1875 16.4667C28.8671 16.4667 29.5189 16.7336 29.9995 17.2087C30.48 17.6838 30.75 18.3281 30.75 19C30.75 19.6719 30.48 20.3162 29.9995 20.7913C29.5189 21.2664 28.8671 21.5333 28.1875 21.5333C27.5079 21.5333 26.8561 21.2664 26.3755 20.7913C25.895 20.3162 25.625 19.6719 25.625 19ZM28.1875 12.6667C25.5609 12.6667 23.3027 14.2262 22.3178 16.4667H2.5625C1.14512 16.4667 0 17.5987 0 19C0 20.4012 1.14512 21.5333 2.5625 21.5333H22.3178C23.3027 23.7738 25.5609 25.3333 28.1875 25.3333C30.8141 25.3333 33.0723 23.7738 34.0572 21.5333H38.4375C39.8549 21.5333 41 20.4012 41 19C41 17.5987 39.8549 16.4667 38.4375 16.4667H34.0572C33.0723 14.2262 30.8141 12.6667 28.1875 12.6667ZM15.375 8.86667C14.6954 8.86667 14.0436 8.59976 13.563 8.12467C13.0825 7.64958 12.8125 7.00522 12.8125 6.33333C12.8125 5.66145 13.0825 5.01709 13.563 4.542C14.0436 4.0669 14.6954 3.8 15.375 3.8C16.0546 3.8 16.7064 4.0669 17.187 4.542C17.6675 5.01709 17.9375 5.66145 17.9375 6.33333C17.9375 7.00522 17.6675 7.64958 17.187 8.12467C16.7064 8.59976 16.0546 8.86667 15.375 8.86667ZM21.2447 3.8C20.2598 1.55958 18.0016 0 15.375 0C12.7484 0 10.4902 1.55958 9.50527 3.8H2.5625C1.14512 3.8 0 4.93208 0 6.33333C0 7.73458 1.14512 8.86667 2.5625 8.86667H9.50527C10.4902 11.1071 12.7484 12.6667 15.375 12.6667C18.0016 12.6667 20.2598 11.1071 21.2447 8.86667H38.4375C39.8549 8.86667 41 7.73458 41 6.33333C41 4.93208 39.8549 3.8 38.4375 3.8H21.2447Z" fill="black"/>
</svg>
