<svg width="32" height="34" viewBox="0 0 32 34" fill="none" xmlns="http://www.w3.org/2000/svg">
<path d="M31.9113 11.0654C32.1235 11.6433 31.9445 12.2876 31.4869 12.6994L28.6156 15.3163C28.6886 15.8676 28.7284 16.4321 28.7284 17.0033C28.7284 17.5745 28.6886 18.1391 28.6156 18.6904L31.4869 21.3073C31.9445 21.7191 32.1235 22.3634 31.9113 22.9412C31.6195 23.7316 31.2681 24.4888 30.8636 25.2194L30.5519 25.7574C30.1143 26.488 29.6236 27.1787 29.0865 27.8297C28.6952 28.3079 28.0454 28.4673 27.4618 28.2813L23.7683 27.1057C22.8798 27.7898 21.8984 28.361 20.8506 28.7927L20.0218 32.5853C19.8891 33.1897 19.425 33.6679 18.8149 33.7675C17.8998 33.9203 16.9582 34 15.9967 34C15.0352 34 14.0936 33.9203 13.1785 33.7675C12.5684 33.6679 12.1042 33.1897 11.9716 32.5853L11.1427 28.7927C10.095 28.361 9.11362 27.7898 8.22505 27.1057L4.53817 28.2879C3.95463 28.4739 3.30478 28.3079 2.91355 27.8363C2.37643 27.1854 1.88573 26.4946 1.44808 25.764L1.13642 25.226C0.731923 24.4954 0.380476 23.7382 0.0887078 22.9478C-0.123487 22.37 0.0555524 21.7257 0.513097 21.3139L3.38436 18.697C3.31142 18.1391 3.27163 17.5745 3.27163 17.0033C3.27163 16.4321 3.31142 15.8676 3.38436 15.3163L0.513097 12.6994C0.0555524 12.2876 -0.123487 11.6433 0.0887078 11.0654C0.380476 10.2751 0.731923 9.51787 1.13642 8.78726L1.44808 8.24927C1.88573 7.51866 2.37643 6.8279 2.91355 6.17699C3.30478 5.69877 3.95463 5.53936 4.53817 5.72534L8.23168 6.90096C9.12025 6.21684 10.1016 5.64563 11.1494 5.21391L11.9782 1.42137C12.1109 0.816956 12.575 0.338738 13.1851 0.239109C14.1002 0.0797031 15.0418 0 16.0033 0C16.9648 0 17.9064 0.0797031 18.8215 0.232467C19.4316 0.332096 19.8958 0.810314 20.0284 1.41473L20.8573 5.20727C21.905 5.63899 22.8864 6.2102 23.775 6.89432L27.4685 5.71869C28.052 5.53272 28.7018 5.69877 29.0931 6.17035C29.6302 6.82125 30.1209 7.51201 30.5586 8.24263L30.8702 8.78062C31.2747 9.51123 31.6262 10.2684 31.9179 11.0588L31.9113 11.0654ZM16.0033 22.3169C17.4103 22.3169 18.7596 21.757 19.7544 20.7606C20.7493 19.7641 21.3082 18.4126 21.3082 17.0033C21.3082 15.5941 20.7493 14.2426 19.7544 13.2461C18.7596 12.2496 17.4103 11.6898 16.0033 11.6898C14.5964 11.6898 13.2471 12.2496 12.2522 13.2461C11.2574 14.2426 10.6984 15.5941 10.6984 17.0033C10.6984 18.4126 11.2574 19.7641 12.2522 20.7606C13.2471 21.757 14.5964 22.3169 16.0033 22.3169Z" fill="#FDFDFD"/>
</svg>
