<svg width="24" height="28" viewBox="0 0 24 28" fill="none" xmlns="http://www.w3.org/2000/svg">
<path d="M6.85714 0C7.80536 0 8.57143 0.782031 8.57143 1.75V3.5H15.4286V1.75C15.4286 0.782031 16.1946 0 17.1429 0C18.0911 0 18.8571 0.782031 18.8571 1.75V3.5H21.4286C22.8482 3.5 24 4.67578 24 6.125V8.75H0V6.125C0 4.67578 1.15179 3.5 2.57143 3.5H5.14286V1.75C5.14286 0.782031 5.90893 0 6.85714 0ZM0 10.5H24V25.375C24 26.8242 22.8482 28 21.4286 28H2.57143C1.15179 28 0 26.8242 0 25.375V10.5ZM3.42857 14.875V16.625C3.42857 17.1063 3.81429 17.5 4.28571 17.5H6C6.47143 17.5 6.85714 17.1063 6.85714 16.625V14.875C6.85714 14.3938 6.47143 14 6 14H4.28571C3.81429 14 3.42857 14.3938 3.42857 14.875ZM10.2857 14.875V16.625C10.2857 17.1063 10.6714 17.5 11.1429 17.5H12.8571C13.3286 17.5 13.7143 17.1063 13.7143 16.625V14.875C13.7143 14.3938 13.3286 14 12.8571 14H11.1429C10.6714 14 10.2857 14.3938 10.2857 14.875ZM18 14C17.5286 14 17.1429 14.3938 17.1429 14.875V16.625C17.1429 17.1063 17.5286 17.5 18 17.5H19.7143C20.1857 17.5 20.5714 17.1063 20.5714 16.625V14.875C20.5714 14.3938 20.1857 14 19.7143 14H18ZM3.42857 21.875V23.625C3.42857 24.1063 3.81429 24.5 4.28571 24.5H6C6.47143 24.5 6.85714 24.1063 6.85714 23.625V21.875C6.85714 21.3937 6.47143 21 6 21H4.28571C3.81429 21 3.42857 21.3937 3.42857 21.875ZM11.1429 21C10.6714 21 10.2857 21.3937 10.2857 21.875V23.625C10.2857 24.1063 10.6714 24.5 11.1429 24.5H12.8571C13.3286 24.5 13.7143 24.1063 13.7143 23.625V21.875C13.7143 21.3937 13.3286 21 12.8571 21H11.1429ZM17.1429 21.875V23.625C17.1429 24.1063 17.5286 24.5 18 24.5H19.7143C20.1857 24.5 20.5714 24.1063 20.5714 23.625V21.875C20.5714 21.3937 20.1857 21 19.7143 21H18C17.5286 21 17.1429 21.3937 17.1429 21.875Z" fill="black"/>
</svg>
