<svg width="50" height="56" viewBox="0 0 50 56" fill="none" xmlns="http://www.w3.org/2000/svg">
<path d="M46.5341 1.81519C44.3732 -0.605062 40.8802 -0.605062 38.7192 1.81519L35.7492 5.13059L45.4092 15.9499L48.3793 12.6234C50.5402 10.2032 50.5402 6.29099 48.3793 3.87074L46.5341 1.81519ZM17.0112 26.1282C16.4093 26.8023 15.9455 27.6312 15.6791 28.5484L12.7584 38.362C12.4722 39.3124 12.6992 40.3623 13.3307 41.0807C13.9622 41.799 14.8996 42.0421 15.7581 41.7216L24.5202 38.4504C25.3293 38.1521 26.0694 37.6326 26.6811 36.9585L43.1891 18.4585L33.5192 7.6282L17.0112 26.1282ZM9.47259 6.48991C4.24293 6.48991 0 11.242 0 17.0992V45.3907C0 51.2479 4.24293 56 9.47259 56H34.7328C39.9625 56 44.2054 51.2479 44.2054 45.3907V34.7814C44.2054 32.8253 42.7944 31.245 41.0479 31.245C39.3014 31.245 37.8904 32.8253 37.8904 34.7814V45.3907C37.8904 47.3468 36.4794 48.9271 34.7328 48.9271H9.47259C7.72608 48.9271 6.31506 47.3468 6.31506 45.3907V17.0992C6.31506 15.1431 7.72608 13.5628 9.47259 13.5628H18.9452C20.6917 13.5628 22.1027 11.9824 22.1027 10.0263C22.1027 8.07025 20.6917 6.48991 18.9452 6.48991H9.47259Z" fill="#14141B"/>
</svg>
