<svg width="31" height="31" viewBox="0 0 31 31" fill="none" xmlns="http://www.w3.org/2000/svg">
<circle cx="15.5" cy="15.5" r="15.5" fill="#D53E41"/>
<path d="M23.4969 9.90325C24.1606 9.2395 24.1606 8.16156 23.4969 7.49781C22.8331 6.83406 21.7552 6.83406 21.0914 7.49781L15.5 13.0946L9.90325 7.50312C9.2395 6.83937 8.16156 6.83937 7.49781 7.50312C6.83406 8.16687 6.83406 9.24481 7.49781 9.90856L13.0946 15.5L7.50312 21.0967C6.83937 21.7605 6.83937 22.8384 7.50312 23.5022C8.16687 24.1659 9.24481 24.1659 9.90856 23.5022L15.5 17.9054L21.0968 23.4969C21.7605 24.1606 22.8384 24.1606 23.5022 23.4969C24.1659 22.8331 24.1659 21.7552 23.5022 21.0914L17.9054 15.5L23.4969 9.90325Z" fill="white"/>
</svg>
