<svg width="32" height="32" viewBox="0 0 32 32" fill="none" xmlns="http://www.w3.org/2000/svg">
<path d="M2.02237 15.8915C2.01734 15.8965 2.01269 15.9012 2.00839 15.9056V15.9656C2.00839 15.9676 2.00841 15.9696 2.00845 15.9715H3.56487H5.57266L5.56485 17.9793L5.52597 27.982C5.52597 27.9831 5.52597 27.9841 5.52597 27.9852C5.52611 28.0672 5.53164 28.1658 5.54406 28.2915L5.55375 28.3896V28.4882V29.5005C5.55375 29.7119 5.62973 29.861 5.69913 29.939C5.73284 29.977 5.75948 29.9925 5.76987 29.9974C5.77328 29.999 5.77539 29.9997 5.77626 30C5.77634 30 5.77644 30 5.77655 30H6.66567H6.66578L6.6855 30L6.68608 30L6.82723 29.9856L7.00083 29.9995C7.00211 29.9995 7.00377 29.9996 7.00584 29.9996L7.03403 29.9999L7.07989 30L7.0823 30H7.08245L8.88155 29.9938H8.88847H16H23.1144H24.884C24.8859 29.9937 24.8909 29.9935 24.8998 29.993C24.9197 29.9919 24.9427 29.9902 24.9875 29.9869L25.1568 29.9741L25.3238 29.99L25.3267 29.9903L25.3268 29.9903L25.3459 29.992L25.3622 29.9935L25.365 29.9938H26.2263C26.2264 29.9938 26.2265 29.9938 26.2266 29.9938C26.2274 29.9935 26.2295 29.9928 26.233 29.9911C26.2434 29.9862 26.27 29.9707 26.3037 29.9328C26.3731 29.8548 26.4491 29.7057 26.4491 29.4942V22.4956L26.4491 22.4773L26.4491 22.4753L26.4435 22.4192V22.3206V17.9652V15.9652H28.4435H30C30 15.9633 30 15.9614 30 15.9594C30 15.8783 29.9885 15.8464 29.987 15.8422C29.9857 15.8387 29.9841 15.8348 29.9805 15.8288C29.9791 15.8266 29.9771 15.8234 29.9743 15.8194L15.9761 2.09911L2.02563 15.8883L2.02237 15.8915ZM5.77666 30.0001C5.77662 30.0001 5.77658 30.0001 5.77655 30.0001L5.77666 30.0001ZM26.2262 29.9939C26.2261 29.9939 26.2261 29.9939 26.2263 29.9938L26.2262 29.9939Z" fill="#FDFDFD" stroke="#FDFDFD" stroke-width="4"/>
</svg>
