<svg width="31" height="31" viewBox="0 0 31 31" fill="none" xmlns="http://www.w3.org/2000/svg">
<circle cx="15.5" cy="15.5" r="15.5" fill="#D5B73E"/>
<path d="M13.25 6.1C13.25 5.54305 13.4871 5.0089 13.909 4.61508C14.331 4.22125 14.9033 4 15.5 4C16.0967 4 16.669 4.22125 17.091 4.61508C17.5129 5.0089 17.75 5.54305 17.75 6.1C17.75 6.65695 17.5129 7.1911 17.091 7.58492C16.669 7.97875 16.0967 8.2 15.5 8.2C14.9033 8.2 14.331 7.97875 13.909 7.58492C13.4871 7.1911 13.25 6.65695 13.25 6.1ZM11 12.4C11 11.6256 11.6703 11 12.5 11H15.5C16.3297 11 17 11.6256 17 12.4V22.2H18.5C19.3297 22.2 20 22.8256 20 23.6C20 24.3744 19.3297 25 18.5 25H12.5C11.6703 25 11 24.3744 11 23.6C11 22.8256 11.6703 22.2 12.5 22.2H14V13.8H12.5C11.6703 13.8 11 13.1744 11 12.4Z" fill="white"/>
</svg>
