<svg width="91" height="90" viewBox="0 0 91 90" fill="none" xmlns="http://www.w3.org/2000/svg">
<ellipse cx="45.5" cy="45" rx="45.5" ry="45" fill="#FDFDFD"/>
<path d="M40.1342 36.2298C38.9809 37.0006 37.9908 37.991 37.2204 39.1444C36.45 40.2979 35.9144 41.5917 35.6441 42.9521C35.0982 45.6995 35.6663 48.5512 37.2234 50.8798C38.7805 53.2084 41.199 54.8233 43.9469 55.369C46.6949 55.9148 49.5471 55.3468 51.8761 53.79C54.2052 52.2332 55.8203 49.8151 56.3662 47.0677C56.912 44.3203 56.3439 41.4686 54.7868 39.14C53.2298 36.8114 50.8113 35.1965 48.0633 34.6508C45.3154 34.105 42.4632 34.673 40.1342 36.2298ZM68.3109 22.6884C67.2812 21.659 66.0338 20.8473 64.6675 20.3127C61.0835 18.9071 53.2622 18.9665 48.2129 19.0259C47.4011 19.0259 46.6487 19.0457 45.9952 19.0457C45.3418 19.0457 44.5696 19.0457 43.7379 19.0259C38.6887 18.9665 30.9069 18.8873 27.3229 20.3127C25.9567 20.8473 24.729 21.659 23.6796 22.6884C22.6301 23.7179 21.8381 24.9651 21.3035 26.3311C19.8976 29.9144 19.9768 37.7542 20.0164 42.8025C20.0164 43.6142 20.0362 44.3665 20.0362 45C20.0362 45.6335 20.0362 46.3858 20.0164 47.1975C19.9768 52.2458 19.8976 60.0856 21.3035 63.6689C21.8381 65.0349 22.6499 66.2623 23.6796 67.3116C24.7092 68.3608 25.9567 69.1527 27.3229 69.6873C30.9069 71.0929 38.7283 71.0335 43.7775 70.9741C44.5894 70.9741 45.3418 70.9543 45.9952 70.9543C46.6487 70.9543 47.4209 70.9543 48.2525 70.9741C53.3018 71.0335 61.0835 71.1127 64.6675 69.6873C66.0338 69.1527 67.2614 68.341 68.3109 67.3116C69.3603 66.2821 70.1524 65.0349 70.687 63.6689C72.1127 60.1054 72.0335 52.3052 71.9741 47.2371C71.9741 46.4056 71.9543 45.6335 71.9543 44.9802C71.9543 44.3269 71.9543 43.5746 71.9741 42.7233C72.0335 37.675 72.1127 29.8748 70.687 26.2915C70.1524 24.9255 69.3405 23.6981 68.3109 22.6488V22.6884ZM55.0245 31.4982C58.606 33.8925 61.0896 37.6112 61.9288 41.8363C62.768 46.0613 61.8942 50.4467 59.4995 54.0276C58.3137 55.8007 56.7903 57.3229 55.0162 58.5073C53.2421 59.6917 51.252 60.5152 49.1595 60.9307C44.9337 61.7697 40.5476 60.896 36.966 58.5018C33.3845 56.1101 30.8999 52.3939 30.0588 48.1707C29.2177 43.9475 30.089 39.5632 32.4811 35.9823C34.8732 32.4014 38.59 29.9173 42.814 29.0763C47.038 28.2354 51.4231 29.1066 55.0047 31.4982H55.0245ZM60.8063 31.2409C60.1925 30.8251 59.6975 30.2312 59.4005 29.5383C59.1035 28.8454 59.0441 28.0931 59.1827 27.3408C59.3213 26.5885 59.6975 25.9352 60.2123 25.4007C60.7271 24.8661 61.4202 24.5098 62.1528 24.3712C62.8854 24.2326 63.6577 24.292 64.3507 24.589C65.0437 24.8859 65.6378 25.3611 66.0536 25.9748C66.4694 26.5885 66.6872 27.321 66.6872 28.0733C66.6872 28.5682 66.5882 29.0632 66.41 29.5185C66.2318 29.9738 65.9348 30.3896 65.5982 30.7459C65.2616 31.1023 64.8259 31.3794 64.3705 31.5774C63.9151 31.7754 63.4201 31.8744 62.925 31.8744C62.1726 31.8744 61.44 31.6566 60.8261 31.2409H60.8063Z" fill="#14141B"/>
</svg>
