<svg width="371" height="280" viewBox="0 0 371 280" fill="none" xmlns="http://www.w3.org/2000/svg">
<path d="M15 269.773H12.816L4.032 256.453V269.773H1.848V253.021H4.032L12.816 266.317V253.021H15V269.773ZM30.723 262.693C30.723 263.109 30.699 263.549 30.651 264.013H20.139C20.219 265.309 20.659 266.325 21.459 267.061C22.275 267.781 23.259 268.141 24.411 268.141C25.355 268.141 26.139 267.925 26.763 267.493C27.403 267.045 27.851 266.453 28.107 265.717H30.459C30.107 266.981 29.403 268.013 28.347 268.813C27.291 269.597 25.979 269.989 24.411 269.989C23.163 269.989 22.043 269.709 21.051 269.149C20.075 268.589 19.307 267.797 18.747 266.773C18.187 265.733 17.907 264.533 17.907 263.173C17.907 261.813 18.179 260.621 18.723 259.597C19.267 258.573 20.027 257.789 21.003 257.245C21.995 256.685 23.131 256.405 24.411 256.405C25.659 256.405 26.763 256.677 27.723 257.221C28.683 257.765 29.419 258.517 29.931 259.477C30.459 260.421 30.723 261.493 30.723 262.693ZM28.467 262.237C28.467 261.405 28.283 260.693 27.915 260.101C27.547 259.493 27.043 259.037 26.403 258.733C25.779 258.413 25.083 258.253 24.315 258.253C23.211 258.253 22.267 258.605 21.483 259.309C20.715 260.013 20.275 260.989 20.163 262.237H28.467ZM40.0138 256.381C41.6138 256.381 42.9098 256.869 43.9018 257.845C44.8938 258.805 45.3898 260.197 45.3898 262.021V269.773H43.2298V262.333C43.2298 261.021 42.9018 260.021 42.2458 259.333C41.5898 258.629 40.6938 258.277 39.5578 258.277C38.4058 258.277 37.4858 258.637 36.7978 259.357C36.1258 260.077 35.7898 261.125 35.7898 262.501V269.773H33.6058V256.621H35.7898V258.493C36.2218 257.821 36.8058 257.301 37.5418 256.933C38.2938 256.565 39.1178 256.381 40.0138 256.381ZM55.4854 256.381C56.4774 256.381 57.3734 256.597 58.1734 257.029C58.9734 257.445 59.5974 258.077 60.0454 258.925C60.5094 259.773 60.7414 260.805 60.7414 262.021V269.773H58.5814V262.333C58.5814 261.021 58.2534 260.021 57.5974 259.333C56.9414 258.629 56.0454 258.277 54.9094 258.277C53.7574 258.277 52.8374 258.637 52.1494 259.357C51.4774 260.077 51.1414 261.125 51.1414 262.501V269.773H48.9574V252.013H51.1414V258.493C51.5734 257.821 52.1654 257.301 52.9174 256.933C53.6854 256.565 54.5414 256.381 55.4854 256.381ZM75.9729 256.621V269.773H73.7889V267.829C73.3729 268.501 72.7889 269.029 72.0369 269.413C71.3009 269.781 70.4849 269.965 69.5889 269.965C68.5649 269.965 67.6449 269.757 66.8289 269.341C66.0129 268.909 65.3649 268.269 64.8849 267.421C64.4209 266.573 64.1889 265.541 64.1889 264.325V256.621H66.3489V264.037C66.3489 265.333 66.6769 266.333 67.3329 267.037C67.9889 267.725 68.8849 268.069 70.0209 268.069C71.1889 268.069 72.1089 267.709 72.7809 266.989C73.4529 266.269 73.7889 265.221 73.7889 263.845V256.621H75.9729ZM95.4765 256.381C96.5005 256.381 97.4125 256.597 98.2125 257.029C99.0125 257.445 99.6445 258.077 100.109 258.925C100.573 259.773 100.805 260.805 100.805 262.021V269.773H98.6445V262.333C98.6445 261.021 98.3165 260.021 97.6605 259.333C97.0205 258.629 96.1485 258.277 95.0445 258.277C93.9085 258.277 93.0045 258.645 92.3325 259.381C91.6605 260.101 91.3245 261.149 91.3245 262.525V269.773H89.1645V262.333C89.1645 261.021 88.8365 260.021 88.1805 259.333C87.5405 258.629 86.6685 258.277 85.5645 258.277C84.4285 258.277 83.5245 258.645 82.8525 259.381C82.1805 260.101 81.8445 261.149 81.8445 262.525V269.773H79.6605V256.621H81.8445V258.517C82.2765 257.829 82.8525 257.301 83.5725 256.933C84.3085 256.565 85.1165 256.381 85.9965 256.381C87.1005 256.381 88.0765 256.629 88.9245 257.125C89.7725 257.621 90.4045 258.349 90.8205 259.309C91.1885 258.381 91.7965 257.661 92.6445 257.149C93.4925 256.637 94.4365 256.381 95.4765 256.381ZM112.97 258.757C113.354 258.005 113.898 257.421 114.602 257.005C115.322 256.589 116.194 256.381 117.218 256.381V258.637H116.642C114.194 258.637 112.97 259.965 112.97 262.621V269.773H110.786V256.621H112.97V258.757ZM131.739 262.693C131.739 263.109 131.715 263.549 131.667 264.013H121.155C121.235 265.309 121.675 266.325 122.475 267.061C123.291 267.781 124.275 268.141 125.427 268.141C126.371 268.141 127.155 267.925 127.779 267.493C128.419 267.045 128.867 266.453 129.123 265.717H131.475C131.123 266.981 130.419 268.013 129.363 268.813C128.307 269.597 126.995 269.989 125.427 269.989C124.179 269.989 123.059 269.709 122.067 269.149C121.091 268.589 120.323 267.797 119.763 266.773C119.203 265.733 118.923 264.533 118.923 263.173C118.923 261.813 119.195 260.621 119.739 259.597C120.283 258.573 121.043 257.789 122.019 257.245C123.011 256.685 124.147 256.405 125.427 256.405C126.675 256.405 127.779 256.677 128.739 257.221C129.699 257.765 130.435 258.517 130.947 259.477C131.475 260.421 131.739 261.493 131.739 262.693ZM129.483 262.237C129.483 261.405 129.299 260.693 128.931 260.101C128.563 259.493 128.059 259.037 127.419 258.733C126.795 258.413 126.099 258.253 125.331 258.253C124.227 258.253 123.283 258.605 122.499 259.309C121.731 260.013 121.291 260.989 121.179 262.237H129.483ZM139.277 269.989C138.269 269.989 137.365 269.821 136.565 269.485C135.765 269.133 135.133 268.653 134.669 268.045C134.205 267.421 133.949 266.709 133.901 265.909H136.157C136.221 266.565 136.525 267.101 137.069 267.517C137.629 267.933 138.357 268.141 139.253 268.141C140.085 268.141 140.741 267.957 141.221 267.589C141.701 267.221 141.941 266.757 141.941 266.197C141.941 265.621 141.685 265.197 141.173 264.925C140.661 264.637 139.869 264.357 138.797 264.085C137.821 263.829 137.021 263.573 136.397 263.317C135.789 263.045 135.261 262.653 134.813 262.141C134.381 261.613 134.165 260.925 134.165 260.077C134.165 259.405 134.365 258.789 134.765 258.229C135.165 257.669 135.733 257.229 136.469 256.909C137.205 256.573 138.045 256.405 138.989 256.405C140.445 256.405 141.621 256.773 142.517 257.509C143.413 258.245 143.893 259.253 143.957 260.533H141.773C141.725 259.845 141.445 259.293 140.933 258.877C140.437 258.461 139.765 258.253 138.917 258.253C138.133 258.253 137.509 258.421 137.045 258.757C136.581 259.093 136.349 259.533 136.349 260.077C136.349 260.509 136.485 260.869 136.757 261.157C137.045 261.429 137.397 261.653 137.813 261.829C138.245 261.989 138.837 262.173 139.589 262.381C140.533 262.637 141.301 262.893 141.893 263.149C142.485 263.389 142.989 263.757 143.405 264.253C143.837 264.749 144.061 265.397 144.077 266.197C144.077 266.917 143.877 267.565 143.477 268.141C143.077 268.717 142.509 269.173 141.773 269.509C141.053 269.829 140.221 269.989 139.277 269.989ZM158.825 256.621V269.773H156.641V267.829C156.225 268.501 155.641 269.029 154.889 269.413C154.153 269.781 153.337 269.965 152.441 269.965C151.417 269.965 150.497 269.757 149.681 269.341C148.865 268.909 148.217 268.269 147.737 267.421C147.273 266.573 147.041 265.541 147.041 264.325V256.621H149.201V264.037C149.201 265.333 149.529 266.333 150.185 267.037C150.841 267.725 151.737 268.069 152.873 268.069C154.041 268.069 154.961 267.709 155.633 266.989C156.305 266.269 156.641 265.221 156.641 263.845V256.621H158.825ZM164.696 252.013V269.773H162.512V252.013H164.696ZM171.082 258.421V266.173C171.082 266.813 171.218 267.269 171.49 267.541C171.762 267.797 172.234 267.925 172.906 267.925H174.514V269.773H172.546C171.33 269.773 170.418 269.493 169.81 268.933C169.202 268.373 168.898 267.453 168.898 266.173V258.421H167.194V256.621H168.898V253.309H171.082V256.621H174.514V258.421H171.082ZM176.345 263.149C176.345 261.805 176.617 260.629 177.161 259.621C177.705 258.597 178.449 257.805 179.393 257.245C180.353 256.685 181.417 256.405 182.585 256.405C183.737 256.405 184.737 256.653 185.585 257.149C186.433 257.645 187.065 258.269 187.481 259.021V256.621H189.689V269.773H187.481V267.325C187.049 268.093 186.401 268.733 185.537 269.245C184.689 269.741 183.697 269.989 182.561 269.989C181.393 269.989 180.337 269.701 179.393 269.125C178.449 268.549 177.705 267.741 177.161 266.701C176.617 265.661 176.345 264.477 176.345 263.149ZM187.481 263.173C187.481 262.181 187.281 261.317 186.881 260.581C186.481 259.845 185.937 259.285 185.249 258.901C184.577 258.501 183.833 258.301 183.017 258.301C182.201 258.301 181.457 258.493 180.785 258.877C180.113 259.261 179.577 259.821 179.177 260.557C178.777 261.293 178.577 262.157 178.577 263.149C178.577 264.157 178.777 265.037 179.177 265.789C179.577 266.525 180.113 267.093 180.785 267.493C181.457 267.877 182.201 268.069 183.017 268.069C183.833 268.069 184.577 267.877 185.249 267.493C185.937 267.093 186.481 266.525 186.881 265.789C187.281 265.037 187.481 264.165 187.481 263.173ZM192.563 263.149C192.563 261.805 192.835 260.629 193.379 259.621C193.923 258.597 194.667 257.805 195.611 257.245C196.571 256.685 197.643 256.405 198.827 256.405C199.851 256.405 200.803 256.645 201.683 257.125C202.563 257.589 203.235 258.205 203.699 258.973V252.013H205.907V269.773H203.699V267.301C203.267 268.085 202.627 268.733 201.779 269.245C200.931 269.741 199.939 269.989 198.803 269.989C197.635 269.989 196.571 269.701 195.611 269.125C194.667 268.549 193.923 267.741 193.379 266.701C192.835 265.661 192.563 264.477 192.563 263.149ZM203.699 263.173C203.699 262.181 203.499 261.317 203.099 260.581C202.699 259.845 202.155 259.285 201.467 258.901C200.795 258.501 200.051 258.301 199.235 258.301C198.419 258.301 197.675 258.493 197.003 258.877C196.331 259.261 195.795 259.821 195.395 260.557C194.995 261.293 194.795 262.157 194.795 263.149C194.795 264.157 194.995 265.037 195.395 265.789C195.795 266.525 196.331 267.093 197.003 267.493C197.675 267.877 198.419 268.069 199.235 268.069C200.051 268.069 200.795 267.877 201.467 267.493C202.155 267.093 202.699 266.525 203.099 265.789C203.499 265.037 203.699 264.165 203.699 263.173ZM215.334 269.989C214.102 269.989 212.982 269.709 211.974 269.149C210.982 268.589 210.198 267.797 209.622 266.773C209.062 265.733 208.782 264.533 208.782 263.173C208.782 261.829 209.07 260.645 209.646 259.621C210.238 258.581 211.038 257.789 212.046 257.245C213.054 256.685 214.182 256.405 215.43 256.405C216.678 256.405 217.806 256.685 218.814 257.245C219.822 257.789 220.614 258.573 221.19 259.597C221.782 260.621 222.078 261.813 222.078 263.173C222.078 264.533 221.774 265.733 221.166 266.773C220.574 267.797 219.766 268.589 218.742 269.149C217.718 269.709 216.582 269.989 215.334 269.989ZM215.334 268.069C216.118 268.069 216.854 267.885 217.542 267.517C218.23 267.149 218.782 266.597 219.198 265.861C219.63 265.125 219.846 264.229 219.846 263.173C219.846 262.117 219.638 261.221 219.222 260.485C218.806 259.749 218.262 259.205 217.59 258.853C216.918 258.485 216.19 258.301 215.406 258.301C214.606 258.301 213.87 258.485 213.198 258.853C212.542 259.205 212.014 259.749 211.614 260.485C211.214 261.221 211.014 262.117 211.014 263.173C211.014 264.245 211.206 265.149 211.59 265.885C211.99 266.621 212.518 267.173 213.174 267.541C213.83 267.893 214.55 268.069 215.334 268.069ZM243.348 262.693C243.348 263.109 243.324 263.549 243.276 264.013H232.764C232.844 265.309 233.284 266.325 234.084 267.061C234.9 267.781 235.884 268.141 237.036 268.141C237.98 268.141 238.764 267.925 239.388 267.493C240.028 267.045 240.476 266.453 240.732 265.717H243.084C242.732 266.981 242.028 268.013 240.972 268.813C239.916 269.597 238.604 269.989 237.036 269.989C235.788 269.989 234.668 269.709 233.676 269.149C232.7 268.589 231.932 267.797 231.372 266.773C230.812 265.733 230.532 264.533 230.532 263.173C230.532 261.813 230.804 260.621 231.348 259.597C231.892 258.573 232.652 257.789 233.628 257.245C234.62 256.685 235.756 256.405 237.036 256.405C238.284 256.405 239.388 256.677 240.348 257.221C241.308 257.765 242.044 258.517 242.556 259.477C243.084 260.421 243.348 261.493 243.348 262.693ZM241.092 262.237C241.092 261.405 240.908 260.693 240.54 260.101C240.172 259.493 239.668 259.037 239.028 258.733C238.404 258.413 237.708 258.253 236.94 258.253C235.836 258.253 234.892 258.605 234.108 259.309C233.34 260.013 232.9 260.989 232.788 262.237H241.092ZM252.639 256.381C254.239 256.381 255.535 256.869 256.527 257.845C257.519 258.805 258.015 260.197 258.015 262.021V269.773H255.855V262.333C255.855 261.021 255.527 260.021 254.871 259.333C254.215 258.629 253.319 258.277 252.183 258.277C251.031 258.277 250.111 258.637 249.423 259.357C248.751 260.077 248.415 261.125 248.415 262.501V269.773H246.231V256.621H248.415V258.493C248.847 257.821 249.431 257.301 250.167 256.933C250.919 256.565 251.743 256.381 252.639 256.381ZM260.766 263.173C260.766 261.813 261.038 260.629 261.582 259.621C262.126 258.597 262.878 257.805 263.838 257.245C264.814 256.685 265.926 256.405 267.174 256.405C268.79 256.405 270.118 256.797 271.158 257.581C272.214 258.365 272.91 259.453 273.246 260.845H270.894C270.67 260.045 270.23 259.413 269.574 258.949C268.934 258.485 268.134 258.253 267.174 258.253C265.926 258.253 264.918 258.685 264.15 259.549C263.382 260.397 262.998 261.605 262.998 263.173C262.998 264.757 263.382 265.981 264.15 266.845C264.918 267.709 265.926 268.141 267.174 268.141C268.134 268.141 268.934 267.917 269.574 267.469C270.214 267.021 270.654 266.381 270.894 265.549H273.246C272.894 266.893 272.19 267.973 271.134 268.789C270.078 269.589 268.758 269.989 267.174 269.989C265.926 269.989 264.814 269.709 263.838 269.149C262.878 268.589 262.126 267.797 261.582 266.773C261.038 265.749 260.766 264.549 260.766 263.173ZM281.897 269.989C280.665 269.989 279.545 269.709 278.537 269.149C277.545 268.589 276.761 267.797 276.185 266.773C275.625 265.733 275.345 264.533 275.345 263.173C275.345 261.829 275.633 260.645 276.209 259.621C276.801 258.581 277.601 257.789 278.609 257.245C279.617 256.685 280.745 256.405 281.993 256.405C283.241 256.405 284.369 256.685 285.377 257.245C286.385 257.789 287.177 258.573 287.753 259.597C288.345 260.621 288.641 261.813 288.641 263.173C288.641 264.533 288.337 265.733 287.729 266.773C287.137 267.797 286.329 268.589 285.305 269.149C284.281 269.709 283.145 269.989 281.897 269.989ZM281.897 268.069C282.681 268.069 283.417 267.885 284.105 267.517C284.793 267.149 285.345 266.597 285.761 265.861C286.193 265.125 286.409 264.229 286.409 263.173C286.409 262.117 286.201 261.221 285.785 260.485C285.369 259.749 284.825 259.205 284.153 258.853C283.481 258.485 282.753 258.301 281.969 258.301C281.169 258.301 280.433 258.485 279.761 258.853C279.105 259.205 278.577 259.749 278.177 260.485C277.777 261.221 277.577 262.117 277.577 263.173C277.577 264.245 277.769 265.149 278.153 265.885C278.553 266.621 279.081 267.173 279.737 267.541C280.393 267.893 281.113 268.069 281.897 268.069ZM297.92 256.381C299.52 256.381 300.816 256.869 301.808 257.845C302.8 258.805 303.296 260.197 303.296 262.021V269.773H301.136V262.333C301.136 261.021 300.808 260.021 300.152 259.333C299.496 258.629 298.6 258.277 297.464 258.277C296.312 258.277 295.392 258.637 294.704 259.357C294.032 260.077 293.696 261.125 293.696 262.501V269.773H291.512V256.621H293.696V258.493C294.128 257.821 294.712 257.301 295.448 256.933C296.2 256.565 297.024 256.381 297.92 256.381ZM309.528 258.421V266.173C309.528 266.813 309.664 267.269 309.936 267.541C310.208 267.797 310.68 267.925 311.352 267.925H312.96V269.773H310.992C309.776 269.773 308.864 269.493 308.256 268.933C307.648 268.373 307.344 267.453 307.344 266.173V258.421H305.64V256.621H307.344V253.309H309.528V256.621H312.96V258.421H309.528ZM317.79 258.757C318.174 258.005 318.718 257.421 319.422 257.005C320.142 256.589 321.014 256.381 322.038 256.381V258.637H321.462C319.014 258.637 317.79 259.965 317.79 262.621V269.773H315.606V256.621H317.79V258.757ZM323.743 263.149C323.743 261.805 324.015 260.629 324.559 259.621C325.103 258.597 325.847 257.805 326.791 257.245C327.751 256.685 328.815 256.405 329.983 256.405C331.135 256.405 332.135 256.653 332.983 257.149C333.831 257.645 334.463 258.269 334.879 259.021V256.621H337.087V269.773H334.879V267.325C334.447 268.093 333.799 268.733 332.935 269.245C332.087 269.741 331.095 269.989 329.959 269.989C328.791 269.989 327.735 269.701 326.791 269.125C325.847 268.549 325.103 267.741 324.559 266.701C324.015 265.661 323.743 264.477 323.743 263.149ZM334.879 263.173C334.879 262.181 334.679 261.317 334.279 260.581C333.879 259.845 333.335 259.285 332.647 258.901C331.975 258.501 331.231 258.301 330.415 258.301C329.599 258.301 328.855 258.493 328.183 258.877C327.511 259.261 326.975 259.821 326.575 260.557C326.175 261.293 325.975 262.157 325.975 263.149C325.975 264.157 326.175 265.037 326.575 265.789C326.975 266.525 327.511 267.093 328.183 267.493C328.855 267.877 329.599 268.069 330.415 268.069C331.231 268.069 331.975 267.877 332.647 267.493C333.335 267.093 333.879 266.525 334.279 265.789C334.679 265.037 334.879 264.165 334.879 263.173ZM339.962 263.149C339.962 261.805 340.234 260.629 340.778 259.621C341.322 258.597 342.066 257.805 343.01 257.245C343.97 256.685 345.042 256.405 346.226 256.405C347.25 256.405 348.202 256.645 349.082 257.125C349.962 257.589 350.634 258.205 351.098 258.973V252.013H353.306V269.773H351.098V267.301C350.666 268.085 350.026 268.733 349.178 269.245C348.33 269.741 347.338 269.989 346.202 269.989C345.034 269.989 343.97 269.701 343.01 269.125C342.066 268.549 341.322 267.741 340.778 266.701C340.234 265.661 339.962 264.477 339.962 263.149ZM351.098 263.173C351.098 262.181 350.898 261.317 350.498 260.581C350.098 259.845 349.554 259.285 348.866 258.901C348.194 258.501 347.45 258.301 346.634 258.301C345.818 258.301 345.074 258.493 344.402 258.877C343.73 259.261 343.194 259.821 342.794 260.557C342.394 261.293 342.194 262.157 342.194 263.149C342.194 264.157 342.394 265.037 342.794 265.789C343.194 266.525 343.73 267.093 344.402 267.493C345.074 267.877 345.818 268.069 346.634 268.069C347.45 268.069 348.194 267.877 348.866 267.493C349.554 267.093 350.098 266.525 350.498 265.789C350.898 265.037 351.098 264.165 351.098 263.173ZM362.732 269.989C361.5 269.989 360.38 269.709 359.372 269.149C358.38 268.589 357.596 267.797 357.02 266.773C356.46 265.733 356.18 264.533 356.18 263.173C356.18 261.829 356.468 260.645 357.044 259.621C357.636 258.581 358.436 257.789 359.444 257.245C360.452 256.685 361.58 256.405 362.828 256.405C364.076 256.405 365.204 256.685 366.212 257.245C367.22 257.789 368.012 258.573 368.588 259.597C369.18 260.621 369.476 261.813 369.476 263.173C369.476 264.533 369.172 265.733 368.564 266.773C367.972 267.797 367.164 268.589 366.14 269.149C365.116 269.709 363.98 269.989 362.732 269.989ZM362.732 268.069C363.516 268.069 364.252 267.885 364.94 267.517C365.628 267.149 366.18 266.597 366.596 265.861C367.028 265.125 367.244 264.229 367.244 263.173C367.244 262.117 367.036 261.221 366.62 260.485C366.204 259.749 365.66 259.205 364.988 258.853C364.316 258.485 363.588 258.301 362.804 258.301C362.004 258.301 361.268 258.485 360.596 258.853C359.94 259.205 359.412 259.749 359.012 260.485C358.612 261.221 358.412 262.117 358.412 263.173C358.412 264.245 358.604 265.149 358.988 265.885C359.388 266.621 359.916 267.173 360.572 267.541C361.228 267.893 361.948 268.069 362.732 268.069Z" fill="black" fill-opacity="0.6"/>
<g opacity="0.4">
<path d="M155.334 36.1068C159.366 35.6028 162.672 33.8326 167.334 34.1068C170.7 34.3048 173.791 43.208 171.001 45.4401C168.191 47.6875 164.277 47.2864 161.001 49.1068C158.313 50.5997 158.424 59.9446 156.667 58.7735" stroke="#D53E41" stroke-width="7" stroke-linecap="round"/>
<path d="M261.333 160.107C261.048 160.071 263.12 158.017 265.333 160.107C268.978 163.549 266.966 166.166 262.666 164.255C258.464 162.387 255.405 176.485 257.333 168.773" stroke="#D53E41" stroke-width="2" stroke-linecap="round"/>
<path d="M255.791 174.273C255.621 174.273 255.708 174.107 255.522 173.958C255.241 173.733 254.995 174.878 255.754 174.671C256.168 174.558 255.53 174.11 255.208 174.292C255.084 174.361 255.638 174.634 255.458 174.273" stroke="#D53E41" stroke-width="2" stroke-linecap="round"/>
<path opacity="0.4" d="M210.334 76.1067C210.475 77.2376 212.683 76.7733 213.519 76.7733C217.67 76.7733 222.454 81.5963 225.001 84.6252C228.94 89.31 233.073 92.7935 238.371 95.7733C249.092 101.804 259.11 107.072 268.63 115.07C276.338 121.544 286.116 125.381 293.519 132.255C295.586 134.174 302.556 138.847 299.964 137.736C298.747 137.215 297.14 137.861 295.667 137.44C293.419 136.798 292.755 135.737 291.297 134.107C289.641 132.256 287.086 128.934 285.815 126.773C284.596 124.701 280.595 124.527 279.667 122.44C277.995 118.677 271.18 113.15 267.334 111.44C264.944 110.378 261.964 107.811 260.334 105.773C259.154 104.298 254.34 103.268 252.482 102.625C246.142 100.431 241.365 96.1027 235.815 92.403C230.989 89.1852 226.332 85.8833 221.334 83.1067C217.769 81.126 212.31 79.0769 209.667 75.7733C208.675 74.5328 205.798 71.9526 209.667 74.44C211.578 75.6681 214.681 76.7496 216.186 78.2548C220.647 82.716 227.793 85.5807 233.815 87.5882C251.196 93.3816 261.756 112.33 279.038 118.81C286.066 121.446 290.642 127.446 297.001 130.625C300.192 132.221 298.97 139.294 299.964 142.773C301.296 147.44 294.564 141.67 295.667 142.773C296.114 143.22 299.026 154.273 299.964 154.273" stroke="#D5B73E" stroke-width="2" stroke-linecap="round"/>
<path opacity="0.4" d="M193.667 99.4401C193.638 99.2032 192.075 95.9493 193.001 97.1067C194.596 99.1013 195.416 102.061 196.852 104.329C201.023 110.914 202.646 117.324 206.038 124.107C208.731 129.494 208.486 136.101 210.667 141.773C212.788 147.287 215.463 153.122 218.667 158.107C220.982 161.707 222.391 165.885 224.482 169.44C226.918 173.581 227.9 179.091 231.001 182.773C233.631 185.897 235.964 189.737 237.149 193.588C238.322 197.4 233.961 189.329 233.297 188.107C232.12 185.938 230.35 184.27 229.149 182.107C221.065 167.557 211.845 153.251 203.334 138.847C198.906 131.354 195.431 123.402 191.964 115.477C189.689 110.279 187.404 104.033 184.667 99.1067C183.791 97.5288 182.334 95.0306 182.334 93.1808C182.334 90.4121 184.959 98.0581 186.371 100.44C191.759 109.533 197.655 118.313 203.001 127.477C208.104 136.227 208.494 146.933 216.038 154.477C220.213 158.653 226.593 166.115 228.334 171.773C229.949 177.021 234.431 179.082 236.852 183.44C238.52 186.442 239.772 190.324 241.815 191.959C243.647 193.424 251.254 193.919 253.815 194.625C258.631 195.954 267.962 194.811 272.334 192.625C279.754 188.915 290.059 181.826 293.001 173.736C294.751 168.922 299.179 164.802 300.297 159.773C301.791 153.049 301.056 149.087 299.667 142.144C298.65 137.058 294.76 129.338 291.149 125.588C288.358 122.69 288.426 122.396 290.334 126.107C292.585 130.483 293.415 136.12 294.482 140.922C297.545 154.706 294.933 171.786 284.852 182.255C280.609 186.661 275.026 191.248 269.001 192.625C263.501 193.882 258.35 191.64 253.149 191.44C249.516 191.3 246.034 189.724 242.482 189.44C237.58 189.048 234.319 182.773 241.667 182.773" stroke="#D5B73E" stroke-width="2" stroke-linecap="round"/>
<path opacity="0.4" d="M237.667 185.44C231.842 185.44 237.533 165.708 239.333 162.107C241.617 157.539 242.515 153.925 246.185 150.255C249.696 146.744 253 143.07 256.481 139.588C261.541 134.528 271.699 127.808 278.667 126.736C281.981 126.226 284.833 126.942 288.037 128.107C293.447 130.074 285.541 127.514 283.926 127.514C266.337 127.514 247.241 140.899 241.333 157.44C239.508 162.552 235.266 171.424 237.518 176.773C238.356 178.763 239.706 194.303 245 190.773" stroke="#D5B73E" stroke-width="2" stroke-linecap="round"/>
<path d="M156.668 72.1071C151.877 71.5083 159.897 70.4634 154.001 70.7737C150.958 70.9339 154.351 74.0344 155.186 73.2923C156.552 72.0786 152.468 69.2052 151.186 69.7367C147.752 71.1605 150.854 75.153 152.668 73.4404C154.115 72.0739 153.906 69.4404 151.334 69.4404C149.852 69.4404 152.406 71.6314 152.816 71.9589C154.048 72.9445 154.475 70.0107 153.334 69.4404" stroke="#D53E41" stroke-width="7" stroke-linecap="round"/>
<path d="M174.667 60.773C173.611 60.773 178.22 58.5024 176.964 58.1434C176.53 58.0196 170.997 57.6164 174.001 57.4397C175.518 57.3504 180.613 54.8722 181.334 55.773C182.163 56.8087 185.866 56.9394 183.482 59.5878C181.171 62.156 178.07 64.5111 176.519 67.4397C175.666 69.0518 174.791 72.981 175.297 69.4397C175.861 65.4921 178.998 67.708 181.186 65.9582C185.242 62.7134 183.389 62.4173 179.852 59.5878C178.952 58.8674 175.871 58.1063 177.001 58.1063C178.515 58.1063 181.681 56.3844 183.186 57.5878C187.148 60.7575 183.312 63.5908 181.186 65.2915C179.987 66.2504 177.112 66.4078 175.704 66.81C175.689 66.8143 174.001 71.1764 174.001 70.1063" stroke="#D53E41" stroke-width="2" stroke-linecap="round"/>
<path d="M176.001 76.7732C174.508 78.4522 176.979 78.3659 176.63 77.1436C176.309 76.0202 173.62 77.652 175.038 79.0696C176.652 80.6842 176.743 77.7868 175.482 78.9214C174.378 79.9156 174.299 81.5345 176.001 81.4399C177.868 81.3362 177.266 79.5251 176.667 78.477C175.945 77.2136 172.547 77.6725 174.334 78.0696C178.208 78.9305 172.329 77.4495 171.334 79.4399" stroke="#D53E41" stroke-width="2" stroke-linecap="round"/>
<path d="M237.334 130.774C234.655 130.774 242.689 128.687 245.26 129.44C247.874 130.206 250.668 133.283 250.668 136.107C250.668 139.636 240.947 137.817 238.816 141.44C238.136 142.596 235.613 147.259 237.482 144.922C239.208 142.764 238.645 140.784 241.334 139.588C243.062 138.82 247.827 140.572 248.001 137.44C248.193 133.975 248.196 131.892 245.371 129.774C242.912 127.929 240.297 128.631 238.371 131.107C238.184 131.348 236.678 134.477 237.482 134.477C238.393 134.477 239.813 131.053 240.63 130.44C245.718 126.625 249.136 136.497 243.63 138.07C239.704 139.192 236.962 143.613 236.038 147.774C235.314 151.03 238.323 148.498 237.001 147.44C235.088 145.91 237.896 141.858 236.668 146.774" stroke="#D53E41" stroke-width="2" stroke-linecap="round"/>
<path d="M236.667 162.107C236.1 157.565 231.693 160.603 235.001 162.44C237.543 163.853 237.045 159.265 235.001 158.811C232.19 158.186 232.466 161.813 235.334 161.403C237.171 161.141 238.247 156.542 235.26 157.366C230.334 158.725 231.47 161.585 235.482 162.626C238.022 163.284 241.171 158.249 237.482 158.107C235.898 158.046 234.667 157.908 234.667 159.44" stroke="#D53E41" stroke-width="2" stroke-linecap="round"/>
<path d="M151.334 13.4397C146.385 12.8211 140.536 16.8219 137 21.1433C134.383 24.3423 133.1 28.4655 131.482 32.1063C130.19 35.0122 127.508 38.1366 127.334 41.4396C127.262 42.7958 128.593 43.7184 128.593 45.0693C128.593 46.2022 127.7 47.5886 128.037 49.1063C128.831 52.6796 129.334 55.2624 129.334 59.1063C129.334 67.2161 139.913 76.0194 145 81.1063C149.486 85.5923 162.766 85.4397 168.667 85.4397C179.76 85.4397 187.267 81.5065 194.667 74.1063C203.041 65.7329 204.667 54.7118 204.667 43.773C204.667 38.3826 198.981 32.4208 198.667 26.773C198.416 22.2599 191.064 15.5626 187.334 13.5878C176.444 7.82239 153.29 -2.55244 143.704 9.77298C137.249 18.0727 128.884 22.1302 126.519 32.773C124.108 43.6228 119.421 53.761 120 64.773C120.173 68.0617 125.238 75.5753 127.037 78.4026C128.94 81.3925 136.831 88.2124 133.593 86.773C127.452 84.0437 121.204 70.5733 123 64.1063C123.765 61.3525 124.667 57.5843 124.667 54.7359C124.667 53.2882 125.151 48.8641 124.704 53.1063C124.237 57.5388 125.272 61.4701 127.186 65.4397C129.424 70.0832 133.742 73.5748 135.852 77.9582C137.818 82.0407 142.646 87.3539 146.667 89.5878C150.665 91.8087 154.789 92.542 158.963 94.4396C161.043 95.3847 169.541 97.0007 163.297 95.4397C155.802 93.566 148.758 91.44 141.482 88.9211C136.874 87.3262 135.209 79.9677 133.334 76.1063C130.016 69.2758 126.605 63.1104 122.667 56.6248C120.302 52.7298 125.18 46.7857 125.334 42.6248C125.788 30.3629 132.314 22.5805 140.037 13.6989C144.317 8.77767 146.349 4.77297 153 4.77297C157.8 4.77297 168.94 3.19199 172.186 7.73595C172.346 7.9601 167.94 8.41416 167.556 8.47668C164.376 8.99431 161.141 9.52975 158 10.2545C157.539 10.3609 150.618 11.9466 153.334 12.1063C157.266 12.3376 162.277 12.3435 166.149 13.5878C171.429 15.2852 178.803 17.0137 182.815 20.6248C192.108 28.9878 198 45.8082 198 58.4396C198 63.4388 195.536 69.0349 193.334 73.4397C190.973 78.1604 187.92 86.8439 182.519 88.9211C176.167 91.3642 171.394 95.0679 164.149 92.9211C161.863 92.244 153.766 88.4471 158.519 91.4397C161.983 93.6209 166.11 92.3657 169.889 92.1433C172.9 91.9662 175.676 92.773 178.667 92.773C183.481 92.773 187.802 90.9971 191.926 88.4767C201.327 82.732 208 73.8947 208 62.4767C208 60.857 206.646 59.1355 206.148 57.5878C205.236 54.7497 206.461 52.1316 205.186 49.4396C203.26 45.3754 199.618 42.6185 197.482 38.773C196.135 36.3481 189.172 20.9344 185.334 24.773" stroke="#14141B" stroke-width="7" stroke-linecap="round"/>
<path d="M126 101.44C121.856 101.958 128.603 109.182 130.666 109.44C135.897 110.094 126.645 106.942 124.333 105.144C121.616 103.03 130.558 108.773 134 108.773C136.791 108.773 130.772 107.496 130 107.292C126.477 106.359 128.575 103.367 126.37 102.106C125.675 101.709 122.924 99.1842 125 100.106C127.627 101.274 129.972 104.003 132.666 104.773C134.611 105.329 135.661 107.624 137.666 108.069C141.469 108.914 139.306 104.372 137.333 103.44C134.808 102.247 131.036 103.291 128.814 101.292C127.458 100.071 132.198 101.328 133 101.773C138.657 104.916 132.607 101.136 130.74 99.4769C126.829 96.0003 131.348 100.195 132.666 101.44C138.051 106.525 127.18 96.556 128.148 95.588C128.495 95.2405 137.41 100.773 139.666 100.773C141.671 100.773 135.841 105.891 134.666 106.625C132.745 107.826 131.574 109.778 130 111.44C129.706 111.75 128.131 113.848 128.963 112.625C129.907 111.236 131.925 106.872 131.925 108.551C131.925 111.026 127.103 115.41 125.74 117.329C124.867 118.557 121.885 123.203 123.703 119.069C125.027 116.062 129.246 107.178 127.555 109.995C125.561 113.32 123.919 116.993 122.407 120.551C121.511 122.659 120 124.611 120 126.995C120 130.389 122.083 120.533 122.963 117.255C125.246 108.742 124.642 114.348 122 119.736C119.306 125.229 112.813 142.406 114.814 136.625C117.039 130.199 120.078 120.102 124.925 115.255C127.299 112.881 122.366 121.464 120.962 124.514C118.357 130.175 116.238 135.989 113.703 141.662C112.856 143.558 110.662 149.34 111.777 147.588C115.12 142.335 116.439 135.714 119.185 130.106C120.401 127.621 121.442 123.466 123.333 121.44C125.927 118.661 119.712 128.125 117.851 131.44C113.959 138.376 107.576 148.141 106.666 156.329C106.255 160.028 109.727 149.537 111.481 146.255C114.27 141.036 117.407 136.021 120.148 130.773C121.698 127.804 123.684 125.108 125.185 122.106C126.878 118.719 121.447 128.694 119.592 131.995C115.791 138.764 111.693 145.583 108.666 152.736C107.632 155.179 106.363 159.003 104.407 160.958C100.755 164.61 109.241 151.828 111.777 147.329C115.94 139.946 120.028 132.633 123.851 125.069C125.745 121.323 127.999 118.101 130.518 114.773C130.794 114.408 132.086 111.992 132 112.773C131.571 116.632 126.848 121.433 124.963 124.625C120.464 132.242 116.105 139.919 112.407 147.958C111.884 149.094 109.231 155.062 111.111 150.551C113.665 144.421 117.018 138.608 120.296 132.847C122.591 128.813 124.857 123.865 127.888 120.329C131.572 116.031 122.946 130.533 120 135.366C116.477 141.143 113.161 146.626 110.333 152.773C109.434 154.727 106.666 158.177 106.666 160.366C106.666 162.636 108.028 156.01 109.074 153.995C112.636 147.135 117.048 140.656 121.037 134.032C125.3 126.953 118.108 139.747 117.333 141.144C112.45 149.943 107.974 158.858 104 168.106C103.616 168.998 101.075 177.343 99.481 177.144C99.1967 177.108 105.566 160.725 106 159.81C106.65 158.439 113.937 143.305 110.222 151.032C107.19 157.338 104.477 163.845 102.037 170.403C100.543 174.418 99.1987 178.538 97.3329 182.403C95.9674 185.231 95.961 187.141 97.481 183.144C100.806 174.401 113.274 149.239 109.703 157.884C105.383 168.345 100.241 178.862 95.481 189.144C94.5569 191.14 94.3943 191.591 95.3329 189.292C98.2555 182.131 101.968 175.214 105.333 168.255C106.781 165.259 111.703 159.152 111.703 155.588C111.703 152.058 108.37 161.813 106.629 164.884C101.809 173.39 99.9067 185.192 94.3329 192.995C90.0836 198.944 100.287 179.641 103.333 172.995C108.577 161.553 112.981 149.601 119.185 138.625C120.179 136.866 121.545 131.27 123 130.106C124.303 129.064 125.024 125.998 125.37 124.44C125.677 123.059 123.326 128.787 122.925 129.588C119.735 135.968 116.378 141.964 113.703 148.588C112.83 150.75 108.19 162.525 112.74 155.699C117.112 149.142 122.339 142.239 125.333 134.921C127.028 130.778 128.887 124.388 132.37 121.403C133.692 120.27 137.534 112.138 135.333 115.44" stroke="#14141B" stroke-width="7" stroke-linecap="round"/>
<path d="M132.001 110.106C132.132 108.925 136.03 108.511 134.927 108.069C134.197 107.777 131.013 106.9 132.149 105.44C134.905 101.896 137.626 105.732 133.001 101.106C130.555 98.6605 132.104 100.688 134.149 100.773C135.896 100.846 127.326 99.4398 129.075 99.4398C130.439 99.4398 133.152 101.359 130.667 100.255C128.387 99.2411 122.422 97.4663 125.334 101.106C127.245 103.495 134.564 105.071 128.038 103.44C121.721 101.861 133.59 106.887 135.186 105.292C135.915 104.563 133.018 101.81 132.371 101.44C131.556 100.974 138.364 104.826 134.001 102.773C130.172 100.971 132.669 103.404 134.667 104.403C137.76 105.949 133.483 103.44 131.334 103.44C121.879 103.44 136.076 103.905 132.964 102.773C127.017 100.611 122.986 101.408 128.667 106.773C130.557 108.558 133.837 104.367 133.297 102.477C133.102 101.795 126.986 110.654 126.001 111.292C124.462 112.287 129.428 107.272 130.297 106.403C132.083 104.617 130.902 105.832 129.964 107.181C127.914 110.127 126.431 113.311 125.075 116.625C124.29 118.543 130.187 109.003 131.334 106.773C133.429 102.699 125.757 113.034 125.001 114.514C124.128 116.222 120.19 126.416 120.964 124.625C121.419 123.57 129.22 111.724 129.853 113.069C130.495 114.434 124.706 124.865 123.667 126.366C121.12 130.045 129.503 119.567 132.667 116.403C135.658 113.413 126.884 122.604 124.408 126.032C122.022 129.337 129.927 121.482 129.927 120.514C129.927 120.205 126.55 123.265 126.371 123.44C123.323 126.431 120.311 129.274 117.63 132.625C113.422 137.886 120.885 131.44 122.001 130.477C122.885 129.713 131.266 121.001 130.519 120.255C129.847 119.583 126.264 123.863 125.964 124.181C123.324 126.976 115.764 135.677 118.482 132.958C121.566 129.875 125.215 126.049 127.186 122.106C128.421 119.636 118.871 128.57 117.741 130.032C112.9 136.298 118.422 129.744 120.371 127.069C120.732 126.574 124.371 121.494 124.371 121.736C124.371 123.904 121.203 127.427 120.149 129.292C117.168 134.565 121.822 124.13 122.334 121.773C123.664 115.656 122.98 119.761 121.482 123.81C120.059 127.658 118.401 131.452 117.075 135.329C116.881 135.894 115.188 140.774 116.371 138.069C118.62 132.929 121.561 127.677 122.667 122.144C123.418 118.393 119.935 128.73 118.816 130.625C115.071 136.963 119.825 128.522 120.593 126.218C123.482 117.552 119.049 128.792 118.001 131.588C117.686 132.428 115.039 139.408 115.482 137.292C116.179 133.961 116.848 130.445 118.149 127.292C119.098 124.992 120.1 122.875 121.593 120.884C121.612 120.86 119.368 127.393 118.741 128.958C117.982 130.858 113.654 142.825 116.001 135.292C117.303 131.111 119.479 126.32 121.593 122.514C123.669 118.778 115.777 130.194 116.704 134.366C116.947 135.459 119.144 131.838 119.334 131.588C121.132 129.225 123.077 126.702 124.519 124.106C125.912 121.599 134.084 111.865 129.964 120.106C122.206 135.622 137.036 105.471 130.149 120.106C130.127 120.153 133.317 112.164 133.667 112.514C135.194 114.041 131.884 119.534 132.149 118.477C132.677 116.362 137.647 104.004 136.297 108.44C135.663 110.521 130.442 122.725 133.371 115.403C134.45 112.705 140.082 97.2056 136.001 107.069C135.864 107.4 131.659 116.699 132.371 116.699C134.148 116.699 136.147 110.147 136.001 112.773C135.922 114.181 132.643 116.106 135.334 116.106" stroke="#3E52D5" stroke-opacity="0.5" stroke-width="7" stroke-linecap="round"/>
<path d="M140.668 75.44C140.668 78.156 148.592 88.5082 142.038 82.7734C140.534 81.4575 137.648 79.2261 136.705 77.8104C135.624 76.1893 139.399 80.6644 141.001 81.7734C146.476 85.5637 137.732 79.1017 136.26 77.7734C133.942 75.6814 130.007 73.8813 128.445 71.0697C128.402 70.9921 130.918 72.6584 131.334 73.1437C133.541 75.7189 136.194 77.3166 137.334 80.7363C137.617 81.5839 133.156 73.7572 132.445 71.8845C131.95 70.5793 131.784 65.5144 133.334 69.2178C134.574 72.1806 138.272 80.7483 136.001 78.4771C133.321 75.7973 131.68 71.088 130.816 67.44C129.728 62.8457 131.482 66.6159 131.853 69.0697C132.329 72.2268 132.231 81.6425 131.186 78.6252C129.449 73.6082 129.334 69.2807 129.334 63.9586C129.334 57.8561 130.417 67.2487 130.149 69.2919C129.155 76.8697 128.591 70.4752 128.149 66.1067C127.978 64.4112 127.662 52.1721 127.297 56.1808C127.185 57.4173 123.945 68.6993 126.334 68.6993C127.022 68.6993 125.546 63.8016 125.482 63.2919C125.141 60.5636 125.885 57.505 126.334 54.8104C126.823 51.8795 126.738 48.6234 127.371 45.7734C127.917 43.3192 128.338 39.2171 129.705 37.0697C131.151 34.7963 132.553 28.8651 134.334 27.44C136.862 25.4182 137.673 21.3496 140.668 19.5882C142.887 18.2826 146.675 17.0688 149.334 16.7734C151.328 16.5518 156.396 14.4574 157.853 13.2919C160.359 11.2868 164.485 12.6151 167.334 12.7734C174.103 13.1494 177.631 16.3505 183.038 19.44C186.935 21.667 188.47 30.8592 191.334 34.44C194.77 38.735 198.001 43.1945 198.001 48.9215C198.001 51.65 197.638 56.5082 198.519 58.7734C199.621 61.6069 195.355 65.2685 194.149 67.44C186.447 81.3028 175.969 85.44 160.334 85.44C157.409 85.44 143.006 75.6887 142.668 81.44C142.497 84.3402 143.706 87.6464 146.668 89.2919C148.041 90.0552 155.425 93.6622 154.519 92.9215C152.777 91.4963 138.742 85.0863 138.742 83.7734C138.742 83.0664 141.271 84.6822 141.482 84.7734C143.67 85.7182 145.869 86.7446 148.001 87.8104C148.89 88.255 155.553 90.8297 153.223 89.8104C149.173 88.0386 145.361 85.787 141.334 83.7734C139.316 82.7644 135.796 80.4988 139.705 83.4771C142.476 85.5886 151.121 92.6055 142.334 88.403C138.751 86.6893 130.173 81.0446 138.668 85.2919C143.903 87.9097 130.901 80.6363 129.186 78.9215C127.256 76.9917 125.291 75.8456 123.334 74.1067C121.055 72.081 121.916 67.1783 122.001 64.1067C122.016 63.5604 123.95 53.7475 124.334 53.44C125.876 52.2065 124.313 46.0105 123.964 44.44C122.226 36.6205 127.781 31.3613 131.334 25.1437C134.205 20.1201 142.685 11.792 148.668 11.44C151.574 11.2691 154.811 10.1067 158.001 10.1067C159.556 10.1067 161.112 10.1067 162.668 10.1067C167.008 10.1067 159.195 9.72543 158.149 9.5882C155.749 9.27345 150.24 9.4622 155.668 7.81041C158.468 6.95796 164.718 7.8276 158.334 8.77336C157.106 8.95537 146.444 11.071 148.371 9.14374C153.11 4.40484 163.987 8.98814 169.001 11.7734C170.407 12.5545 165.616 9.81643 164.297 9.5882C160.626 8.95276 160.352 10.7734 164.149 10.7734C167.025 10.7734 175.9 14.0408 170.001 10.6252C162.285 6.15791 175.172 14.2556 173.038 11.2919C172.065 9.94022 169.427 7.96454 172.001 10.403C173.647 11.9621 179.971 14.1067 177.705 14.1067C175.981 14.1067 172.369 10.2308 173.742 11.1808C176.947 13.4 186.427 19.9557 183.89 16.9956C180.831 13.427 168.044 7.06481 172.408 8.8104C175.227 9.93797 177.744 14.2681 180.334 16.0697C183.237 18.0891 192.926 26.2586 184.297 20.7363C183.549 20.2577 175.753 14.2987 179.334 14.8104C182.548 15.2696 186.325 18.3476 188.964 20.1067C199.054 26.8333 185.437 19.0294 186.297 15.5882C186.449 14.9793 193.333 19.5847 194.149 20.1067C195.542 20.9981 190.616 16.2096 189.482 15.44C185.699 12.8725 184.766 10.0304 180.149 8.25485C177.669 7.30109 171.953 7.19946 172.668 10.7734" stroke="#3E52D5" stroke-opacity="0.5" stroke-width="7" stroke-linecap="round"/>
</g>
</svg>
