<svg width="718" height="686" viewBox="0 0 718 686" fill="none" xmlns="http://www.w3.org/2000/svg">
<path d="M100.816 54.7596C102.257 43.0789 113.423 35.1614 124.922 37.6662L151.896 43.5418C153.295 43.8464 154.722 44 156.153 44H201.5C212.546 44 221.5 35.0457 221.5 24V23.3459C221.5 13.3929 228.819 4.95449 238.672 3.54692L260.708 0.398829C262.56 0.134252 264.44 0.130843 266.293 0.388702L404.245 19.5859C412.516 20.7369 419.201 26.905 421.013 35.0564L426.178 58.3009C427.894 66.0222 433.999 72.0068 441.753 73.5686L550.112 95.3936C561.241 97.6351 568.275 108.679 565.6 119.712L518.5 314L499 430L549.772 415.067C549.922 415.023 550.059 414.945 550.173 414.838L588.5 379L612.208 349.821C613.723 347.956 615.563 346.379 617.639 345.166L648.324 327.233C651.386 325.443 654.869 324.5 658.416 324.5H679.714C688.501 324.5 696.259 330.235 698.835 338.636L717.5 399.5L625 430L577.465 452.797C576.49 453.265 575.554 453.811 574.667 454.43L536.554 481.03C531.194 484.771 528 490.895 528 497.431V511.859C528 514.266 527.565 516.654 526.717 518.908L499.792 590.398C499.266 591.795 498.585 593.129 497.762 594.374L482.145 618.011C481.054 619.661 479.725 621.141 478.201 622.401L444.906 649.925C443.64 650.971 442.508 652.169 441.535 653.492L423.994 677.348C420.226 682.473 414.243 685.5 407.881 685.5H368.973C367.661 685.5 366.352 685.371 365.065 685.114L229 658L110.98 640.789C109.663 640.597 108.369 640.274 107.117 639.825L56 621.5L15.818 604.279C6.72426 600.382 1.84666 590.421 4.34405 580.848L14.3523 542.483C14.7824 540.834 15 539.138 15 537.434V497.436C15 496.48 15.0685 495.525 15.205 494.579L36.5 347L55.5529 219.004C55.8493 217.013 56.4446 215.078 57.3186 213.264L88.0699 149.467C89.0169 147.502 89.6362 145.396 89.9032 143.231L100.816 54.7596Z" fill="#D1D1CF"/>
<path d="M398.472 605.676C397.495 606.897 397.418 608.192 396.986 609.675C394.297 618.895 398.868 590.559 399.729 580.994C400.037 577.559 400.968 567.323 400.071 570.653C396.503 583.906 395.507 598.512 392.987 611.96C389.057 632.928 375.122 695.399 379.503 674.521C385.032 648.18 391.278 621.999 396.643 595.62C399.031 583.882 400.304 571.283 404.185 559.855C408.623 546.787 402.37 587.492 399.5 600.991C397.562 610.103 394.354 622.596 390.759 631.385C389.099 635.442 387.162 641.354 382.874 643.212C368.806 649.308 349.472 647.03 334.882 645.669C305.101 642.889 276.032 635.701 246.726 630.129C228.667 626.695 209.52 624.507 191.764 620.302C180.299 617.586 168.268 617.284 156.798 614.417C133.734 608.651 110.66 602.956 87.4956 597.505C72.4002 593.954 56.9484 591.533 41.6176 589.221C36.6471 588.472 24.4007 582.897 26.6487 587.393C27.8887 589.873 37.3746 591.72 39.4466 592.478C52.9332 597.408 66.0532 603.179 79.3255 608.646C108.513 620.669 137.969 633.003 167.425 644.298C192.234 653.81 219.141 655.012 245.24 658.238C268.186 661.074 291.089 667.887 314.257 668.351C328.028 668.626 341.457 667.574 355.222 668.408C364.872 668.993 374.296 670.979 384.017 670.407C398.972 669.528 408.972 659.637 413.098 645.555C420.803 619.251 420.903 591.596 426.695 564.768C430.695 546.244 438.902 529.147 445.207 511.406C453.236 488.812 456.954 465.957 459.661 442.217C463.297 410.335 466.989 378.415 477.373 347.891C486.693 320.492 497.785 296.119 502.911 267.561C509.011 233.577 519.643 201.332 527.25 167.807C529.321 158.679 536.422 131.363 526.221 124.328C507.641 111.515 479.869 107.603 458.119 104.046C428.886 99.2659 399.807 100.191 370.476 97.8756C364.034 97.3671 357.127 97.6631 354.308 90.7911C350.465 81.4244 351.082 71.5202 352.708 61.7675C354.689 49.8803 359.483 42.8287 345.338 42.1708C317.055 40.8553 288.98 37.9718 260.781 36.1718C254.302 35.7583 242.368 34.3322 238.27 41.3138C234.744 47.3215 234.192 57.1272 233.128 63.9385C232.291 69.2945 233.116 71.8158 227.758 68.6234C216.338 61.8202 203.248 59.2487 190.107 61.2533C172.044 64.0086 154.473 65.968 137.716 73.4798C120.48 81.2059 114.387 88.4113 109.035 107.36C103.504 126.942 99.739 146.776 92.809 165.978C83.9661 190.481 76.2707 214.774 71.6697 240.48C63.7306 284.836 59.8755 329.714 50.359 373.772C41.3847 415.32 34.4091 458.332 30.8766 500.722C29.1084 521.939 26.7597 543.81 26.1916 565.111C25.9774 573.145 26.6973 588.21 23.1064 595.392" stroke="#FEFEFE" stroke-width="10" stroke-linecap="round"/>
<path d="M379.96 84.2779C379.255 84.2779 378.57 84.3312 377.904 84.0494C364.115 78.2158 342.816 81.5723 328.769 81.8212C317.895 82.0139 306.941 83.5405 296.146 82.2211C289.356 81.3912 309.145 77.8303 315.857 76.5078C332.522 73.224 350.837 70.9102 367.791 73.5369C369.363 73.7804 373.402 75.7146 371.847 76.0507C362.741 78.0198 351.073 78.873 341.795 77.879C331.607 76.7874 361.777 73.3305 371.733 70.9088C377.208 69.577 383.062 68.0394 388.016 65.2526C391.227 63.4465 383.106 61.7532 382.703 61.6532C372.552 59.1336 362.016 57.9762 351.679 56.5112C336.171 54.3132 320.982 51.3692 305.287 51.3692C296.593 51.3692 322.026 56.0954 330.483 58.1109C349.249 62.5832 368.207 66.2041 386.988 70.6231C390.657 71.4864 394.33 72.5188 398.014 73.3084C405.917 75.0018 382.696 68.1312 374.933 65.881C345.483 57.3449 316.404 47.8144 286.033 43.142C285.939 43.1275 279.023 42.332 279.52 42.7992C288.081 50.8408 306.759 53.4826 317.457 56.4541C333.346 60.8679 349.584 64.3648 365.22 69.6518C378.881 74.271 353.696 69.597 353.679 69.5947C330.211 66.4657 306.754 63.5019 283.177 61.3104C268.048 59.9042 223.032 53.3347 237.813 56.854C262.241 62.6703 287.524 65.2562 312.2 69.8232C324.943 72.1815 329.351 73.1166 340.767 75.7651C341.914 76.0313 345.366 76.7487 344.195 76.6221C338.268 75.9813 332.493 74.3154 326.598 73.4226C300.62 69.4881 274.336 67.4811 248.154 65.424C227.136 63.7725 269.495 65.7451 270.15 65.7668C298.718 66.712 327.336 67.5489 355.793 70.3946C362.109 71.0261 381.895 70.4441 387.273 75.8222C388.169 76.7175 384.881 76.7901 383.617 76.8506C379.211 77.0615 368.391 76.931 364.877 76.8506C344.473 76.3837 324.365 74.6496 304.202 71.5372C299.41 70.7975 288.892 67.1877 283.748 68.852C282.568 69.2337 285.197 70.959 286.262 71.5944C297.245 78.147 309.583 82.2698 321.856 85.592C348.011 92.6721 375.007 96.6415 401.557 101.932C406.769 102.971 417.876 105.245 423.896 106.56C425.557 106.923 427.215 107.298 428.866 107.703C429.396 107.832 427.793 107.502 427.267 107.36C379.609 94.4642 330.247 88.0457 283.177 73.0798C281.145 72.4339 271.738 69.3165 280.549 73.4226C302.402 83.6066 325.876 89.4235 349.28 94.7904C361.226 97.5299 376.974 103.552 389.559 102.789C406.772 101.746 355.665 96.2422 338.539 94.2191C311.78 91.058 231.162 87.0816 258.095 86.2776C283.017 85.5337 309.176 84.2447 333.625 79.1359C336.767 78.4796 341.734 77.3558 336.825 74.1082C323.624 65.3752 305.72 62.3997 290.604 58.7965C276.739 55.4915 260.047 48.8255 245.697 48.284C245.281 48.2683 240.757 48.284 243.755 48.284C260.61 48.284 277.428 47.1946 294.26 46.4557C321.535 45.2586 353.255 42.5531 379.275 53.1975C385.488 55.7392 382.186 56.2923 376.875 56.9683C354.263 59.8462 330.829 57.2102 308.03 59.1393C291.757 60.5162 276.308 63.5649 261.409 70.3374C254.708 73.3832 253.725 76.1609 262.38 79.2502C296.245 91.3372 334.84 91.1483 370.191 95.0761C387.074 96.952 405.92 98.0924 422.239 103.532C439.051 109.136 386.797 102.779 369.105 101.761C331.776 99.6113 294.419 98.3237 257.067 96.6758C256.418 96.6472 214.552 93.6979 235.985 98.2184C277.434 106.961 319.721 111.842 361.563 118.215C404.625 124.774 452.073 128.896 493.141 144.725C510.714 151.498 455.649 141.027 436.979 138.554C386.818 131.91 336.842 124.688 286.89 116.615C274.346 114.588 236.698 108.646 249.182 111.016C289.352 118.643 330.759 120.783 371.39 124.614C408.301 128.094 445.176 132.5 482.172 135.012C486.249 135.289 495.934 137.369 500.054 134.669C505.747 130.94 490.144 125.029 484.057 121.986C459.297 109.606 432.017 103.039 404.87 98.3327C379.823 93.99 354.39 92.143 328.997 91.591C328.195 91.5735 300.94 89.9035 313 95.5903C337.337 107.066 365.952 111.652 392.073 116.73C427.542 123.624 463.406 128.324 498.854 135.298C540.777 143.545 415.175 117.432 372.762 112.273C356.899 110.344 340.978 108.592 324.998 108.045C312.618 107.622 314.729 109.845 326.255 112.959C372.52 125.456 514.985 146.419 467.603 139.24C424.567 132.72 380.892 130.626 337.567 126.899C317.821 125.201 297.084 127.024 278.492 120.158C265.379 115.315 306.279 116.579 320.256 116.387C330.287 116.249 333.97 116.324 343.109 116.672C345.337 116.757 352.006 116.778 349.794 116.501C315.217 112.179 280.004 111.894 245.24 110.045C233.013 109.395 222.533 108.797 210.446 107.988C203.777 107.542 184.558 108.921 190.507 105.874C194.161 104.003 198.645 104.765 202.733 104.389C219.027 102.888 235.356 101.742 251.696 100.904C261.993 100.376 271.455 99.9836 281.691 99.8753C285.827 99.8315 293.164 101.102 297.574 100.275C300.439 99.738 291.795 99.4908 288.89 99.2468C270.524 97.7043 252.11 96.9417 233.699 96.1616C215.863 95.4059 197.931 95.037 180.165 93.1336C179.277 93.0384 174.95 92.7347 178.509 92.5051C189.746 91.7801 201.084 91.69 212.331 91.2482C235.297 90.3461 258.421 88.7493 281.406 89.9341C283.025 90.0176 287.84 90.5912 286.262 90.2198C279.78 88.6947 272.586 88.1522 266.037 87.3631C230.466 83.0775 194.692 82.8873 159.083 79.6501C128.916 76.9077 219.518 84.042 249.639 87.2489C259.656 88.3153 271.969 91.3571 282.205 90.2198C293.472 88.9679 260.515 83.4069 249.354 81.4213C222.386 76.6236 194.982 73.4641 167.653 71.6515C159.146 71.0872 150.314 70.3689 141.829 71.7086C136.581 72.5372 146.922 75.8517 147.143 75.9365C168.005 83.9462 190.437 87.1367 212.446 90.2198C224.342 91.8863 236.518 92.8151 248.325 95.0761C254.837 96.323 235.069 95.8106 228.443 95.5903C202.745 94.7357 173.114 92.706 149.199 104.446C136.582 110.64 132.061 125.099 128.46 137.64C115.39 183.161 109.651 230.936 105.435 278.017C101.837 318.201 100.614 358.951 93.8373 398.739C87.5303 435.767 81.6466 472.897 76.8115 510.149C74.0507 531.42 75.4117 551.791 63.2139 569.682" stroke="#FEFEFE" stroke-width="10" stroke-linecap="round"/>
<path d="M489.999 191.231C489.999 193.597 490.1 196.097 489.771 198.43C482.45 250.337 470.083 301.956 459.033 353.147C458.582 355.235 452.712 402.067 444.178 409.137C442.929 410.172 443.268 405.956 443.378 404.338C445.26 376.799 449.878 349.11 453.72 321.838C458.725 286.306 461.817 248.643 472.459 214.142C481.563 184.626 481.49 217.117 480.058 228.368C469.395 312.129 439.173 391.978 426.638 475.24C411.667 574.691 468.724 278.539 491.599 180.604C493.846 170.986 498.785 142.676 500.626 152.381C501.358 156.241 499.615 171.073 499.483 172.149C496.213 198.75 491.191 225.161 485.771 251.392C476.133 298.046 465.066 344.436 454.119 390.797C448.952 412.682 445.386 438.373 435.151 458.843C432.619 463.908 435.525 447.46 436.751 441.932C444.532 406.846 453.598 372.004 461.89 337.035C472.259 293.306 482.541 249.547 493.541 205.972C497.439 190.533 507.309 144.343 507.425 160.265C507.824 214.984 491.701 273.381 478.344 325.666C464.058 381.587 446.415 436.261 424.41 489.581C422.446 494.339 426.526 479.504 427.724 474.498C441.299 417.749 450.229 360.121 458.976 302.47C465.652 258.467 472.954 214.384 477.487 170.092C478.41 161.073 480.017 134.113 477.773 142.897C469.169 176.561 463.637 211.503 456.348 245.451C440.98 317.025 426.106 388.623 412.527 460.557C410.752 469.955 407.36 488.185 404.985 498.494C404.363 501.192 402.631 508.251 403.385 500.665C408.134 452.868 413.501 404.714 420.468 357.203C428.192 304.532 440.01 252.691 450.234 200.487C450.445 199.412 459.688 143.892 455.262 177.176C440.761 286.226 424.525 395.243 407.842 503.978C403.69 531.038 399.046 558.025 395.044 585.107C391.054 612.106 400.989 530.847 404.242 503.75C412.074 438.515 421.929 373.949 435.894 309.725C445.962 263.423 455.516 215.968 469.66 170.663C475.032 153.454 477.144 165.447 477.544 176.262C479.543 230.33 472.177 285.986 464.689 339.378C456.876 395.084 445.808 450.29 433.323 505.121C426.853 533.533 420.742 562.625 411.441 590.307C410.95 591.769 409.213 595.906 409.213 594.363C409.213 588.743 410.533 583.201 411.212 577.623C417.812 523.468 425.062 469.673 435.608 416.107C442.405 381.585 450.376 347.304 456.748 312.696C458.175 304.943 459.267 297.13 460.747 289.386C462.1 282.307 462.866 287.071 462.804 291.614C462.358 324.158 453.137 357.607 446.349 389.141C433.909 446.937 420.037 504.464 404.299 561.454C396.482 589.762 371.255 674.057 377.332 645.326C393.772 567.611 411.783 490.33 427.324 412.394C436.002 368.872 445.523 325.47 452.748 281.673C454.79 269.298 455.805 262.119 457.205 250.478C457.459 248.367 457.671 246.252 457.89 244.137C458.06 242.5 457.604 247.414 457.433 249.05C446.812 350.833 426.729 452.931 404.928 552.827C398.48 582.37 391.408 611.767 383.617 640.984C382.326 645.826 377.951 660.409 381.789 645.554C388.207 620.714 396.07 596.276 402.357 571.396C415.11 520.919 423.909 469.551 435.151 418.736C439.984 396.893 445.156 375.117 451.091 353.547C452.483 348.49 455.784 333.101 456.062 348.348C456.673 381.849 450.761 415.732 445.549 448.673C437.828 497.481 429.32 546.49 418.697 594.763C415.42 609.652 412.211 625.605 404.928 639.213C403.015 642.787 400.343 646.427 399.729 639.613C397.115 610.596 401.901 579.473 403.899 550.656C408.963 477.662 413.692 404.639 419.04 331.665C422.115 289.698 425.563 247.758 429.438 205.857C429.941 200.415 436.165 154.439 429.838 189.403C407.175 314.646 389.255 440.624 378.818 567.51C377.98 577.695 376.926 592.608 376.533 603.39C376.402 606.968 375.236 610.84 376.647 614.131C377.777 616.768 377.806 608.51 378.247 605.675C392.386 514.777 363.274 701.123 384.874 562.711C403.749 441.759 424.536 321.172 446.635 200.772C448.941 188.207 450.986 175.592 453.491 163.065C453.932 160.859 453.944 158.462 455.034 156.494C455.502 155.648 455.548 158.383 455.548 159.351C455.548 172.085 453.064 191.63 451.834 201.915C443.655 270.33 433.199 338.485 423.039 406.623C413.333 471.713 403.664 536.807 394.015 601.905C393.457 605.673 392.551 616.823 391.73 613.103C389.045 600.933 393.828 578.333 394.758 567.51C404.038 459.527 413.808 350.959 416.983 242.594C417.553 223.132 418.048 203.085 415.555 183.69C412.812 162.359 411.097 226.474 409.327 247.907C399.643 365.175 392.254 482.581 381.789 599.791C381.72 600.556 380.896 611.525 381.332 603.961C382.071 591.117 383.108 575.431 383.903 563.34C389.417 479.432 397.531 396.1 411.727 313.153C418.243 275.076 423.518 250.634 431.152 213.513C433.279 203.171 435.617 192.87 437.551 182.49C438.513 177.324 442.077 171.645 439.836 166.892C438.084 163.176 436.741 174.525 435.665 178.491C432.014 191.949 428.676 205.496 425.667 219.112C414.04 271.727 403.179 329.588 393.787 382.285C386.293 424.33 375.291 490.713 368.42 535.059C366.291 548.794 357.866 589.273 363.163 576.423C368.682 563.037 368.79 548.007 370.934 533.688C379.86 474.053 387.157 414.276 397.615 354.861C410.628 280.927 428.1 208.359 446.007 135.526C447.449 129.659 448.884 123.787 450.12 117.872C450.466 116.219 451.885 114.094 450.749 112.844C449.815 111.817 449.411 115.296 448.977 116.615C445.015 128.671 439.063 151.531 436.522 161.865C413.753 254.49 396.509 349.207 383.846 443.76C376.269 500.333 397.283 330.375 405.956 273.96C411.567 237.467 417.619 200.967 421.268 164.207C422.546 151.335 423.885 138.035 422.925 125.071C422.302 116.667 421.725 104.55 423.325 123.643C427.882 178.04 430.477 233.071 429.324 287.672C429.154 295.686 425.774 272.032 424.41 264.133C418.993 232.77 414.067 201.279 406.585 170.32C402.065 151.621 396.493 133.194 391.73 114.558C387.804 99.198 400.666 116.889 404.299 120.957C419.05 137.47 432.442 155.126 446.864 171.92C453.275 179.386 470.229 203.195 466.232 194.202C461.888 184.43 451.539 174.054 445.549 165.407C431.709 145.425 417.979 126.092 401.328 108.331C394.652 101.209 387.998 93.6892 380.475 87.4202C377.104 84.6109 381.764 96.214 383.56 100.218C401.511 140.248 420.252 180.574 446.349 216.027C448.856 219.432 441.263 209.265 438.922 205.743C422.823 181.521 409.843 155.43 395.844 129.984C389.241 117.983 381.35 106.001 376.304 93.1906C371.084 79.9388 390.601 98.6861 390.702 98.7897C409.706 118.273 425.229 141.071 439.836 163.922C449.706 179.36 464.026 197.668 468.403 215.97C469.885 222.17 459.258 207.015 455.434 201.915C437.393 177.861 419.623 153.588 401.9 129.299C395.054 119.917 384.315 108.891 380.075 97.7613C375.889 86.7724 402.961 104.594 412.698 111.188C440.424 129.963 520.613 190.527 493.656 170.663C469.3 152.717 447.554 132.507 424.867 112.502C418.646 107.016 384.682 80.0712 415.04 88.2201C436.92 94.0931 456.69 106.133 476.744 116.272C494.923 125.464 514.283 132.838 531.821 143.239C544.63 150.837 526.064 148.07 520.051 147.296C500.201 144.741 481.569 135.7 462.29 130.67C440.919 125.095 419.025 121.261 397.329 117.187C393.444 116.457 370.599 109.607 371.391 109.302C381.434 105.439 394.014 105.365 404.528 105.189C426.806 104.814 449.094 106.684 471.374 106.903C478.678 106.974 485.919 107.076 493.199 107.702C494.172 107.786 498.607 108.025 494.341 107.931C471.33 107.425 448.308 101.118 425.724 97.1328C404.338 93.3588 382.241 88.8485 360.421 88.8485C356.151 88.8485 350.709 88.8642 346.709 90.6768C339.98 93.7258 354.247 108.137 355.336 109.531C383.341 145.385 421.096 178.924 421.096 227.796C421.096 230.636 423.864 237.688 421.382 236.309C417.714 234.271 412.186 220.388 410.698 217.684C397.906 194.425 386.921 170.317 375.847 146.21C369.619 132.652 361.867 118.856 357.222 104.617C354.3 95.6621 368.932 119.808 371.962 128.728C390.804 184.193 397.86 244.218 407.613 301.727C408.207 305.23 415.18 347.043 416.64 356.346C417.134 359.493 420.827 377.949 415.669 359.146C405.278 321.268 394.572 283.474 385.617 245.222C380.516 223.433 376.191 202.942 372.019 181.004C370.245 171.676 361.128 141.823 365.906 130.556C368.1 125.381 372.032 140.199 373.447 145.639C379.546 169.08 384.78 201.463 388.073 224.254C398.085 293.536 405.341 363.517 412.184 433.19C418.145 493.891 388.781 313.309 382.417 252.649C379.785 227.562 374.86 200.309 376.247 174.891C376.616 168.119 377.659 170.296 379.389 176.834C388.694 212.001 392.94 249.407 398.015 285.272C406.397 344.512 413.6 404.021 418.697 463.642C418.983 466.988 419.434 470.341 419.325 473.698C419.292 474.728 418.662 471.739 418.468 470.727C413.487 444.686 408.939 418.498 404.299 392.397C394.314 336.232 385.965 279.868 380.132 223.112C377.98 202.168 376.927 189.796 375.733 169.749C375.445 164.915 375.233 160.076 375.047 155.237C374.985 153.62 374.597 151.952 374.99 150.381C375.31 149.103 375.232 153.006 375.276 154.323C379.103 269.774 368.435 385.547 365.106 500.893C364.986 505.043 364.596 509.235 365.163 513.348C365.292 514.285 366.35 511.771 366.477 510.834C368.615 495.1 368.991 471.338 368.991 457.015C368.991 369.116 362.715 281.492 366.877 193.574C367.395 182.638 368.76 156.096 371.105 142.497C373.262 129.986 374.293 142.582 374.819 147.41C383.794 229.867 380.949 314.454 383.046 397.254C384.44 452.317 384.91 507.798 389.787 562.711C390.118 566.429 391.826 577.232 392.53 573.567C396.454 553.12 392.839 527.449 391.444 507.463C386.384 434.927 378.756 362.668 376.19 289.957C374.988 255.913 374.919 235.062 375.561 202.144C375.733 193.323 376.035 184.505 376.418 175.691C376.664 170.037 375.662 153.584 377.904 158.78C381.138 166.278 379.109 175.071 379.389 183.233C380.366 211.72 380.903 244.317 381.103 272.246C381.703 355.788 382.789 439.969 376.475 523.347C372.875 570.897 369.76 512.204 368.762 504.207C358.502 421.978 344.91 340.209 334.711 257.963C330.625 225.015 323.092 188.751 324.313 155.237C324.343 154.403 324.873 152.411 325.455 153.009C327.179 154.778 327.844 157.36 328.655 159.694C338.385 187.691 343.744 217.526 348.823 246.593C364.039 333.671 393.967 597.221 379.732 509.977C359.628 386.76 345.52 262.818 328.198 139.24C316.721 57.36 348.774 303.342 361.564 385.027C365.517 410.277 381.386 485.204 374.419 460.614C358.896 405.827 351.287 347.557 341.796 291.557C333.817 244.481 326.708 197.234 319.856 149.981C319.853 149.955 314.392 110.086 320.999 136.269C334.181 188.509 337.324 243.502 340.539 297.042C343.789 351.181 347.925 406.989 345.795 461.3C345.028 480.848 338.725 422.816 335.397 403.538C321.354 322.205 304.385 240.83 297.803 158.437C297.523 154.928 295.946 126.416 296.318 119.815C296.739 112.327 298.98 114.574 301.345 120.5C306.499 133.415 313.074 159.598 315.514 171.12C325.949 220.394 331.499 270.548 336.711 320.581C341.098 362.699 343.974 404.963 348.366 447.074C348.557 448.909 348.403 450.854 349.109 452.558C349.597 453.738 349.151 450.003 349.052 448.731C348.017 435.469 346.622 426.4 343.91 412.337C333.02 355.868 316.144 300.662 302.545 244.822C295.962 217.79 276.374 137.021 286.605 162.893C290.623 173.053 293.97 194.815 295.061 202.429C299.38 232.596 302.749 268.93 305.116 298.984C309.758 357.926 310.258 417.224 315.514 476.097C316.231 484.127 316.448 479.92 316.6 474.669C316.958 462.278 316.684 447.688 316.428 435.761C314.866 362.749 312.293 290.014 319.628 217.17C321.301 200.556 325.005 173.725 328.998 156.266C330.142 151.263 331.177 139.132 335.282 142.211C343.296 148.221 331.141 183.939 329.683 189.86C324.206 212.111 318.138 234.18 315.057 256.934C312.819 273.466 315.268 256.911 314.143 267.218C313.572 272.454 313.352 256.713 313.172 251.45C312.246 224.359 313.783 197.661 318.6 170.949C320.781 158.849 323.083 148.752 326.655 137.183C328.08 132.569 332.572 121.091 334.94 125.299C337.342 129.571 338.894 143.89 339.167 146.553C340.551 160.027 341.249 178.061 341.91 191.345C342.534 203.897 343.337 223.775 344.652 236.595C345.151 241.458 345.714 246.333 346.766 251.107C348.771 260.204 350.294 260.39 352.308 250.021C359.609 212.436 355.995 173.357 363.049 135.869C363.236 134.876 364.645 132.741 365.106 133.641C366.898 137.14 367.043 141.265 367.791 145.125C370.746 160.371 372.043 171.258 373.39 187.175C376.163 219.943 376.761 252.97 376.761 285.844C376.761 289.077 378.308 320.721 374.019 299.556C368.279 271.236 362.518 242.927 356.536 214.656C351.256 189.7 344.091 164.087 343.167 138.44C343.095 136.445 342.739 130.882 343.91 132.498C347.138 136.956 347.289 142.995 348.423 148.381C357.307 190.582 360.65 234.33 361.335 277.388C361.48 286.498 361.277 301.765 360.421 311.554C360.141 314.756 360.802 322.72 358.136 320.924C353.787 317.993 355.577 310.715 355.05 305.498C353.423 289.361 352.43 267.546 351.851 252.021C350.226 208.46 350.251 164.842 348.08 121.3C347.78 115.271 347.055 103.98 346.252 97.19C345.381 89.8282 346.768 112.007 347.052 119.415C349.052 171.542 347.93 223.712 349.566 275.845C350.729 312.913 351.034 353.147 360.535 389.369C365.821 409.521 355.74 347.971 354.022 327.208C347.352 246.6 346.037 165.04 334.025 84.9635C333.17 79.2596 332.188 73.5688 330.94 67.9378C330.547 66.1618 330.583 63.8657 329.112 62.7958C324.459 59.4118 328.545 74.2976 328.655 80.05C329.381 118.027 329.904 156.013 331.283 193.974C332.944 239.684 334.96 285.365 336.139 331.093C336.598 348.891 336.751 357.448 337.225 374.115C337.37 379.199 339.065 393.963 336.882 389.369C327.099 368.784 322.052 343.725 315.743 322.066C302.942 278.123 288.963 233.327 282.034 187.975C281.85 186.771 276.355 153.466 282.777 153.466C288.272 153.466 291.237 160.686 294.318 165.236C309.013 186.938 319.168 211.627 328.084 236.138C342.333 275.316 353.551 315.876 362.021 356.689C362.403 358.532 364.933 372.044 365.334 376.229C365.838 381.475 361.674 366.34 360.078 361.317C336.497 287.089 308.875 214.593 283.063 141.183C282.723 140.215 279.095 129.814 278.263 127.128C277.722 125.377 279.688 130.512 280.206 132.27C295.378 183.728 300.898 238.447 308.258 291.386C314.582 336.868 320.747 382.417 325.913 428.048C326.834 436.184 329.536 447.39 326.484 455.529" stroke="#FEFEFE" stroke-width="10" stroke-linecap="round"/>
<path d="M209.246 135.697C206.345 134.972 210.424 131.588 205.076 131.698C190.47 131.999 173.751 143.582 163.768 152.837C139.247 175.572 123.47 207.028 106.921 235.452C94.1657 257.359 79.8253 282.148 67.2133 304.24C57.3776 321.469 45.7297 339.381 37.9611 357.831C11.1298 421.556 104.39 236.503 135.088 174.548C151.063 142.306 156.443 131.252 171.196 103.474C172.311 101.373 173.553 99.3412 174.681 97.2467C178.119 90.862 167.661 109.94 164.34 116.386C136.474 170.479 111.893 226.329 88.0669 282.301C84.5983 290.45 72.694 313.762 78.5256 307.097C83.1909 301.765 87.374 280.566 88.6382 276.188C103.354 225.226 116.032 173.287 127.66 121.528C128.276 118.789 130.354 110.524 130.003 106.445C129.437 99.8857 123.117 117.797 121.033 124.042C100.697 184.962 84.0333 248.214 73.2694 311.553C70.603 327.243 67.9891 343.533 67.2704 359.488C67.2198 360.612 66.4137 363.316 67.4418 362.859C71.9666 360.848 70.1089 353.313 71.0983 348.461C82.3299 293.383 93.8844 238.659 109.492 184.603C116.061 161.852 125.011 139.046 129.603 115.758C135.645 85.1131 104.112 172.892 94.123 202.486C76.0999 255.882 59.4298 310.216 46.1882 365.03C41.6394 383.86 48.5495 362.306 48.5878 362.173C56.1588 335.946 61.81 309.195 69.0415 282.873C85.033 224.664 104.59 167.192 130.288 112.501C135.86 100.644 141.885 88.8541 148.4 77.4787C151.141 72.692 153.44 69.0634 150.742 77.65C136.594 122.68 121.335 167.244 108.349 212.656C97.7203 249.826 66.558 361.494 78.5828 324.751C92.4213 282.467 101.962 238.809 115.891 196.487C127.163 162.239 138.462 123.089 157.369 91.8191C159.339 88.5616 155.674 99.2591 154.399 102.846C144.939 129.45 135.16 155.947 125.375 182.432C101.641 246.674 74.5357 310.77 56.0152 376.799C47.5199 407.087 75.5349 316.967 86.6957 287.557C114.437 214.457 146.713 139.78 191.764 75.4219C202.535 60.0346 197.419 69.1647 192.449 79.4783C167.326 131.616 145.422 185 123.204 238.423C80.9239 340.081 112.149 258.884 118.862 242.422C135.541 201.514 153.568 161.217 175.309 122.728C181.868 111.117 182.957 109.653 188.85 100.96C195.648 90.9335 176.87 122.024 171.196 132.726C148.002 176.472 125.997 220.88 105.15 265.79C87.863 303.029 70.0765 341.025 57.8434 380.342C49.0993 408.445 60.3982 392.391 67.5561 378.971C87.4175 341.73 104.18 302.83 123.204 265.161C153.019 206.123 187.236 150.806 221.473 94.4472C244.041 57.2965 175.525 168.293 154.456 206.314C132.851 245.302 111.44 284.621 92.1233 324.808C86.7212 336.047 70.5292 362.976 73.3265 377.942C74.9399 386.574 83.8318 374.65 83.8962 374.571C103.702 350.214 115.147 316.61 127.546 288.472C157.229 221.106 186.583 153.957 222.958 89.8766C275.964 -3.49948 111.422 274.03 67.6132 372.057C66.1947 375.231 64.7831 378.419 63.671 381.713C62.0796 386.426 68.4535 372.98 70.527 368.458C87.5064 331.431 103.63 294.038 121.318 257.334C144.465 209.305 169.462 162.319 196.334 116.272C202.256 106.125 208.436 96.1314 214.56 86.1058C218.301 79.9815 222.226 73.9703 225.929 67.8231C226.932 66.1592 230.614 62.6812 228.672 62.6812C226.353 62.6812 225.377 65.9677 223.987 67.8231C218.989 74.4914 214.154 81.2862 209.532 88.2197C182.191 129.231 157.856 172.145 134.173 215.341C119.057 242.912 104.078 270.765 90.6378 299.213C88.8537 302.989 86.9952 306.741 85.4959 310.639C85.1727 311.479 84.5037 313.882 85.2102 313.325C87.2162 311.741 88.4521 309.359 89.838 307.211C127.117 249.45 155.185 186.144 191.649 127.813C199.49 115.27 213.971 99.2626 220.102 85.2488C227.395 68.578 199.215 115.086 189.821 130.67C155.729 187.228 123.006 246.181 98.5794 307.668C96.2907 313.43 94.0177 319.213 92.2376 325.151C91.5129 327.569 90.2401 330.261 91.0949 332.636C91.5078 333.782 93.5822 331.854 94.2944 330.864C113.335 304.414 126.348 271.057 141.715 242.708C166.432 197.111 192.67 152.598 222.958 110.445C228.64 102.538 234.713 94.9177 240.784 87.3056C244.314 82.8788 247.923 78.5057 251.753 74.3363C252.681 73.3265 254.853 70.4602 255.01 71.8225C255.247 73.8791 253.158 75.5303 252.096 77.3073C228.156 117.359 252.242 74.7029 219.416 131.698C189.126 184.29 160.331 237.726 131.774 291.271C119.753 313.81 105.285 341.028 93.4374 364.344C90.185 370.745 86.9126 377.14 83.8962 383.655C78.4363 395.449 84.9793 384.959 86.8671 381.713C132.796 302.745 171.227 220.7 223.987 145.639C236.297 128.125 252.03 107.782 265.808 90.7907C268.335 87.6749 270.895 84.5789 273.636 81.6494C279.417 75.4693 263.99 95.558 259.238 102.56C195.944 195.815 135.419 292.173 78.6399 389.54C74.6898 396.314 62.9244 416.01 68.9272 410.965C72.8333 407.682 75.8665 403.465 78.9827 399.424C93.7832 380.234 117.271 346.164 129.831 327.893C165.005 276.729 199.485 225.106 235.128 174.262C254.048 147.273 274.369 120.972 292.661 93.5331C293.464 92.3284 295.999 89.263 294.603 89.648C292.316 90.2789 290.928 92.6785 289.347 94.4472C284.005 100.422 278.853 106.571 273.864 112.844C242.494 152.283 214.036 193.964 185.822 235.68C161.57 271.539 137.084 307.526 114.748 344.633C112.986 347.561 91.8624 378.082 95.3228 385.712C95.9882 387.18 98.3529 384.326 99.3793 383.084C102.946 378.768 105.996 374.033 108.921 369.258C131.378 332.59 150.32 293.765 171.596 256.42C197.673 210.645 225.445 166.031 256.21 123.242C262.765 114.126 269.651 105.249 276.549 96.3897C280.774 90.964 285.078 85.5941 289.576 80.3924C290.687 79.1075 293.407 75.2668 293.346 76.9645C293.255 79.5236 290.844 81.4362 289.461 83.5919C242.135 157.402 322.544 30.1638 255.524 135.583C224.255 184.769 194.16 234.68 165.025 285.158C144.596 320.553 124.258 356.174 106.292 392.911C97.5735 410.74 102.864 402.267 109.035 389.369C142.098 320.256 172.763 250.036 206.618 181.29C218.76 156.636 232.128 132.726 244.612 108.273C245.848 105.852 247.847 103.562 247.983 100.846C248.315 94.2033 239.339 111.011 235.756 116.615C184.896 196.157 143.617 283.361 105.607 369.601C90.6623 403.507 77.3723 438.023 63.271 472.269C53.0014 497.21 58.1696 472.656 59.786 463.642C73.016 389.859 96.1133 318.156 123.718 248.593C130.751 230.87 139.635 213.44 146.057 195.459C150.818 182.127 132.504 220.338 126.518 233.167C95.215 300.244 68.9074 369.874 47.6737 440.789C40.8612 463.541 33.5594 487.477 30.9337 511.234C30.6805 513.524 29.4286 516.354 30.8765 518.147C31.8494 519.352 32.7836 515.652 33.3333 514.205C35.0825 509.599 36.4384 504.847 37.7325 500.093C53.2689 443.017 64.3406 384.998 81.268 328.236C87.8809 306.062 95.2195 284.138 102.179 262.076C102.67 260.519 103.138 258.955 103.607 257.391C104.426 254.662 101.928 262.837 101.093 265.561C81.2647 330.314 66.051 396.073 50.8732 462.042C42.2929 499.335 15.9921 610.996 26.8772 574.309C45.1959 512.568 62.8794 451.409 87.4384 391.654C107.116 343.775 130.061 297.545 155.256 252.363C160.711 242.58 166.303 232.873 171.996 223.225C176.828 215.036 179.399 204.335 187.422 199.229C188.801 198.352 186.753 202.446 186.165 203.972C180.424 218.844 173.462 233.215 167.139 247.85C146.283 296.124 126.142 344.717 107.321 393.825C92.0012 433.797 77.5615 474.114 65.6135 515.233C61.5279 529.294 51.3882 554.57 53.1585 570.595C53.5935 574.533 58.8056 564.82 60.4716 561.225C77.2333 525.059 90.486 487.06 105.892 450.33C151.868 340.721 204.632 233.625 273.807 136.612C276.969 132.177 280.035 127.657 283.52 123.471C289.215 116.628 274.322 138.718 269.693 146.324C238.601 197.419 209.299 249.458 181.48 302.412C151.37 359.726 67.1482 534.689 98.1795 477.868C136.69 407.352 166.599 332.43 205.247 261.847C229.658 217.265 255.861 173.686 282.548 130.441C289.01 119.971 308.577 88.7216 301.345 98.6751C249.693 169.761 213.782 252.741 173.081 330.122C163.18 348.946 109.383 448.731 161.597 335.892C193.959 265.956 230.155 198.089 264.437 129.127C275.802 106.265 268.827 116.987 258.152 132.098C224.871 179.211 194.202 228.241 165.368 278.188C136.12 328.851 108.291 380.648 85.3245 434.504C81.3292 443.873 77.5989 453.361 74.1835 462.956C72.3949 467.981 70.9504 473.133 69.7271 478.325C69.2309 480.432 66.9316 484.3 69.0416 484.781C71.2974 485.296 71.9124 481.119 72.9837 479.068C81.8338 462.126 88.7451 444.239 96.9226 426.962C125.794 365.966 157.488 306.503 194.278 249.85C217.626 213.895 243.843 175.018 275.292 145.181C276.933 143.625 281.394 139.298 281.006 141.525C280.052 146.996 276.07 151.481 273.35 156.322C267.422 166.873 261.098 177.197 255.067 187.689C207.781 269.949 164.959 354.231 122.461 439.018C110.897 462.089 112.981 455.26 119.204 437.818C136.833 388.411 156.089 339.506 176.966 291.385C199.692 239.004 224.285 187.601 252.782 138.097C257.23 130.369 262.035 122.851 266.78 115.301C272.967 105.455 276.28 99.8679 270.436 112.444C228.155 203.433 189.199 295.306 160.055 391.483C156.244 404.058 146.869 435.099 144.572 451.53C144.321 453.322 144.221 458.297 145.371 456.9C156.362 443.56 159.373 425.286 165.825 409.251C206.031 309.331 248.977 210.216 309.115 120.386C311.063 117.477 312.946 114.481 315.343 111.93C322.465 104.348 304.575 129.733 299.345 138.725C271.223 187.081 245.54 236.719 221.244 287.1C194.016 343.565 116.597 514.801 146.171 459.528C151.637 449.313 164.312 419.424 166.968 413.365C190.014 360.782 213.282 308.458 240.155 257.677C257.701 224.522 276.701 192.193 297.803 161.179C298.827 159.673 301.95 155.218 301.117 156.837C294.873 168.957 286.414 179.81 279.52 191.574C229.048 277.698 185.49 368.285 147.2 460.442C143.394 469.603 139.78 478.846 136.344 488.152C134.674 492.678 132.734 497.172 131.888 501.921C131.615 503.456 133.92 499.508 134.573 498.093C148.837 467.189 158.276 433.86 170.167 402.052C197.872 327.946 230.183 254.358 273.75 188.031C276.107 184.443 278.036 180.363 281.349 177.633C287.725 172.379 275.247 193.001 271.75 200.486C251.676 243.454 232.182 286.606 213.703 330.293C195.324 373.743 177.65 417.503 161.14 461.699C160.961 462.18 144.733 504.903 160.569 467.013C201.612 368.811 246.848 271.915 309.229 185.175C314.254 178.188 327.896 157.134 325.97 165.521C325.106 169.281 322.674 172.501 320.885 175.919C293.277 228.667 317.121 180.701 282.148 249.735C253.357 306.568 225.982 364.068 198.734 421.649C192.794 434.2 186.856 446.753 180.908 459.3C176.937 467.677 163.892 492.117 169.253 484.553C185.859 461.123 198.016 429.906 211.018 404.966C237.327 354.498 264.626 304.713 293.918 255.906C302.72 241.24 329.613 197.552 321.17 212.427C304.458 241.872 288.374 271.398 273.236 301.726C255.075 338.109 239.472 371.486 222.501 408.337C216.676 420.987 211.003 433.706 205.247 446.388C201.633 454.35 198.212 462.404 194.392 470.269C193.027 473.078 192.348 476.717 189.707 478.382C188.344 479.241 188.869 475.172 189.135 473.583C191.531 459.301 201.693 423.211 204.676 413.365C220.923 359.73 240.46 307.287 261.98 255.563C273.418 228.073 290.3 199.153 299.174 170.434C304.621 152.808 278.749 201.224 269.979 217.455C244.387 264.819 221.707 313.556 199.877 362.745C189.062 387.111 172.506 416.505 165.482 442.845C162.885 452.584 175.152 425.155 179.709 416.164C203.376 369.461 226.474 322.483 252.553 277.045C273.988 239.7 296.793 202.53 323.284 168.492C324.675 166.704 328.629 161.336 327.855 163.464C323.173 176.338 313.297 186.677 306.259 198.43C259.033 277.281 218.671 359.893 173.995 440.16C169.668 447.935 165.376 455.739 160.683 463.299C158.564 466.714 152.514 475.904 155.884 464.442C167.5 424.93 185.225 385.792 201.705 348.29C221.045 304.278 234.466 276.135 256.096 233.681C263.242 219.653 270.787 205.832 278.149 191.916C282.233 184.198 286.642 176.644 290.433 168.778C291.719 166.108 296.292 160.706 293.346 160.379C289.625 159.965 287.742 165.376 285.291 168.206C269.347 186.608 256.236 205.852 242.784 226.368C207.148 280.715 174.983 337.239 143.086 393.825C132.464 412.67 104.475 470.826 110.863 450.159C121.046 417.215 139.902 383.003 154.741 352.461C179.697 301.096 206.126 250.5 235.699 201.629C243.046 189.489 266.378 153.875 258.609 165.749C214.844 232.644 178.331 304.07 142.743 375.543C136.973 387.131 131.383 398.81 125.603 410.394C122.47 416.674 119.423 423.004 116.005 429.133C114.616 431.625 113.975 436.901 111.206 436.218C108.572 435.569 111.323 430.769 111.834 428.105C115.672 408.103 123.966 380.566 129.488 362.973C147.51 305.56 168.715 249.401 192.106 193.973C197.438 181.34 203.135 168.865 208.675 156.322C212.086 148.602 215.87 141.039 218.959 133.184C219.845 130.93 222.88 126.785 220.559 126.099C217.785 125.28 215.778 129.472 213.931 131.698C201.824 146.294 184.791 172.732 176.109 187.574C151.651 229.388 131.399 273.373 112.863 318.067C106.502 333.402 97.9106 354.59 92.7518 371.372C84.2743 398.949 100.571 365.646 100.808 365.144C137.743 286.904 170.304 207.254 213.931 132.269C215.64 129.333 216.957 126.045 219.359 123.642C227.851 115.15 208.312 144.971 202.905 155.694C176.004 209.045 150.993 263.286 127.66 318.295C102.392 377.865 79.5593 438.374 59.1003 499.75" stroke="#FEFEFE" stroke-width="10" stroke-linecap="round"/>
<path d="M214.388 455.53C186.588 480.164 158.916 505.09 132.573 531.288C129.754 534.092 126.398 536.583 124.518 540.087C123.43 542.114 128.335 537.496 130.059 535.973C138.721 528.32 150.976 516.036 158.74 507.863C192.815 471.999 223.628 433.146 258.038 397.596C262.616 392.867 283.264 371.56 293.346 367.202C294.738 366.6 297.388 367.629 297.46 369.144C297.629 372.73 295.695 376.195 293.917 379.314C285.811 393.539 265.41 419.086 256.438 429.82C237.557 452.407 205.634 487.699 185.479 508.206C173.403 520.493 139.661 556.951 145.257 540.658C149.27 528.973 196.333 466.586 196.905 465.813C224.254 428.899 251.398 391.515 279.863 355.432C285.783 347.927 293.462 338.722 300.088 331.665C303.284 328.261 311.306 317.794 310.6 322.409C309.107 332.173 299.869 339.009 294.032 346.976C280.966 364.811 254.081 400.389 241.926 416.336C209.096 459.409 175.267 501.682 142.172 544.543C126.285 565.118 140.806 548.312 146.628 540.315C167.937 511.046 188.077 480.939 209.36 451.644C233.596 418.286 258.143 385.044 284.433 353.261C295.981 339.3 308.226 322.698 323.284 312.125C325.047 310.887 329.762 309.058 329.683 311.211C329.469 317.046 319.447 335.12 318.828 336.235C290.919 386.509 257.516 433.969 224.101 480.668C205.066 507.269 185.537 533.604 165.711 559.626C161.049 565.745 171.694 545.448 174.966 538.487C203.721 477.32 235.679 418.089 269.236 359.431C284.449 332.839 298.371 303.539 320.77 282.073C321.626 281.253 324.232 278.848 323.284 279.559C320.416 281.71 317.883 284.287 315.4 286.872C283.007 320.585 255.175 358.788 226.729 395.768C196.28 435.352 164.535 474.532 137.258 516.434C132.8 523.282 124.603 536.99 120.69 545.114C119.318 547.962 115.509 553.893 118.633 554.37C127.961 555.795 144.096 521.139 146.285 517.348C166.068 483.086 185.174 448.443 205.132 414.279C222.525 384.508 239.794 354.456 259.409 326.066C267.653 314.133 276.416 301.336 287.29 291.557C293.653 285.835 294.111 289.899 292.318 297.271C283.937 331.714 268.155 364.702 253.81 396.911C242.306 422.742 228.272 448.386 219.302 475.298C218.772 476.888 218.01 481.393 219.302 480.325C222.06 478.045 227.66 467.39 228.214 466.271C243.629 435.11 253.019 401.278 264.094 368.459C275.973 333.257 288.248 297.944 303.744 264.133C310.926 248.464 318.798 230.363 330.026 216.941C336.713 208.947 325.565 237.389 321.798 247.108C289.723 329.877 246.112 407.359 202.504 484.439C195.675 496.51 175.668 532.955 183.079 521.233C189.037 511.808 194.783 497.302 198.391 488.095C206.178 468.221 225.905 413.267 232.214 396.34C247.55 355.188 295.329 232.481 281.577 274.189C266.029 321.342 240.208 367.297 217.816 411.308C187.562 470.774 87.7626 644.207 117.147 584.308C145.32 526.879 154.978 460.329 172.338 399.196C181.874 365.615 193.072 332.823 205.247 300.127C205.658 299.022 219.964 264.316 205.932 285.501C177.264 328.786 154.392 376.67 132.116 423.421C112.95 463.646 93.0354 505.591 81.6105 548.885C78.6739 560.013 79.1023 579.554 93.6085 563.283C112.865 541.683 121.026 506.79 130.174 480.325C143.835 440.804 156.476 400.865 168.453 360.803C172.958 345.735 181.487 326.414 182.622 310.297C182.825 307.417 179.403 315.116 178.166 317.724C172.35 329.983 164.501 348.334 159.654 360.003C142.654 400.933 126.739 442.348 111.548 483.982C105.254 501.232 97.3237 519.598 94.9797 538.03C94.8824 538.795 95.8408 540.634 96.2366 539.972C98.1181 536.826 100.928 528.617 101.721 526.032C109.869 499.468 114.589 471.787 120.461 444.674C127.168 413.709 134.808 382.891 140.801 351.776C141.269 349.344 143.594 336.728 143.543 332.693C143.485 328.058 140.452 333.741 140.343 333.95C120.685 371.84 109.577 415.767 95.3225 455.815C84.7756 485.447 68.0774 518.578 64.7563 550.313C63.4502 562.793 73.0813 559.429 77.8969 552.256C91.1895 532.456 95.8809 505.193 100.122 482.268C104.167 460.402 106.597 438.088 107.72 415.879C108.029 409.773 109.631 393.492 105.207 397.711C101.926 400.838 97.3246 413.03 96.6937 414.565C91.2015 427.924 85.4599 443.747 80.5821 457.129C70.7765 484.032 60.3486 511.04 53.2724 538.83C52.3063 542.624 47.9264 555.292 50.5301 560.026C52.5999 563.789 55.9549 553.082 57.1004 548.942C61.6976 532.33 63.4349 514.956 64.5277 497.808C64.7317 494.606 67.0608 453.693 59.6714 474.383C49.1658 503.799 43.2504 537.401 39.7319 568.482C38.5042 579.326 48.8957 552.426 49.2731 551.17C54.5133 533.744 54.4576 515.222 59.2143 497.979C59.8138 495.806 60.9902 498.311 61.7853 499.236C67.4658 505.846 66.2139 505.322 73.8404 512.663C89.1505 527.399 107.118 537.889 126.631 546.086C151.943 556.718 178.384 560.794 204.39 568.596C210.812 570.523 190.979 569.182 184.279 568.939C157.603 567.971 130.978 566.021 104.292 565.225C83.4749 564.605 62.6637 564.835 41.8458 564.483C29.2842 564.27 46.1333 563.944 46.4165 563.968C89.2539 567.588 133.655 583.814 173.481 599.22C174.664 599.677 215.462 617.9 208.332 619.902C196.452 623.236 180.812 619.739 169.139 617.616C152.458 614.584 136.144 609.711 119.833 605.161C103.054 600.481 86.4825 594.055 69.3269 590.878C39.7875 585.408 128.102 603.671 157.883 607.618C186.901 611.464 221.936 611.107 248.782 624.53C252.979 626.628 239.38 623.994 234.785 623.044C211.44 618.218 188.169 612.503 165.139 606.361C123.07 595.143 83.5913 576.282 41.7315 564.94C34.9935 563.114 26.9525 560.655 19.8495 560.655C14.4878 560.655 29.5895 565.216 34.7041 566.825C67.1943 577.047 101.139 581.968 133.602 592.192C137.846 593.529 158.256 600.629 143.372 604.019C111.756 611.218 64.4175 610.55 47.0449 577.337C31.6204 547.849 97.5968 531.709 98.6362 549.171C99.7203 567.384 68.6546 582.026 56.7004 588.421C55.8861 588.857 31.7117 601.784 25.1629 600.991C19.0061 600.244 31.1793 589.89 35.7325 585.679C64.9178 558.689 101.627 541.723 138.401 527.632C139.804 527.094 148.687 522.371 145.714 527.632C136.521 543.896 122.794 558.354 110.291 572.024C99.8407 583.45 88.1412 593.919 78.1254 605.733C69.4186 616.002 96.9422 586.354 104.921 575.509C141.968 525.153 172.36 470.431 209.932 420.335C213.876 415.076 223.424 398.629 222.501 405.138C219.323 427.555 207.11 451.318 198.505 471.755C184.342 505.393 168.739 538.309 151.084 570.253C149.431 573.244 142.568 585.043 140.572 589.335C139.862 590.861 138.466 594.697 140.115 594.363C151.045 592.148 163.399 568.784 167.996 561.34C187.903 529.1 204.021 494.313 221.13 460.557C235.933 431.35 279.462 343.347 263.408 371.887C251.365 393.297 241.737 416.262 230.385 438.047C211.911 473.502 191.84 508.109 173.709 543.743C171.39 548.301 145.157 601.612 169.253 575.966C192.422 551.307 209.553 521.334 225.929 491.98C245.514 456.874 263.875 421.051 282.605 385.484C288.536 374.222 294.138 358.155 302.259 348.005C304.805 344.822 298.942 355.453 297.346 359.203C291.026 374.045 286.02 386.202 279.291 401.253C251.107 464.301 220.278 526.948 187.878 587.964C185.505 592.435 177.809 605.502 180.679 601.333C190.951 586.419 197.187 568.99 202.619 551.856C213.261 518.284 220.855 483.679 229.128 449.473C234.545 427.078 240.962 404.264 243.297 381.256C244.613 368.291 240.266 366.567 231.185 377.486C206.173 407.56 187.717 443.922 167.767 477.354C154.022 500.389 139.238 523.203 128.003 547.628C125.767 552.489 124.804 557.269 127.089 549.114C132.192 530.899 133.702 512.068 135.887 493.352C139.792 459.901 145.239 426.907 152.113 393.94C152.442 392.361 156.989 371.559 157.712 367.316C158.046 365.358 158.998 360.421 157.255 361.374C146.489 367.262 140.037 398.627 137.144 407.652C125.915 442.68 115.9 478.515 108.692 514.605C105.89 528.633 101.391 547.229 104.578 561.797C106.956 572.666 120.389 550.811 120.575 550.485C133.938 527.1 140.241 499.498 147.885 473.926C155.498 448.459 163.911 423.071 170.281 397.254C170.698 395.565 173.252 384.764 173.024 381.256C172.833 378.324 169.985 380.911 169.481 381.485C153.867 399.281 144.857 425.117 135.316 446.274C124.987 469.176 114.801 492.19 104.921 515.291C104.57 516.111 100.728 525.221 100.122 527.289C99.854 528.203 101.894 526.377 102.407 525.575C112.475 509.827 117.838 491.874 122.861 474.041C128.569 453.772 133.67 433.358 140.686 413.479C143.028 406.845 146.766 388.715 150.399 394.74C151.842 397.134 151.085 408.556 151.084 408.566C150.199 421.421 147.63 439.699 145.942 451.759C141.159 485.94 133.902 520.549 133.259 555.17C132.964 571.041 133.805 588.822 147.314 599.505C160.788 610.161 179.197 614.497 195.534 618.245C224.993 625.003 314.992 636.59 285.348 630.7C244.791 622.642 203.796 616.132 163.54 606.704C148.733 603.236 134.191 598.714 119.09 596.648C118.469 596.564 107.774 595.94 108.006 596.077C119.724 603.028 134.703 607.339 147.428 611.503C182.973 623.134 219.476 631.385 256.21 638.241C284.964 643.609 314.037 647.373 342.595 653.782C350.694 655.599 364.046 657.266 371.047 662.809C375.349 666.214 359.998 663.407 354.593 662.466C331.661 658.475 308.973 652.439 286.376 646.926C230.987 633.412 175.127 607.975 117.662 605.847C113.174 605.681 108.364 605.618 103.835 605.733C102.389 605.769 98.6684 605.272 99.5504 606.418C103.891 612.061 130.61 612.283 135.716 612.931C194.321 620.38 252.48 630.024 308.715 648.64C322.178 653.097 335.896 657.648 348.365 664.523C350.832 665.882 357.751 668.031 355.279 669.379C349.537 672.511 327.148 666.941 323.798 666.408C282.892 659.898 242.451 650.822 201.59 644.069C181.082 640.68 160.11 637.67 139.258 637.67C133.696 637.67 150.129 640.124 155.655 640.755C213.843 647.405 271.889 650.998 329.454 662.58C346.085 665.926 395.949 676.087 379.389 672.407C355.983 667.206 332.686 653.49 311.343 643.155C279.129 627.555 246.559 610.303 216.102 591.449C210.071 587.716 200.32 582.309 199.476 574.252C197.833 558.562 210.008 538.083 216.502 524.889C238.701 479.789 267.333 436.719 299.459 398.054C302.059 394.924 304.871 387.49 308.315 389.655C313.537 392.937 307.582 402.073 305.858 407.995C293.753 449.592 274.645 489.34 256.267 528.431C243.345 555.916 204.783 638.456 218.216 611.217C228.997 589.357 234.835 564.033 241.869 540.887C252.755 505.068 263.344 469.232 276.663 434.219C281.003 422.809 284.543 414.2 289.118 403.195C290.63 399.56 293.475 388.557 294.032 392.454C294.961 398.96 290.7 405.176 288.661 411.423C282.016 431.78 276.451 447.042 269.007 467.699C257.482 499.684 243.851 531.759 235.585 564.825C232.981 575.241 236.691 576.124 242.269 567.225C254.885 547.096 260.492 522.442 267.293 499.979C274.711 475.481 283.138 451.257 290.261 426.677C291.462 422.533 292.848 418.418 293.575 414.165C293.886 412.343 295.057 409.323 293.346 408.623C291.516 407.875 289.765 410.551 288.547 412.108C284.429 417.371 280.965 423.123 277.52 428.848C255.26 465.852 235.748 505.394 220.616 545.857C216.831 555.977 214.388 563.208 212.617 573.338C212.141 576.059 210.375 580.387 212.845 581.622C215.183 582.791 216.86 578.144 218.216 575.909C222.84 568.286 226.425 560.443 230.043 552.256C242.385 524.324 252.345 495.375 265.408 467.756C270.581 456.82 278.157 436.511 287.861 428.277C290.311 426.198 287.418 434.742 286.49 437.818C282.383 451.445 278.33 461.892 272.835 475.469C259.324 508.855 243.859 541.288 227.929 573.567C222.487 584.592 214.808 597.155 212.731 609.618C211.267 618.402 219.437 593.11 222.387 584.708C237.573 541.441 254.082 497.846 266.208 453.587C267.67 448.249 265.85 452.473 264.208 456.101C257.865 470.119 252.011 484.354 245.811 498.437C232.324 529.072 218.51 559.356 200.962 587.907C197.389 593.72 189.021 611.356 189.021 604.533C189.021 587.902 193.557 569.763 196.391 553.57C201.995 521.547 208.867 489.767 215.416 457.929C217.491 447.846 224.501 417.968 220.558 427.477C209.935 453.1 203.402 481.043 194.449 507.292C184.868 535.379 174.825 563.319 166.796 591.906C164.929 598.553 160.503 617.121 165.711 612.589C177.94 601.945 183.835 577.499 188.964 563.34C200.532 531.402 210.709 498.849 219.302 465.985C222.468 453.872 224.852 444.028 227.072 431.934C227.962 427.082 231.345 421.139 228.386 417.193C225.605 413.485 222.923 424.77 221.073 429.02C214.437 444.259 207.425 463.479 201.819 478.611C190.207 509.951 178.105 541.296 167.996 573.167C166.011 579.426 160.141 598.55 172.509 583.336C190.112 561.684 197.558 531.75 206.675 506.035C227.391 447.602 252.729 390.31 270.95 331.093" stroke="#FEFEFE" stroke-width="10" stroke-linecap="round"/>
<path d="M463.261 152.152C461.594 154.027 460.245 156.811 459.147 159.008C456.323 164.655 453.534 171.098 452.519 177.348C450.067 192.451 466.863 175.694 469.602 172.72C475.044 166.813 497.911 137.248 476.687 137.412C464.434 137.506 434.095 156.004 441.778 172.034C446.659 182.216 464.624 177.578 471.716 173.634C483.221 167.236 497.424 152.441 494.455 137.926C491.387 122.927 475.451 121.32 464.175 128.156C451.535 135.818 442.762 153.239 446.235 167.921C456.974 213.319 512.967 151.107 522.793 135.698C524.351 133.255 528.518 125.855 527.364 134.212C525.194 149.924 519.75 165.577 515.023 180.604C513.195 186.418 511.298 192.211 509.31 197.973C508.669 199.832 508.898 202.578 507.139 203.458C502.183 205.935 510.073 192.771 511.652 187.46C516.168 172.278 519.972 156.806 524.907 141.754C529.498 127.753 528.665 144.915 527.707 150.209C521.988 181.809 510.1 212.773 498.169 242.48C495.881 248.175 493.603 253.271 489.999 258.077" stroke="#FEFEFE" stroke-width="10" stroke-linecap="round"/>
<path d="M383.046 628.3C360.789 631.082 294.539 640.285 315.971 633.671C326.239 630.501 400.128 606.923 401.5 610.932C403.847 617.794 353.682 641.046 349.051 643.269C334.653 650.182 319.657 656.499 304.545 661.723C302.859 662.306 297.975 664.106 302.373 660.98C312.051 654.102 322.793 648.754 333.34 643.383C345.61 637.135 358.105 631.197 369.905 624.072C369.927 624.059 378.054 618.506 378.018 618.473C375.663 616.354 346.921 628.349 345.68 628.757C326.397 635.104 307.037 641.671 287.29 646.468C272.437 650.077 287.242 641.677 291.29 639.384C310.26 628.634 330.354 619.96 349.908 610.36C362.328 604.263 399.766 586.357 387.502 592.763C347.696 613.558 303.396 629.67 260.495 642.698C247.815 646.548 246.259 644.377 258.667 637.67C281.288 625.442 305.558 616.081 329.112 605.847C350.401 596.596 413.471 567.151 392.872 577.851C351.362 599.416 307.058 617.335 262.152 630.414C245.857 635.16 249.641 631.441 262.266 625.101C290.019 611.163 319.339 600.373 348.366 589.449C364.114 583.523 379.941 577.019 396.015 571.967C405.537 568.974 377.368 579.096 368.02 582.594C337.168 594.137 306.716 606.665 276.035 618.645C264.417 623.181 255.655 626.543 244.155 630.528C240.064 631.946 230.212 638.1 231.643 634.013C233.471 628.79 265.697 616.247 267.522 615.388C298.629 600.745 330.24 587.194 362.135 574.366C372.995 569.999 405.918 557.88 394.701 561.226C375.519 566.947 356.58 574.253 338.025 581.679C306.553 594.276 275.719 608.388 244.44 621.444C243.146 621.985 209.078 635.542 233.014 623.729C285.66 597.748 342.002 579.933 394.701 554.37C429.462 537.508 322.41 581.678 286.605 596.191C267.62 603.886 248.649 611.791 229.357 618.702C228.526 619 225.967 619.492 226.729 619.045C229.71 617.293 241.799 611.228 243.069 610.589C289.43 587.261 337.745 565.765 381.903 538.372C410.911 520.378 324.652 575.63 295.06 592.649C274.463 604.495 253.588 615.855 232.271 626.358C224.255 630.307 201.889 641.077 224.158 626.415C251.466 608.435 280.607 593.271 309.515 578.08C329.577 567.538 351.601 558.421 370.533 545.8C372.892 544.228 374.839 542.75 370.648 544.257C364.754 546.376 350.15 553.1 346.88 554.598C311.228 570.934 276.189 588.553 240.612 605.047C235.295 607.512 219.707 614.825 212.217 617.216C211.159 617.554 208.185 618.406 208.904 617.559C210.766 615.364 213.572 614.177 216.045 612.703C248.297 593.476 282.901 577.832 316.771 561.74C341.068 550.196 365.595 539.109 389.787 527.346C394.764 524.926 393.53 525.376 388.873 527.231C380.359 530.623 369.734 535.139 361.735 538.544C327.205 553.244 292.85 568.349 258.724 583.965C256.228 585.107 232.65 596.091 227.015 598.477C224.901 599.372 222.827 600.523 220.559 600.876C219.877 600.982 221.294 599.652 221.873 599.276C249.419 581.417 282.596 569.882 312.2 556.084C339.831 543.206 368.089 530.721 394.472 515.348C396.107 514.395 398.038 513.754 399.271 512.32C399.782 511.726 397.685 512.288 396.929 512.491C390.344 514.264 372.404 520.783 368.819 522.089C331.855 535.558 295.514 550.626 259.295 565.968C240.847 573.782 222.446 581.682 204.333 590.249C202.485 591.123 196.987 593.838 198.848 592.992C207.274 589.162 215.683 585.296 224.101 581.451C263.108 563.633 301.835 545.325 339.967 525.689C349.412 520.825 371.468 509.202 381.903 503.407C386.735 500.723 393.966 499.764 395.958 494.608C397.499 490.619 387.666 496.818 383.731 498.493C370.198 504.256 353.189 512.59 340.538 518.947C304.216 537.2 268.661 556.937 232.328 575.166C225.709 578.487 196.176 592.058 224.215 577.337C265.283 555.777 307.162 535.532 349.108 515.748C351.524 514.608 358.789 511.266 356.479 512.605C332.83 526.315 308.082 538.035 283.805 550.599C269.926 557.782 219.192 584.224 199.705 593.449C187.136 599.399 185.69 599.312 196.506 591.792C231.467 567.485 269.845 547.654 306.658 526.374C335.896 509.474 367.487 493.985 395.329 474.783C413.657 462.143 355.38 494.483 335.854 505.178C299.807 524.921 264.518 546.28 227.529 564.254C222.589 566.654 209.507 575.005 212.16 570.196C216.085 563.081 225.693 561.178 232.728 557.112C270.415 535.333 308.895 514.766 348.023 495.694C364.553 487.637 381.452 480.415 398.014 472.441C398.898 472.015 401.513 470.694 400.585 471.012C398.334 471.784 396.181 472.824 394.015 473.812C381.633 479.456 364.309 487.802 352.651 493.466C309.158 514.596 180.815 581.572 221.473 555.398C271.999 522.872 328.683 500.819 380.646 470.841C425.93 444.715 285.103 513.339 237.813 535.63C236.644 536.181 216.423 545.824 211.417 547.171C208.448 547.97 215.646 542.598 218.273 541.001C252.805 519.998 290 503.175 326.369 485.696C351.111 473.804 376.516 462.599 400.414 449.016C412.491 442.152 374.025 457.796 361.221 463.185C319.663 480.676 278.944 500.019 237.927 518.719C222.565 525.722 177.427 547.506 190.735 537.116C215.789 517.555 250.24 506.591 278.949 494.151C312.599 479.57 346.44 465.382 379.96 450.502C383.435 448.959 397.306 443.365 382.131 446.959C345.718 455.584 310.057 467.683 274.721 479.868C205.54 503.724 276.1 479.779 219.873 499.236C212.638 501.74 205.576 505.567 197.934 506.035C193.569 506.302 205.425 501.476 209.418 499.693C225.442 492.537 240.943 486.316 257.41 479.925C298.867 463.836 340.817 448.984 383.331 435.933C385.288 435.332 398.33 431.37 403.271 430.162C406.383 429.401 397.226 432.291 394.187 433.304C358.438 445.22 322.873 457.583 287.576 470.784C267.128 478.432 242.861 492.015 220.787 494.894C203.93 497.093 250.666 478.549 266.322 471.927C299.856 457.742 333.913 444.864 367.677 431.248C370.139 430.255 385.32 424.204 390.073 421.764C391.967 420.791 385.815 422.253 383.788 422.906C352.866 432.881 322.75 445.465 292.775 457.929C267.75 468.335 242.997 480.267 217.416 489.295C213.867 490.548 210.495 491.64 215.874 488.267C223.852 483.262 237.357 476.478 244.612 472.841C277.525 456.341 311.175 441.569 344.881 426.791C352.821 423.31 362.79 419.063 370.762 414.85C372.318 414.028 374.206 413.506 375.275 412.108C375.739 411.501 373.743 411.807 372.99 411.937C355.467 414.946 337.614 421.486 320.77 426.734C285.073 437.857 249.753 450.175 213.931 460.9C213.587 461.003 171.908 474.378 194.963 461.014C226.722 442.604 261.183 428.125 294.718 413.365C324.442 400.282 355.006 388.658 384.302 374.629C390.701 371.564 386.143 372.531 381.903 373.486C373.768 375.318 349.124 381.883 343.281 383.541C295.348 397.148 248.511 414.02 201.362 430.048C191.083 433.542 164.161 442.733 151.656 445.931C148.291 446.792 138.745 447.644 141.258 445.245C146.387 440.35 171.357 427.106 173.367 426.049C193.917 415.241 221.039 402.196 241.812 392.569C279.274 375.207 317.875 360.16 354.936 341.949C358.69 340.104 362.383 338.131 366.02 336.064C367.682 335.119 371.924 334.482 370.819 332.921C369.656 331.28 366.929 333.978 365.049 334.693C359.306 336.875 353.63 339.23 347.966 341.606C298.988 362.15 250.905 384.593 202.962 407.423C188.345 414.383 165.515 425.35 150.171 432.447C142.704 435.902 135.654 441.762 127.432 442.046C121.382 442.254 137.285 434.947 142.629 432.105C158.403 423.715 181.254 412.955 196.906 405.823C239.542 386.396 282.864 368.884 326.598 352.118C341.918 346.245 354.18 340.476 367.62 332.122" stroke="#FEFEFE" stroke-width="10" stroke-linecap="round"/>
<path d="M46.6663 434.972C43.2895 438.771 43.1095 450.597 42.5018 454.407C40.4667 467.163 37.6488 480.269 36.8625 493.188C36.5957 497.571 39.4061 484.76 40.1593 480.434C44.2893 456.716 61.7312 386.594 55.6893 409.899C48.275 438.497 42.0112 467.248 36.6455 496.311C34.7027 506.835 33.0238 517.384 31.5267 527.979C31.1759 530.462 29.6226 534.961 30.4423 537.522C31.1447 539.717 32.0958 533.193 32.5245 530.928C35.8924 513.135 37.9467 495.153 40.4196 477.224C43.3618 455.893 47.6847 434.696 52.1321 413.63C52.1603 413.496 52.7503 409.545 52.7394 409.552C51.3 410.452 51.2716 412.624 50.744 414.237C47.285 424.813 44.7716 435.667 42.3283 446.511C37.9401 465.988 33.7336 485.428 28.0997 504.597C24.8739 515.573 20.6761 526.422 18.5562 537.696C17.5267 543.171 17.8362 546.659 19.4672 538.26C24.5263 512.205 27.8854 485.946 34.9538 460.306C37.6715 450.448 40.9611 440.37 41.9379 430.114C43.4406 414.336 37.2762 461.475 34.3464 477.051C29.7175 501.66 22.9554 525.729 18.643 550.406C17.4888 557.01 16.8133 563.353 16.9945 570.057C17.3691 583.916 26.548 543.992 30.2254 530.625C38.9623 498.865 47.1788 466.652 51.3513 433.931C52.131 427.817 53.0165 421.684 53.5203 415.538C53.5343 415.367 53.6849 409.185 53.607 409.205C52.5993 409.457 52.9389 411.179 52.7394 412.198C51.85 416.744 51.082 422.229 50.3969 426.644C47.1732 447.419 43.3233 468.081 38.6844 488.59C35.1945 504.019 31.0563 519.293 27.666 534.746C27.1563 537.069 23.42 562.554 26.6682 545.287C35.5832 497.897 40.6069 449.993 51.2645 402.871C54.9572 386.545 66.0988 337.644 63.6278 354.199C58.8316 386.334 55.1624 418.523 47.9677 450.242C46.1355 458.32 43.0694 482.972 43.6297 474.708C46.2992 435.334 49.13 396.277 58.8994 357.843C62.8298 342.381 68.4246 327.407 72.3471 311.948C73.556 307.183 75.4704 301.242 75.4704 296.201C75.4704 290.572 72.5169 307.074 71.4361 312.598C66.3657 338.513 62.7588 364.689 57.8583 390.638C52.1182 421.034 47.2902 451.457 42.3717 481.953C40.2803 494.919 43.8697 455.727 44.4973 442.607C46.604 398.57 53.8192 356.289 63.194 313.336C64.7947 306.002 66.7106 298.543 67.7055 291.082C68.3365 286.349 68.5303 287.463 68.3562 292.513C66.8989 334.774 58.7783 375.048 50.1367 416.319C47.6504 428.193 40.3272 463.657 44.5407 452.281C47.6287 443.943 48.0974 433.857 49.0088 425.169C51.8657 397.933 54.3496 370.752 59.3332 343.788C66.1373 306.975 75.0328 270.223 83.6258 233.777C84.4839 230.138 88.4777 219.926 86.1419 222.846C84.7103 224.635 84.4592 227.114 83.7993 229.309C80.5676 240.058 78.1571 251.036 76.0777 262.061C72.5781 280.615 70.1461 299.353 66.7945 317.934C63.9013 333.973 59.2417 350.036 57.8149 366.302C57.5272 369.582 57.598 372.864 57.598 376.15C57.598 380.906 58.9235 366.729 59.5067 362.008C64.7202 319.808 69.3676 277.702 80.5459 236.554C83.8558 224.369 95.9367 188.451 92.0415 200.462C87.9919 212.948 66.4456 349.177 69.484 349.514C70.6065 349.639 70.1163 347.337 70.2649 346.217C70.8307 341.952 71.3176 335.972 71.653 331.902C73.5316 309.105 75.0985 286.279 79.2878 263.753C85.1831 232.053 99.8695 202.456 104.101 170.443C109.342 130.797 84.7416 248.314 80.5892 288.089C80.3222 290.647 79.5024 294.902 80.4157 297.459C80.7018 298.26 81.0736 295.871 81.1965 295.029C82.3885 286.869 82.8049 278.557 83.4523 270.346C87.0137 225.182 93.6544 181.735 105.142 137.908C107.742 127.988 110.452 118.074 112.69 108.063C112.91 107.081 114.499 97.7654 112.734 104.679C103.246 141.839 97.7236 180.522 90.3063 218.161C87.8772 230.487 85.9323 242.839 84.3199 255.294C84.0013 257.754 82.8332 261.596 83.4089 264.186C84.2071 267.778 85.2736 257.057 85.8816 253.428C89.4756 231.977 92.9798 210.606 97.2471 189.27C103.612 157.444 110.633 125.502 116.334 93.5739C116.804 90.9429 116.941 88.3411 116.941 85.6788C116.941 82.2063 115.115 92.3957 114.599 95.8297C107.354 144.036 108.59 194.312 90.5666 240.371C88.8383 244.787 91.4819 230.927 92.1282 226.229C97.1486 189.737 104.156 153.715 111.779 117.693C114.741 103.7 119.015 88.6428 119.284 74.1398C119.533 60.7195 114.466 100.551 111.779 113.702C103.496 154.247 92.3357 194.114 84.3199 234.732C78.1038 266.23 71.7062 297.595 65.0593 328.996C62.3552 341.77 58.545 354.37 56.2098 367.213C54.7629 375.171 54.4843 392.643 47.4471 398.273" stroke="#14141B" stroke-width="10" stroke-linecap="round"/>
<path d="M119.43 65.2095C122.214 65.5188 124.63 65.9888 127.61 66.0406C137.789 66.2176 147.985 66.4371 158.143 67.1342C160.258 67.2793 166.403 67.2019 164.442 68.0091C161.067 69.3991 155.425 68.8865 151.975 69.1464C142.947 69.8266 134.133 71.2368 125.292 73.1709C113.114 75.8348 123.05 75.7105 129.841 76.2329C144.896 77.391 189.952 82.0716 174.897 80.9135C165.227 80.1697 155.589 80.1699 145.895 80.1699C140.456 80.1699 124.856 82.7808 129.579 80.0824C133.033 78.1087 136.738 75.4797 140.515 74.2207C147.688 71.8295 137.527 78.7611 135.965 80.1699C128.417 86.9782 121.444 94.3467 115.274 102.435C112.963 105.466 109.981 108.688 109.981 112.715C109.981 116.211 113.789 106.844 115.493 103.792C119.522 96.5777 123.466 89.4104 127.916 82.4445C129.278 80.3129 131.072 78.4964 132.203 76.2329C135.662 69.3154 125.119 89.9924 121.967 97.055C114.616 113.527 109.089 130.662 103.814 147.885C101.643 154.973 99.5707 161.219 95.0648 167.133C92.6554 170.295 95.0853 167.573 95.9834 166.083C101.081 157.625 103.512 147.255 107.007 138.087C115.372 116.141 126.549 93.0584 142.614 75.533C145.921 71.9252 150.844 67.5065 156.131 69.5401C163.085 72.2148 171.22 70.973 178.484 71.6836C179.632 71.7958 190.965 74.1403 190.907 74.2207C188.281 77.8977 167.919 74.6398 163.874 74.2644C157.73 73.6944 150.778 74.1196 144.802 72.4709C138.745 70.8 157.337 73.362 163.611 73.6958C174.081 74.2527 184.577 74.6312 195.019 75.6205C196.313 75.7431 202.731 76.8576 202.106 76.2329" stroke="#14141B" stroke-width="10" stroke-linecap="round"/>
<path d="M186.358 77.0204C187.421 77.7935 188.408 77.7071 189.683 77.8078C204.853 79.0054 219.801 82.3319 234.958 83.582C252.353 85.0166 200.868 75.4522 183.471 74.0458C175.966 73.4391 168.43 73.0834 160.899 73.0834C159.964 73.0834 157.28 72.8078 158.1 73.2584C160.806 74.7469 168.519 74.8185 170.829 75.0519C199.803 77.9801 228.78 79.0576 257.661 83.1445C269.204 84.778 280.97 86.3899 292.437 88.4375C299.089 89.6254 287.56 87.2756 286.619 87.0815C242.72 78.0261 197.347 73.0834 152.501 73.0834C148.802 73.0834 137.735 73.8708 141.433 73.8708C162.144 73.8708 182.498 73.3614 203.156 75.4456C229.645 78.1181 255.675 82.5966 281.895 87.0815C324.445 94.3597 367.5 99.299 410.327 104.579C439.517 108.178 469.607 108.15 497.989 116.39C504.961 118.414 509.914 123.355 513.124 129.775C515.933 135.394 519.996 139.829 520.211 146.486C520.589 158.197 522.565 167.157 518.811 178.419C518.298 179.957 518.332 176.971 518.286 176.669C517.207 169.496 516.306 162.299 515.093 155.147C513.574 146.192 510.732 138.527 507 130.3C503.521 122.63 500.225 116.39 491.078 116.39" stroke="#14141B" stroke-width="10" stroke-linecap="round"/>
<path d="M25.5748 553.017C25.5748 554.958 26.2345 556.585 27.0224 558.394C32.2088 570.299 38.4547 582.403 47.2469 592.06C52.3052 597.616 57.7705 602.997 63.0873 608.314C64.3099 609.537 63.1837 608.809 61.6811 608.273C34.5249 598.574 24.0859 575.133 24.0859 547.847C24.0859 539.885 24.2122 532.356 25.5748 524.521C27.1413 515.514 27.8137 542.673 29.2971 551.694C32.365 570.35 39.484 586.762 50.7624 601.945C51.5587 603.017 61.8934 615.74 56.6767 609.596C43.2716 593.808 28.114 579.914 26.0298 558.146C24.5138 542.312 35.2528 495.422 35.2528 511.328C35.2528 528.431 32.4387 545.311 34.6738 562.447C36.5292 576.672 41.3898 591.206 47.7432 604.054C50.6941 610.022 51.2648 612.944 56.8421 611.085" stroke="#14141B" stroke-width="10" stroke-linecap="round"/>
<path d="M75.5112 609.809C70.0086 609.809 64.4534 606.983 59.4988 605.025C48.7343 600.772 31.3266 596.038 29.378 582.52C27.0109 566.098 34.6359 547.705 38.7023 532.042C41.6164 520.817 46.3799 509.996 47.3919 498.357C48.3479 487.363 49.5472 476.162 50.9068 465.21C54.4045 437.034 58.7704 408.717 64.2342 380.852C67.9035 362.138 70.9191 343.37 76.2922 325.053C79.7907 313.126 82.5391 301.389 84.2984 289.074C87.5859 266.061 93.7072 243.59 97.04 220.631C100.253 198.496 103.221 177.554 110.855 156.386C116.82 139.849 120.389 123.219 123.353 105.859C124.363 99.9412 125.052 79.3315 130.871 76.4219" stroke="#14141B" stroke-width="15" stroke-linecap="round"/>
<path d="M154.596 68.5137C156.35 70.0723 160.023 69.7422 162.114 70.0759C174.382 72.0335 186.563 74.4915 198.923 75.7388C218.69 77.7336 239.154 81.0271 258.53 85.1607C286.568 91.1422 316.059 92.3221 344.45 96.1936C389.996 102.404 438.132 109.301 480.799 127.193C491.795 131.804 499.284 138.005 508.772 144.963C520.704 153.713 507.728 137.943 504.329 134.418C497.225 127.051 490.593 119.216 481.141 114.696C480.408 114.345 477.436 112.066 480.116 112.645C486.582 114.043 492.534 116.778 498.374 119.822C511.004 126.404 517.295 138.335 520.147 151.993C525.963 179.85 518.594 207.821 506.087 232.836C497.438 250.134 486.162 307.338 488.561 288.147C492.63 255.6 508.187 224.492 517.51 193.293C521.376 180.357 525.449 167.296 526.249 153.701C526.409 150.987 528.04 136.785 525.224 144.475C511.916 180.814 500.778 216.716 493.345 254.706C492.6 258.517 491.149 263.273 491.149 267.106C491.149 273.666 493.363 254.173 494.273 247.676C498.072 220.538 506.087 194.524 506.087 166.931C506.087 157.582 506.704 148.669 506.136 139.3C505.838 134.384 507.184 127.276 504.329 122.995" stroke="#14141B" stroke-width="15" stroke-linecap="round"/>
<path d="M38.6045 595.75C40.9122 597.702 45.848 597.981 48.0752 598.337C72.4959 602.24 97.1482 604.735 121.693 607.71C134.052 609.208 146.267 611.571 158.6 613.129C180.808 615.934 201.287 627.646 223.479 631.289C240.023 634.005 256.948 634.073 273.42 637.245C300.285 642.419 326.301 650.377 352.652 657.602C363.324 660.528 373.989 661.454 384.725 663.802C391.2 665.218 397.122 666.367 385.995 662.533C330.796 643.512 269.316 640.422 211.714 634.218C163.98 629.078 22.5149 601.319 69.7505 609.907C83.3215 612.374 96.4834 616.649 110.172 618.889C131.375 622.36 152.289 626.367 173.147 631.582C187.434 635.154 201.516 639.577 216.01 642.273C227.055 644.328 238.273 644.659 249.353 646.374C265.749 648.911 281.978 654.844 298.024 659.067C315.005 663.535 329.693 665.896 347.233 666.048C356.893 666.131 366.324 668.787 375.987 667.366C379.346 666.872 382.794 666.148 386.19 666.048C390.462 665.922 377.672 665.237 373.399 665.169C353.899 664.857 332.118 660.069 313.744 653.745C309.619 652.326 303.768 651 300.123 648.571C296.792 646.35 306.508 653.586 310.229 655.064C330.661 663.176 353.108 661.801 373.888 655.308C386.822 651.266 393.334 640.244 398.004 628.311C400.375 622.252 403.276 603.009 403.276 609.516C403.276 623.014 397.468 634.733 392.927 647.204C390.117 654.919 386.573 662.904 380.869 668.977C378.99 670.977 373.497 673.747 373.497 676.983C373.497 680.495 382.272 675.984 383.065 675.518C391.509 670.566 396.604 661.112 401.323 652.867C406.158 644.421 410.911 635.923 414.114 626.7C415.732 622.039 416.154 616.931 418.215 612.445C418.465 611.9 419.87 607.831 418.605 610.297C412.464 622.272 404.12 632.807 397.613 644.519C391.012 656.402 385.321 661.968 372.716 667.415C361.45 672.283 349.457 667.895 337.957 666.975C325.759 665.999 362.04 671.563 374.229 672.638C380.244 673.169 395.787 677.327 401.519 672.199C411.443 663.319 419.093 655.031 419.093 640.565" stroke="#14141B" stroke-width="15" stroke-linecap="round"/>
<path d="M399.761 624.747C399.99 622.683 401.688 619.649 402.25 617.962C407.991 600.74 413.648 583.446 418.897 566.068C421.979 555.868 424.932 545.717 427.197 535.313C433.232 507.587 444.669 480.397 453.363 453.347C462.714 424.256 463.714 392.338 470.547 362.545C474.325 346.072 480.634 330.322 485.339 314.118C490.16 297.512 493.335 279.826 496.421 262.81C497.342 257.727 497.755 242.518 499.008 247.53C500.206 252.323 498.366 259.513 497.788 264.177C493.112 301.852 480.477 335.913 470.84 372.358C463.559 399.892 461.958 428.35 455.121 455.934C447.222 487.798 436.301 518.372 430.126 550.739C425.311 575.973 422.797 601.523 411.184 624.747C410.778 625.559 407.299 631.139 407.865 627.677C410.683 610.417 412.593 593.063 416.505 575.978C424.652 540.406 432.012 504.779 439.255 469.018C441.315 458.844 442.215 450.217 445.259 440.215C459.676 392.844 467.475 344.082 483.142 297.08C489.289 278.64 493.059 259.463 499.594 241.134C505.527 224.493 513.318 208.605 519.658 192.121C520.212 190.681 524.466 176.792 526.737 176.792C532.432 176.792 524.375 215.543 523.661 218.385C518.721 238.057 508.426 255.777 503.451 275.502C498.142 296.549 495.45 318.532 488.854 339.21C477.083 376.113 467.573 412.004 460.783 450.174C457.644 467.82 451.73 483.605 446.138 500.554C440.554 517.481 436.886 534.956 433.348 552.399C427.87 579.406 425.256 606.266 413.82 631.68C413.134 633.204 408.985 643.11 410.745 636.854C413.41 627.38 416.507 618.004 419.044 608.491C426.199 581.659 426.944 553.38 435.105 526.721C438.543 515.489 444.402 505.473 448.872 494.696C450.565 490.613 461.879 445.878 463.029 445.878C463.762 445.878 455.599 488.623 454.925 491.279C448.72 515.725 439.223 539.276 432.664 563.676C428.669 578.539 426.638 593.932 421.29 608.393C418.758 615.237 414.862 622.731 414.699 630.215C414.569 636.178 416.551 647.753 419.971 635.048C426.591 610.462 427.307 583.603 430.907 558.404C434.791 531.212 447.706 508.16 455.804 482.394C463.733 457.166 463.507 430.015 472.012 404.87C475.724 393.896 481.855 383.971 485.193 372.846C488.767 360.933 492.128 348.857 494.175 336.574C497.929 314.049 503.061 292.128 510.968 270.621C519.383 247.732 523.518 227.306 524.735 202.959C525.581 186.037 527.492 166.453 523.173 149.796C521.744 144.283 519.427 140.067 516.241 135.394C513.916 131.984 509.559 130.692 508.723 126.509" stroke="#14141B" stroke-width="15" stroke-linecap="round"/>
<path d="M445.455 483.273C453.602 460.19 464.3 439.35 468.741 415.171C469.645 410.252 470.579 405.445 471.914 400.624C473.081 396.409 473.996 392.149 474.941 387.882C475.393 385.842 475.496 380.373 476.894 381.926C478.795 384.038 476.37 393.703 476.015 395.986C473.724 410.753 470.692 425.446 467.863 440.117C465.783 450.903 463.704 461.711 461.321 472.435C460.71 475.183 460.33 482.331 457.953 484.444C454.826 487.223 457.698 476.045 458.245 471.898C461.112 450.197 465.162 427.955 472.891 407.409C474.195 403.944 494.72 358.082 488.513 354.979" stroke="#14141B" stroke-width="15" stroke-linecap="round"/>
<path d="M158.537 75.1528C161.654 78.2699 170.881 78.5056 173.83 79.0618C193.522 82.7759 213.296 85.9448 233.013 89.4857C251.635 92.8301 271.603 92.8633 289.316 99.8411C310.422 108.155 333.626 109.233 356.146 111.259C386.047 113.951 415.744 118.198 445.332 123.295C457.886 125.457 470.046 129.071 482.571 131.319C486.376 132.002 490.174 132.643 493.955 133.445C495.917 133.861 498.225 134.985 496.766 132.553" stroke="#14141B" stroke-width="15" stroke-linecap="round"/>
<path d="M241.859 75.7703C244.672 67.3332 247.971 59.0412 251.323 50.8077C252.941 46.8347 254.382 41.9558 257.77 39.0122C265.041 32.6948 280.115 36.7998 288.356 37.9835C311.385 41.2915 334.262 47.3709 357.14 51.6992C367.308 53.6229 377.396 56.567 387.246 59.7229C390.961 60.913 394.559 61.9112 397.876 64.0434C400.246 65.567 400.076 68.0114 399.11 70.3526C396.525 76.6166 394.416 83.0282 391.978 89.3489C391.129 91.5493 390.698 93.4522 388.755 94.4237C383.942 96.8301 384.362 90.0191 383.954 86.0571C383.191 78.644 383.817 56.2481 383.817 63.7005C383.817 71.5222 384.442 79.5469 382.72 87.2229C380.462 97.2902 381.544 86.603 381.966 82.2167C382.543 76.207 383.227 70.2013 383.68 64.1805C383.816 62.3774 385.426 57.7118 383.954 58.7628C383.117 59.361 383.028 67.5015 382.788 68.5696C381.447 74.5592 379.772 80.753 377.165 86.3314C372.894 95.4698 375.641 77.9164 375.793 75.0502C376.068 69.8982 375.027 54.6249 376.445 59.5858C378.621 67.2017 377.576 77.6382 377.576 85.5428C377.576 87.3273 377.062 96.0895 376.102 90.1375C374.967 83.102 376.695 74.3453 373.256 67.8495C371.209 63.9821 364.486 61.5804 360.535 60.6144C350.913 58.2626 341.305 55.4716 331.595 53.5508C319.385 51.1357 307.17 48.9289 294.905 46.7958C285.534 45.1662 272.499 42.6732 263.256 46.2129C255.505 49.1812 252.203 59.9186 249.917 67.0608C249.465 68.4742 246.527 76.3589 250.363 72.7871C258.166 65.5227 259.931 53.2903 267.954 46.7958C275.126 40.9899 287.173 42.9391 295.488 44.2927C306.995 46.1659 317.389 50.3636 328.268 54.4767C339.796 58.8348 351.57 62.5411 363.141 66.8208C369.487 69.168 375.88 71.3207 382.24 73.6101C385.029 74.6143 387.289 76.7218 389.989 77.6219" stroke="#14141B" stroke-width="15" stroke-linecap="round"/>
<path d="M118.848 58.4351C118.988 59.5528 120.879 60.1103 121.781 60.4351C137.408 66.0607 155.489 69.0554 171.916 71.2352C181.416 72.4959 190.928 73.3329 200.405 74.8353C212.951 76.8244 224.251 81.0735 236.316 84.9687C250.635 89.5912 266.766 91.6019 281.517 94.88C282.257 95.0445 288.436 95.3388 287.65 94.6578C279.223 87.3537 264.04 85.6623 253.606 83.6354C228.373 78.7341 204.012 72.2008 179.293 65.2796C166.777 61.7749 154.423 60.0351 141.426 60.0351C139.036 60.0351 127.883 58.6767 134.982 61.2795C148.645 66.2894 160.527 70.1607 175.382 69.4574C192.208 68.6609 207.6 67.8008 224.272 71.413C239.59 74.732 254.789 78.6874 270.184 81.6354C302.421 87.8086 334.657 93.3259 366.852 99.6801C394.383 105.114 421.229 114.095 449.164 117.636C462.476 119.323 475.414 120.03 488.364 123.591C493.406 124.978 498.408 126.436 503.653 126.436" stroke="#14141B" stroke-width="15" stroke-linecap="round"/>
<path d="M270.605 42.0845C270.082 42.672 270.073 43.4435 269.933 44.1995C268.291 53.064 268.459 62.9356 268.365 71.9442C268.326 75.6942 268.813 79.4183 268.813 83.1665C268.813 91.9788 267.771 65.1346 270.604 56.7904C273.116 49.3952 280.505 50.3535 286.928 51.3908C297.853 53.1551 308.125 56.8931 318.853 59.5026C327.912 61.7063 337.477 61.3199 346.747 62.1402C353.665 62.7525 360.799 63.0721 367.574 64.7281C370.228 65.3769 374.964 65.6733 377.204 67.1666" stroke="#14141B" stroke-width="15" stroke-linecap="round"/>
<path d="M424.833 649.274C423.21 646.029 423.23 642.966 423.349 639.23C423.956 620.163 425.547 600.24 429.182 581.484C429.354 580.594 427.48 590.519 427.353 591.01C424.097 603.597 420.042 615.987 416.273 628.426C416.273 628.427 412.269 641.542 412.269 641.542C411.905 642.729 411.767 644.013 411.164 645.097C408.647 649.628 413.856 635.088 415.203 630.083C419.959 612.404 425.184 594.697 429.044 576.79C429.509 574.632 430.355 568.094 430.355 570.301C430.355 576.468 427.809 583.808 426.283 589.699C421.201 609.317 414.898 628.693 408.748 647.997C407.346 652.399 405.541 656.402 403.502 660.526C403.468 660.595 401.736 664.53 401.983 664.53C406.049 664.53 409.756 645.427 410.405 643.199C417.753 617.982 425.655 592.943 432.219 567.505C440.731 534.523 451.877 502.648 458.038 469.133C463.397 439.977 470.75 411.537 477.643 382.739C484.628 353.555 495.982 325.904 501.873 296.448C507.465 268.491 515.974 241.357 521.617 213.402C522.935 206.868 524.735 200.332 525.621 193.728C526.012 190.811 526.168 182.467 527.484 185.099C529.772 189.673 527.848 198.824 527.208 203.461C524.798 220.936 518.577 237.82 513.712 254.718C509.687 268.702 506.815 282.946 503.081 297C498.96 312.517 492.86 327.392 488.688 342.907C481.334 370.256 474.737 397.713 467.081 424.987C459.872 450.668 455.164 476.911 447.821 502.614C440.524 528.153 436.048 554.436 429.803 580.241C424.906 600.477 417.593 619.714 413.96 640.3C412.847 646.609 410.543 665.622 410.543 659.215" stroke="#3E52D5" stroke-width="8" stroke-linecap="round"/>
<path d="M523.146 198.97C523.232 198.194 523.727 197.551 524.012 196.837C527.483 188.161 530.305 179.004 532.678 169.973C534.59 162.696 534.526 154.003 533.845 146.508C533.781 145.81 531 126.319 526.479 127.61C525.782 127.809 528.108 133.189 528.279 133.643C530.673 140.027 533.421 145.948 534.178 152.841C535.868 168.24 532.188 182.774 530.945 198.003C530.729 200.644 529.745 203.569 529.745 206.169C529.745 209.943 531.187 198.738 531.412 194.97C532.397 178.409 536.409 159.653 533.945 143.175C533.148 137.846 532.076 133.279 529.012 128.777C525.864 124.152 519.767 121.928 515.213 118.911C508.433 114.419 501.387 111.898 494.349 108.379" stroke="#3E52D5" stroke-width="8" stroke-linecap="round"/>
<path d="M404.958 94.5806C404.958 90.9638 405.533 87.4909 406.157 83.915C407.025 78.9501 408.187 73.2088 409.157 68.2499C409.359 67.2171 409.757 66.2026 409.757 65.1502C409.757 61.4744 408.269 72.3497 407.524 75.9491C405.611 85.1899 403.787 94.3669 400.558 103.246C400.154 104.356 399.558 107.827 399.558 106.646C399.558 93.3427 399.311 78.3037 402.558 65.3169C404.06 59.3093 402.46 67.666 402.191 69.3831C400.961 77.2369 397.377 84.8245 396.592 92.6808C395.707 101.526 400.593 75.3553 402.824 66.7501C404.441 60.5157 400.208 58.3134 394.759 56.3178C388.855 54.1558 382.145 51.947 375.894 51.3516C372.392 51.0181 360.309 49.678 358.762 46.5854" stroke="#3E52D5" stroke-width="8" stroke-linecap="round"/>
<path d="M401.958 96.98C402.076 97.9244 405 98.2579 405.525 98.4132C410.884 100.001 416.295 101.413 421.723 102.746C423.806 103.258 421.933 102.993 421.39 102.946C415.226 102.41 409.046 101.826 402.891 101.046C393.718 99.8834 400.259 101.606 405.558 102.979C412.452 104.767 420.01 106.579 427.156 106.579" stroke="#3E52D5" stroke-width="8" stroke-linecap="round"/>
<path d="M497.948 113.779C496.492 113.779 495.256 113.434 493.815 113.179C479.952 110.719 465.894 109.387 451.953 107.446C445.278 106.517 438.687 105.726 431.988 105.046C428.009 104.643 414.329 102.71 425.555 105.979C451.917 113.656 480.034 115.762 506.947 121.245C512.349 122.345 528.658 124.578 523.145 124.578" stroke="#3E52D5" stroke-width="8" stroke-linecap="round"/>
<path d="M220.792 182.721C221.381 182.656 221.806 182.248 222.316 181.972C225.998 179.978 231.709 182.375 235.253 183.599C241.946 185.911 244.241 186.259 250.231 181.43C256.519 176.361 257.008 185.459 263.195 185.768C267.13 185.965 270.798 181.262 274.609 184.322C279.047 187.886 281.041 190.059 287.159 188.867C292.119 187.902 293.021 190.84 296.766 193.309C301.178 196.218 306.386 193.133 310.969 195.272C316.419 197.815 318.717 196.783 324.346 195.478C328.635 194.484 332.016 197.965 336.535 196.924C339.055 196.344 341.521 194.91 344.153 194.91C346.17 194.91 347.855 196.199 349.86 196.356C355.253 196.778 358.811 194.577 364.063 196.769C371.34 199.807 378.387 195.264 385.497 197.338C390.504 198.798 392.557 203.037 398.254 203.38C400.497 203.516 402.169 204.971 404.09 205.963C408.116 208.041 412.33 207.931 416.744 208.029C420.395 208.109 423.923 208.353 427.151 210.198C430.159 211.917 432.504 213.189 436.112 213.09C441.348 212.946 444.962 211.903 449.953 213.4" stroke="#14141B" stroke-width="8" stroke-linecap="round"/>
<path d="M200.804 264.066C205.221 264.066 210.957 261.159 215.007 259.831C217.647 258.965 219.759 257.586 222.445 258.772C224.878 259.848 227.126 261.1 229.856 261.2C233.308 261.325 236.319 260.572 239.747 261.742C243.91 263.163 246.378 265.426 250.903 265.099C256.022 264.73 256.964 268.064 261.284 269.567C266.517 271.387 270.54 269.431 275.384 272.898C280.747 276.737 286.37 274.258 292.092 275.919C297.36 277.449 300.585 276.947 305.753 274.757C309.182 273.304 311.273 273.822 314.868 274.422C320.906 275.428 326.223 271.661 332.093 272.588C334.468 272.963 336.265 273.976 338.756 273.724C341.006 273.497 343.043 272.204 345.289 272.097C347.059 272.013 348.072 273.13 349.188 274.292C351.111 276.293 353.224 275.894 355.696 275.222C363.87 272.999 364.028 281.425 371.268 283.77C379.155 286.324 388.02 279.619 395.362 284.88C399.3 287.703 403.021 283.473 407.37 283.667C409.326 283.753 410.975 284.874 412.87 285.242C415.64 285.779 418.519 285.588 421.289 286.12C425.357 286.901 427.393 290.855 431.799 289.348C434.054 288.576 435.587 286.717 437.868 288.237" stroke="#14141B" stroke-width="8" stroke-linecap="round"/>
<path d="M175 339.598C175.333 342.258 183.325 343.05 184.606 343.239C191.698 344.286 195.807 343.093 201.185 348.326C203.501 350.579 204.617 350.034 207.538 348.843C216.076 345.36 219.859 349.499 227.758 352.096C232.892 353.784 236.09 351.793 240.438 349.462C243.594 347.77 246.323 346.812 249.063 349.669C251.902 352.629 252.223 354.478 256.81 352.303C265.65 348.113 273.294 341.576 282.402 337.919C291.197 334.388 293.017 341.771 297.276 347.551C300.787 352.316 306.456 348.102 310.472 351.606C314.201 354.858 315.681 359.452 320.931 360.696C325.249 361.718 327.107 363.663 330.822 365.99C334.844 368.509 339.573 367.883 344.095 367.952C347.067 367.998 349.314 369.382 352.41 368.882C357.497 368.06 361.195 367.759 365.374 371.103C370.302 375.046 374.168 371.528 379.525 370.845C383.831 370.295 386.807 373.324 391.043 373.324C395.587 373.324 399.188 371.419 403.335 374.098C406.148 375.916 409.243 376.485 412.528 376.784" stroke="#14141B" stroke-width="8" stroke-linecap="round"/>
<path d="M101.417 410.368C104.511 403.838 107.024 396.698 108.948 389.75C110.198 385.238 104.673 392.293 104.095 393.164C101.626 396.885 99.555 401.713 100.681 406.218C101.387 409.042 104.368 414.69 108.045 412.443C112.019 410.014 111.057 402.936 111.057 398.988C111.057 394.976 114.341 406.979 116.011 408.293C118.405 410.178 121.935 407.71 123.977 406.485C127.628 404.295 127.779 407.175 129.734 410.234C131.72 413.344 134.1 416.103 137.867 413.916C140.801 412.212 142.228 409.886 144.226 413.782C150.448 425.914 160.5 407.187 169.396 412.376C173.796 414.943 175.082 419.03 181.078 417.196C186.215 415.624 193.621 409.352 199.018 413.313C204.53 417.36 205.702 422.867 213.946 421.48C221.435 420.22 228.252 413.968 236.17 416.058C237.984 416.537 239.169 417.665 240.622 418.736C243.884 421.139 248.021 418.944 251.366 417.765C258.993 415.076 268.057 409.898 274.528 417.029C276.527 419.232 278.204 424.57 281.49 425.028C285.344 425.566 288.399 423.821 290.594 428.04C292.515 431.736 293.693 437.16 298.961 435.739C304.841 434.152 310.055 428.992 316.031 431.789C324.042 435.539 332.588 432.002 339.293 437.847C344.467 442.358 356.421 435.392 362.087 434.534C367.111 433.773 368.129 438.159 372.362 438.818C375.898 439.368 380.871 436.39 383.642 439.688C386.223 442.761 386.575 444.207 391.139 443.37C394.916 442.678 398.276 441.305 400.879 444.776C405.315 450.69 409.024 448.238 414.703 450.131" stroke="#14141B" stroke-width="8" stroke-linecap="round"/>
<path d="M90.5728 455.553C90.7058 456.617 95.0957 456.706 95.4929 456.792C108.127 459.514 121.003 462.168 133.482 465.527C141.249 467.619 149.276 467.837 157.112 469.544C167.813 471.875 178.551 473.737 189.412 475.134C217.607 478.759 244.603 487.845 272.72 491.969C293.759 495.055 316.084 498.851 336.515 504.688C347.517 507.831 358.85 510.715 370.053 513.257C373.241 513.98 376.519 514.313 379.759 514.729C383.757 515.243 384.8 516.381 385.181 512.186" stroke="#14141B" stroke-width="8" stroke-linecap="round"/>
<path d="M83.3428 508.571C83.4566 509.481 85.127 509.708 85.8196 509.91C101.345 514.428 117.343 518.053 133.281 520.754C150.886 523.738 167.822 527.587 185.294 531.498C212.063 537.491 239.629 538.141 266.494 543.514C291.15 548.445 313.904 557.952 338.958 561.254C349.643 562.662 361.166 564.601 371.927 564.601" stroke="#14141B" stroke-width="8" stroke-linecap="round"/>
<path d="M166.079 167.075C161.047 171.945 156.939 177.467 154.353 184.091C152.549 188.709 149.964 197.816 157.867 198.949C165.273 200.01 172.821 193.587 177.353 188.788C184 181.75 196.177 164.848 187.096 155.175C181.023 148.706 171.006 149.897 165.453 155.871C158.161 163.715 153.803 173.887 158.806 184.16C161.902 190.516 170.803 198.398 177.736 192.024C190.903 179.919 169.093 161.773 157.101 162.134C139.928 162.652 146.86 186.789 161.486 183.465C167.401 182.12 170.603 174.75 171.02 169.302C171.173 167.302 169.523 158.313 165.592 161.926C157.815 169.072 171.033 184.231 176.066 168.015C176.589 166.327 177.54 157.763 173.317 158.794C169.175 159.805 167.783 167.422 166.705 170.833" stroke="#14141B" stroke-width="15" stroke-linecap="round"/>
<path d="M144.157 245.993C144.91 252.389 154.286 266.97 162.112 262.974C173.248 257.288 154.294 241.688 146.941 242.444C136.517 243.516 127.409 259.677 134.519 268.507C143.213 279.304 159.215 265.939 157.31 254.762C155.883 246.386 145.734 239.577 139.564 248.081C135.16 254.151 137.543 269.779 147.185 262.626C150.662 260.046 154.531 247.73 146.523 248.916C140.117 249.865 137.847 258.144 138.52 263.531" stroke="#14141B" stroke-width="15" stroke-linecap="round"/>
<path d="M131.631 330.549C128.478 334.096 128.91 345.49 134.067 347.112C140.542 349.148 141.748 339.707 140.956 335.838C139.655 329.477 135.421 321.969 128.986 319.623C117.863 315.568 109.849 328.959 111.658 338.622C114.363 353.071 133.359 346.136 138.729 337.508C142.546 331.375 146.324 310.231 133.371 310.993C121.863 311.67 112.491 331.311 118.756 340.849C124.344 349.355 136.054 340.881 136.572 333.193C137.038 326.283 132.396 324.43 126.62 324.912" stroke="#14141B" stroke-width="15" stroke-linecap="round"/>
<path d="M385.068 473.933C381.138 478.503 379.193 491.665 378.399 495.558C372.043 526.733 364.78 563.601 377.555 594.261C386.513 615.758 408.332 631.714 432.424 625.731C464.205 617.839 486.014 584.674 496.663 556.143C506.232 530.503 510.416 496.549 493.37 472.755C477.388 450.445 446.029 440.139 419.509 445.239C388.809 451.143 365.887 479.129 354.764 506.666C340.788 541.263 347.995 587.768 385.279 604.653C405.095 613.626 430.225 607.566 445.593 592.872C464.506 574.789 471.955 546.022 467.329 520.718C463.065 497.395 448.167 473.056 428.541 459.46C400.5 440.035 374.292 461.515 360.251 487.565C352.35 502.222 340.224 529.515 353.835 546.719C369.702 566.773 400.365 555.839 417.314 548.78C446.004 536.831 490.967 503.351 457.579 471.787C408.367 425.263 316.163 472.884 330.537 540.66C336.273 567.704 359.315 591.199 386.841 596.112C416.754 601.451 446.012 584.745 460.618 559.088C473.486 536.484 476.079 504.778 462.897 481.674C450.388 459.75 423.493 447.216 398.574 449.363C371.819 451.667 349.581 474.26 340.413 498.335C330 525.683 343.011 553.216 365.737 569.775C387.988 585.986 418.744 587.672 443.735 577.095C477.271 562.902 488.006 531.504 475.601 498.461C465.925 472.687 447.157 454.961 419.72 450.162C392.885 445.468 369.59 454.805 355.861 478.94C330.645 523.27 345.735 609.367 409.337 608.818C470.301 608.292 498.928 529.087 459.056 486.008C442.863 468.512 414.599 459.93 391.652 467.664C363.314 477.215 358.563 512.891 362.867 538.388C365.868 556.164 378.283 578.899 399.925 577.011C424.639 574.855 436.965 543.18 441.625 523.242C443.333 515.935 450.507 476.125 433.015 475.616C418.461 475.192 409.187 503.606 406.171 513.397C404.698 518.182 402.207 528.991 403.217 534.77C403.953 538.983 406.984 538.736 409.295 535.948C417.965 525.486 420.511 506.41 417.821 493.539C414.76 478.897 402.917 478.79 394.607 490.005C386.525 500.913 370.359 540.25 392.539 546.677C407.892 551.126 418.332 529.629 421.155 518.572C424.191 506.679 425.846 478.9 409.337 474.396C390.295 469.201 376.544 501.439 372.87 513.944C365.975 537.415 367.358 565.099 386.545 582.565C399.103 593.996 415.932 596.93 432.255 597.585C433.358 597.629 443.546 596.301 442.807 600.193C441.199 608.667 423.676 616.889 416.639 619.42C402.514 624.501 384.007 621.173 370.38 615.802C349.714 607.656 334.62 583.896 327.245 564.053C313.558 527.223 329.048 484.427 346.322 451.466C356.216 432.589 370.383 415.363 393.341 421.132C419.162 427.621 448.328 432.74 470.959 447.638C494.835 463.355 504.804 490.717 501.305 518.614" stroke="#FEFEFE" stroke-width="15" stroke-linecap="round"/>
<path d="M411.254 469.073C410.015 470.175 408.392 470.686 407.045 471.807C393.76 482.852 382.695 497.321 378.808 514.434C375.042 531.013 374.583 555.398 389.734 566.797C404.95 578.245 427.129 571.176 436.564 555.778C446.71 539.219 444.276 515.45 433.386 499.955C422.473 484.427 400.601 474.898 383.435 486.815C376.46 491.658 369.644 501.027 366.041 508.408C360.553 519.651 354.399 537.668 360.884 549.919C367.109 561.679 384.39 564.147 396.09 563.757C410.506 563.276 422.545 556.877 432.689 547.018C448.646 531.512 452.683 512.491 441.47 492.73C432.497 476.916 415.243 463.358 396.926 461.01C390.315 460.163 385.59 460.524 379.504 463.437C365.855 469.973 360.938 486.036 361.302 500.429C361.72 516.896 366.976 536.246 379.811 547.855C396.763 563.187 423.071 562.601 441.609 551.537C459.453 540.888 465.321 514.384 456.912 496.077C449.71 480.397 431.815 469.75 415.491 466.367C373.063 457.572 363.403 518.729 371.504 548.413C382.496 588.684 439.367 575.356 453.4 544.284C458.844 532.23 456.391 517.585 445.54 509.468C437.367 503.355 424.956 502.227 416.494 508.52C409.715 513.561 404.673 526.7 409.303 534.576C414.465 543.359 424.973 528.573 426.641 524.477C431.062 513.617 427.801 502.793 415.992 499.564C401.672 495.65 388.744 503.866 388.48 519.232C388.281 530.835 395.567 543.96 408.856 542.22C420.74 540.664 429.015 529.201 426.947 517.53C421.582 487.255 367.316 474.739 360.968 510.528C357.872 527.98 361.15 547.956 371.895 562.278C381.469 575.04 395.261 578.767 410.585 578.263C421.217 577.913 432.705 575.917 441.414 569.42C451.463 561.923 457.234 550.044 462.459 538.984C467.463 528.393 473.228 515.937 470.85 503.889C469.094 494.994 463.492 486.714 457.163 480.427C444.503 467.849 425.988 459.729 408.02 462.21C385.827 465.273 375.674 489.046 368.773 507.85C360.551 530.252 362.306 554.021 382.32 569.615C399.534 583.027 428.401 588.682 448.717 579.268C469.207 569.773 476.739 546.973 476.926 525.649C477.15 500.194 461.749 474.965 439.212 463.075C413.017 449.254 377.075 456.171 358.794 479.562C347.019 494.628 334.928 513.833 336.076 533.627C336.778 545.741 340.306 559.181 347.309 569.224C355.863 581.492 370.329 588.279 384.271 592.324C394.108 595.177 404.478 596.81 414.599 598.294C422.764 599.49 431.339 600.739 439.574 599.465C455.12 597.062 466.733 587.575 475.588 575.167C486.089 560.454 494.11 546.121 491.505 527.546C489.772 515.189 478.004 505.85 469.958 497.193" stroke="#D53E41" stroke-width="15" stroke-linecap="round"/>
<path d="M385.805 491.155C382.912 491.477 379.302 493.491 376.785 494.75C368 499.142 361.895 508.683 357.505 517.081C355.11 521.663 353.132 526.291 353.182 531.545C353.252 539.058 354.536 546.853 356.878 553.995C361.212 567.212 371.691 576.606 383.805 582.719C408.177 595.017 443.627 598.646 463.77 576.581C479.842 558.975 479.068 535.094 474.317 513.198C470.59 496.021 456.987 484.362 441.524 477.081C428.773 471.078 414.77 466.402 401.524 472.605C393.696 476.271 385.799 480.358 378.752 485.39C370.805 491.064 365.202 498.145 360.642 506.755C357.072 513.496 354.089 520.845 353.809 528.561C353.456 538.294 356.07 548.038 360.761 556.521C369.134 571.664 385.549 585.474 402.321 590.247C409.338 592.245 416.8 592.723 424.059 592.723C433.67 592.723 443.511 591.576 452.019 586.754C469.007 577.128 473.827 557.343 475.521 539.277C476.117 532.913 475.116 526.443 474.012 520.184C472.673 512.595 470.387 505.876 465.856 499.599C457.037 487.383 445.293 477.417 431.994 470.299C421.293 464.571 407.828 462.435 396.217 466.467C386.551 469.823 377.654 476.565 371.46 484.712C367.003 490.575 363.875 497.487 360.897 504.178C358.443 509.688 356.05 515.405 356.03 521.541C355.989 534.228 361.01 547.564 367.12 558.454C375.253 572.954 388.405 583.724 404.356 588.62C411.727 590.882 419.406 591.526 427.077 591.655C436.708 591.816 446.073 591.233 454.919 587.094C460.978 584.259 467.66 580.551 472.011 575.326C474.56 572.264 476.255 568.455 478.386 565.101C483.079 557.716 484.471 549.49 485.237 540.837C487.135 519.391 473.798 499.161 458.175 485.56C450.953 479.272 443.088 474.609 434.114 471.198C425.927 468.086 415.15 465.616 406.356 467.247C397.136 468.957 390.062 476.661 383.584 482.847C378.505 487.697 374.431 492.957 370.545 498.785" stroke="#FEFEFE" stroke-width="5" stroke-linecap="round"/>
<path d="M407.78 500.922C407.054 501.567 405.369 501.535 404.525 501.736C396.763 503.582 393.8 508.53 390.892 515.809C387.755 523.661 385.458 531.046 388.111 539.345C391.613 550.298 397.916 560.041 409.849 562.643C420.891 565.05 434.385 562.093 443.49 555.25C457.655 544.603 445.112 521.502 436.538 511.299C428.265 501.454 416.787 497.229 404.118 498.819C392.065 500.332 383.609 509.641 379.836 520.896C375.715 533.193 381.916 541.813 391.536 548.908C402.031 556.648 414.339 559.882 427.314 559.184C438.011 558.608 448.447 555.106 452.986 544.601C456.925 535.482 453.966 526.147 448.374 518.421C437.642 503.592 420.003 496.261 402.015 500.074C387.563 503.138 384.131 519.968 384.889 532.359" stroke="#FEFEFE" stroke-width="5" stroke-linecap="round"/>
<path d="M421.821 523.202C418.152 523.202 413.666 523.577 411.019 526.441C404.39 533.616 421.7 542.536 427.28 535.784C430.605 531.762 420.368 526.578 417.582 526.034C415.669 525.661 412.895 525.583 411.392 527.085C409.679 528.799 411.418 531.336 413.122 532.257C414.794 533.161 418.247 534.045 419.786 532.393C421.78 530.251 419.124 526.926 417.208 525.915C415.395 524.959 411.764 524.339 410.494 526.543C408.241 530.452 417.939 532.542 420.142 532.427C422.45 532.306 424.553 530.307 423.855 527.848C422.883 524.423 417.539 523.248 414.631 524.457C409.445 526.613 413.3 530.65 417.073 531.579C419.073 532.071 421.97 532.127 423.398 530.307C424.362 529.078 423.509 528.111 423.347 526.865" stroke="#FEFEFE" stroke-width="5" stroke-linecap="round"/>
<path d="M438.586 517.113C459.951 506.43 479.317 491.727 499.737 479.378C533.881 458.73 568.946 439.838 602.883 418.806C610.244 414.245 617.654 409.634 624.591 404.431C625.139 404.02 625.901 403.735 626.156 403.098C627.447 399.869 619.864 406.075 616.824 407.764C591.185 422.008 566.543 437.836 541.529 453.121C524.576 463.48 506.826 472.297 489.709 482.335C481.111 487.377 472 492.674 464.553 499.376C460.7 502.844 457.632 507.16 453.714 510.534C451.851 512.138 448.209 513.267 446.787 515.258C440.418 524.176 463.628 501.228 472.146 494.333C481.843 486.485 492.517 480.12 502.751 473.031C516.945 463.2 531.1 453.295 545.239 443.383C557.842 434.546 570.085 425.23 582.567 416.227C590.24 410.693 598.199 404.039 606.999 400.316C611.28 398.505 615.256 395.403 607.492 399.649C595.166 406.39 583.461 414.507 571.902 422.458C560.645 430.202 549.196 438.162 539.326 447.672C539.218 447.776 536.239 450.429 537.298 450.194C544.11 448.68 550.654 443.302 556.252 439.499C573.647 427.682 591.131 415.63 607.955 403.011C608.93 402.28 617.18 396.057 612.129 400.316C601.016 409.685 589.543 419.366 579.263 429.646C574.862 434.047 588.153 420.873 593.146 417.154C598.937 412.841 616.845 400.656 611.085 405.011C586.68 423.464 560.522 439.476 535.037 456.367C516.174 468.869 497.793 482.033 477.943 493C470.535 497.092 462.987 501.29 456.206 506.389C452.532 509.153 445.895 511.644 443.107 515.229C439.706 519.601 452.672 509.57 456.989 506.1C468.092 497.174 480.354 489.616 492.028 481.465C495.649 478.936 493.466 479.272 489.97 480.885C475.51 487.559 462.135 496.886 448.961 505.752C443.91 509.151 438.896 512.607 433.833 515.982C432.993 516.542 435.343 516.087 435.513 516.04C444.658 513.546 452.698 503.968 460.438 498.999C481.043 485.771 500.808 471.634 520.778 457.468C539.478 444.203 558.632 431.684 576.945 417.879C584.391 412.266 590.89 405.685 598.739 400.78" stroke="#D5B73E" stroke-width="5" stroke-linecap="round"/>
<path d="M606.514 413.655C606.514 396.662 610.762 379.969 614.86 363.575C615.147 362.427 616.981 354.966 616.107 360.213C614.739 368.419 613.28 377.096 610.919 385.079C609.45 390.045 606.371 393.825 604.543 398.527C604.149 399.541 607.127 398.041 607.354 397.889C617.263 391.283 623.764 378.896 631.583 370.241C636.745 364.527 643.086 355.867 649.986 351.924C651.718 350.935 647.638 355.149 646.509 356.793C642.716 362.315 639.36 368.006 636.278 373.95C632.228 381.761 627.944 389.319 622.28 396.092C620.884 397.761 613.962 404.477 620.541 400.672C627.29 396.767 632.821 390.916 638.712 385.891C646.165 379.534 621.624 395.557 612.6 399.367C612.42 399.443 607.603 401.645 607.209 401.251C606.563 400.605 608.897 400.551 609.731 400.179C615.396 397.649 620.892 394.763 626.279 391.687C637.354 385.365 648.035 378.349 658.304 370.791C660.488 369.184 667.418 365.654 664.709 365.777C660.241 365.981 652.562 371.464 649.117 373.313C633.432 381.728 617.988 390.587 602.311 399.02C597.376 401.674 601.62 400.026 603.326 399.425C613.778 395.741 624.093 391.647 634.51 387.862C640.88 385.547 647.138 383.035 653.348 380.326C655.233 379.504 661.103 377.663 659.087 378.066C653.689 379.145 647.983 382.569 642.915 384.616C636.347 387.269 629.564 389.587 623.207 392.731C621.308 393.67 618.595 394.774 617.121 396.411C614.364 399.475 625.235 398.455 629.351 398.237C638.497 397.754 647.447 396.062 656.478 394.701C659.516 394.244 660.502 394.339 656.594 395.339C642.363 398.98 628.474 403.429 614.397 407.569C611.926 408.296 612.356 408.452 614.976 408.439C626.343 408.382 637.723 407.641 649.001 406.236C658.709 405.027 668.359 403.326 677.925 401.28C680.444 400.742 688.036 399.57 685.46 399.57C675.833 399.57 665.99 402.644 656.42 403.628C644.449 404.859 632.283 405.58 620.454 407.888C619.296 408.114 615.945 408.989 617.121 409.076C622.393 409.467 627.895 408.413 633.003 407.221C639.896 405.613 625.909 407.553 624.366 407.801C620.805 408.375 615.068 409.313 613.933 404.729C611.8 396.113 616.043 384.614 619.237 376.791C624.596 363.659 634.645 351.601 643.581 340.679C644.667 339.353 648.888 334.009 648.827 334.071C642.074 341.003 636.546 349.345 630.974 357.228C624.313 366.653 618.4 376.313 614.571 387.224C613.956 388.974 611.769 397.413 614.455 391.281C624.938 367.348 643.18 350.286 662.767 333.637C673.653 324.384 646.132 356.87 637.756 368.444C634.292 373.231 627.509 380.602 626.453 386.673C626.197 388.147 627.924 386.872 628.308 386.586C634.214 382.195 638.352 374.879 643.263 369.487C650.993 360.998 660.887 351.279 671.259 345.983C672.134 345.536 674.549 343.858 673.809 344.505C669.938 347.892 666.184 351.437 662.362 354.88C661.558 355.604 631.486 378.444 636.597 382.471C638.368 383.866 641.573 383.759 643.61 383.804C653.977 384.035 664.125 382.385 674.041 379.428C683.268 376.677 709.752 365.01 700.849 368.676C685.403 375.036 670.338 381.903 654.565 387.456C653.389 387.87 637.681 393.031 644.364 396.904C651.534 401.059 663.517 395.917 670.071 392.789C678.519 388.755 685.285 382.708 692.126 376.443C692.759 375.863 695.604 373.869 695.604 372.762C695.604 372.389 680.026 377.906 679.606 378.066C665.367 383.474 651.037 389.997 636.162 393.513C635.683 393.626 631.233 395.155 634.568 394.643C654.736 391.548 674.877 382.597 693.894 375.515C702.123 372.451 700.967 372.36 694.734 374.414C681.1 378.907 667.711 384.329 654.508 389.948C647.934 392.746 641.533 395.833 635.119 398.962C634.235 399.393 632.256 400.364 634.336 401.019C640.327 402.907 648.161 399.053 654.247 398.585C657.303 398.35 655.591 399.157 653.754 399.918C647.714 402.421 641.571 404.756 635.438 407.019C630.964 408.669 620.328 414.679 616.831 407.685C614.678 403.379 616.159 397.153 616.686 392.644C617.511 385.588 618.065 378.602 620.599 371.922C622.539 366.808 624.849 362.374 627.902 357.836C629.783 355.041 632.567 352.19 633.641 348.968" stroke="#FEFEFE" stroke-width="5" stroke-linecap="round"/>
</svg>
