<svg width="1603" height="1603" viewBox="0 0 1603 1603" fill="none" xmlns="http://www.w3.org/2000/svg">
<path d="M425 917L430.361 906.102C577.565 606.839 1000.13 595.626 1163 886.662V886.662" stroke="#3E52D5" stroke-width="90" stroke-linecap="round"/>
<path d="M319.922 611.579C303.69 592.759 305.788 564.344 324.608 548.112C343.427 531.88 371.842 533.978 388.074 552.798L319.922 611.579ZM458.684 703.564L424.607 732.955L319.922 611.579L353.998 582.189L388.074 552.798L492.76 674.174L458.684 703.564Z" fill="#4A4A5F"/>
<path d="M319.922 611.579C303.69 592.759 305.788 564.344 324.608 548.112C343.427 531.88 371.842 533.978 388.074 552.798L319.922 611.579ZM458.684 703.564L424.607 732.955L319.922 611.579L353.998 582.189L388.074 552.798L492.76 674.174L458.684 703.564Z" fill="#3E52D5"/>
<path d="M1284.18 608.871C1299.68 589.44 1296.49 561.127 1277.06 545.631C1257.63 530.135 1229.32 533.325 1213.82 552.755L1284.18 608.871ZM1149.06 706.126L1184.24 734.184L1284.18 608.871L1249 580.813L1213.82 552.755L1113.88 678.068L1149.06 706.126Z" fill="#4A4A5F"/>
<path d="M1284.18 608.871C1299.68 589.44 1296.49 561.127 1277.06 545.631C1257.63 530.135 1229.32 533.325 1213.82 552.755L1284.18 608.871ZM1149.06 706.126L1184.24 734.184L1284.18 608.871L1249 580.813L1213.82 552.755L1113.88 678.068L1149.06 706.126Z" fill="#3E52D5"/>
<path d="M842.11 401.073C842.11 376.22 821.963 356.073 797.11 356.072C772.257 356.072 752.11 376.219 752.11 401.072L842.11 401.073ZM797.108 561.835L842.108 561.835L842.11 401.073L797.11 401.072L752.11 401.072L752.108 561.834L797.108 561.835Z" fill="#4A4A5F"/>
<path d="M842.11 401.073C842.11 376.22 821.963 356.073 797.11 356.072C772.257 356.072 752.11 376.219 752.11 401.072L842.11 401.073ZM797.108 561.835L842.108 561.835L842.11 401.073L797.11 401.072L752.11 401.072L752.108 561.834L797.108 561.835Z" fill="#3E52D5"/>
<ellipse cx="798.5" cy="916.5" rx="242.5" ry="232.5" fill="#4A4A5F"/>
<ellipse cx="798.5" cy="916.5" rx="242.5" ry="232.5" fill="#3E52D5"/>
</svg>
