<svg width="1603" height="1603" viewBox="0 0 1603 1603" fill="none" xmlns="http://www.w3.org/2000/svg">
<path d="M460.176 628V628C581.822 901.317 967.014 908.846 1099.25 640.492L1105.4 628" stroke="#4A4A5F" stroke-width="73" stroke-linecap="round"/>
<path d="M355.191 960.77C340.937 975.025 340.937 998.135 355.191 1012.39C369.445 1026.64 392.556 1026.64 406.81 1012.39L355.191 960.77ZM495.746 871.834L469.937 846.025L355.191 960.77L381.001 986.58L406.81 1012.39L521.555 897.644L495.746 871.834Z" fill="#4A4A5F"/>
<path d="M1245.94 970.129C1260.2 984.383 1260.2 1007.49 1245.94 1021.75C1231.69 1036 1208.58 1036 1194.32 1021.75L1245.94 970.129ZM1105.39 881.193L1131.2 855.383L1245.94 970.129L1220.13 995.938L1194.32 1021.75L1079.58 907.002L1105.39 881.193Z" fill="#4A4A5F"/>
<path d="M814.338 1147.24C814.338 1167.4 797.997 1183.74 777.839 1183.74C757.68 1183.74 741.338 1167.4 741.338 1147.24L814.338 1147.24ZM777.836 984.482L814.336 984.481L814.338 1147.24L777.838 1147.24L741.338 1147.24L741.336 984.482L777.836 984.482Z" fill="#4A4A5F"/>
</svg>
