<svg width="36" height="36" viewBox="0 0 36 36" fill="none" xmlns="http://www.w3.org/2000/svg">
<rect width="36" height="36" rx="18" fill="#FDFDFD"/>
<mask id="mask0_1728_5633" style="mask-type:alpha" maskUnits="userSpaceOnUse" x="0" y="0" width="36" height="36">
<rect width="36" height="36" rx="18" fill="#FDFDFD"/>
</mask>
<g mask="url(#mask0_1728_5633)">
<path d="M20.9584 7.66738L22.374 6.25459L20.9584 7.66738C21.7918 8.50251 22.2608 9.63604 22.2608 10.8188C22.2608 12.0016 21.7918 13.1352 20.9584 13.9703C20.1251 14.8053 18.9957 15.2737 17.8189 15.2737C16.6422 15.2737 15.5128 14.8053 14.6795 13.9703C13.8461 13.1352 13.3771 12.0016 13.3771 10.8188C13.3771 9.63605 13.8461 8.50251 14.6795 7.66738C15.5128 6.83238 16.6422 6.36401 17.8189 6.36401C18.9957 6.36401 20.1251 6.83238 20.9584 7.66738ZM27.0745 28.1833H8.56342C8.8201 24.5521 11.8383 21.6942 15.519 21.6942H20.1189C23.7996 21.6942 26.8178 24.5521 27.0745 28.1833Z" fill="#14141B" stroke="#14141B" stroke-width="4"/>
</g>
</svg>
