<svg width="300" height="300" viewBox="0 0 300 300" fill="none" xmlns="http://www.w3.org/2000/svg">
<rect width="300" height="300" rx="150" fill="#4F4F5E"/>
<path d="M84.2927 78.498C85.1229 75.8231 87.5976 74 90.3983 74H217.063C225.347 74 232.063 80.7157 232.063 89V207.148C232.063 211.531 228.51 215.084 224.127 215.084C219.744 215.084 216.191 211.531 216.191 207.148V197.007V101.786C216.191 93.5014 209.475 86.7857 201.191 86.7857H90.3983C86.0907 86.7857 83.016 82.6121 84.2927 78.498Z" fill="#383842"/>
<rect opacity="0.5" x="61" y="96.9263" width="144.611" height="125.212" rx="15" fill="white" stroke="#202026" stroke-width="10"/>
<path d="M74.2266 139.016C74.2266 129.432 86.4058 125.337 92.1956 132.975L112.114 159.25C114.309 162.145 117.901 163.622 121.497 163.108L152.638 158.66C156.45 158.115 160.237 159.808 162.373 163.012L183.783 195.128C188.213 201.773 183.45 210.675 175.463 210.675H84.2266C78.7037 210.675 74.2266 206.198 74.2266 200.675V139.016Z" fill="#4F4F5E"/>
<circle cx="176.512" cy="130.433" r="17.6355" fill="#4F4F5E"/>
<ellipse cx="206.052" cy="201.857" rx="33.9483" ry="32.6256" fill="#A7A7AF" stroke="#383842" stroke-width="9"/>
<path d="M202.04 216.384V186.816H210.296V216.384H202.04ZM190.968 205.504V197.696H221.432V205.504H190.968Z" fill="#383842"/>
</svg>
