<svg width="405" height="277" viewBox="0 0 405 277" fill="none" xmlns="http://www.w3.org/2000/svg">
<rect width="405" height="277" rx="19" fill="white"/>
<path d="M89 69.8571C89 53.9406 101.724 41 117.375 41H287.625C303.276 41 316 53.9406 316 69.8571V214.143C316 230.059 303.276 243 287.625 243H117.375C101.724 243 89 230.059 89 214.143V69.8571ZM232.56 117.877C230.565 114.901 227.284 113.143 223.781 113.143C220.279 113.143 216.954 114.901 215.003 117.877L176.43 175.411L164.681 160.487C162.642 157.917 159.583 156.429 156.391 156.429C153.198 156.429 150.095 157.917 148.1 160.487L119.725 196.558C117.153 199.804 116.666 204.268 118.439 208.011C120.213 211.753 123.937 214.143 128.016 214.143H170.578H184.766H276.984C280.93 214.143 284.566 211.933 286.384 208.371C288.201 204.809 287.98 200.526 285.763 197.234L232.56 117.877ZM138.656 113.143C144.3 113.143 149.713 110.863 153.704 106.804C157.695 102.745 159.938 97.24 159.938 91.5C159.938 85.76 157.695 80.255 153.704 76.1962C149.713 72.1374 144.3 69.8571 138.656 69.8571C133.012 69.8571 127.599 72.1374 123.608 76.1962C119.617 80.255 117.375 85.76 117.375 91.5C117.375 97.24 119.617 102.745 123.608 106.804C127.599 110.863 133.012 113.143 138.656 113.143Z" fill="#323232"/>
</svg>
