<svg width="24" height="21" viewBox="0 0 24 21" fill="none" xmlns="http://www.w3.org/2000/svg">
<path d="M0 1.75C0 0.782031 0.766071 0 1.71429 0H22.2857C23.2339 0 24 0.782031 24 1.75C24 2.71797 23.2339 3.5 22.2857 3.5H1.71429C0.766071 3.5 0 2.71797 0 1.75ZM0 10.5C0 9.53203 0.766071 8.75 1.71429 8.75H22.2857C23.2339 8.75 24 9.53203 24 10.5C24 11.468 23.2339 12.25 22.2857 12.25H1.71429C0.766071 12.25 0 11.468 0 10.5ZM24 19.25C24 20.218 23.2339 21 22.2857 21H1.71429C0.766071 21 0 20.218 0 19.25C0 18.282 0.766071 17.5 1.71429 17.5H22.2857C23.2339 17.5 24 18.282 24 19.25Z" fill="black"/>
</svg>
