<svg width="41" height="41" viewBox="0 0 41 41" fill="none" xmlns="http://www.w3.org/2000/svg">
<path d="M0 17.9373C0 19.3548 1.14512 20.5 2.5625 20.5C3.97988 20.5 5.125 19.3548 5.125 17.9373C5.125 13.6928 8.56836 10.2491 12.8125 10.2491H25.625V12.8118C25.625 13.8449 26.2496 14.7819 27.2105 15.1824C28.1715 15.5828 29.2686 15.3585 30.0053 14.6298L35.1303 9.50432C36.1313 8.50325 36.1313 6.87753 35.1303 5.87646L30.0053 0.75102C29.2686 0.0142373 28.1715 -0.201992 27.2105 0.198433C26.2496 0.598858 25.625 1.52785 25.625 2.56094V5.12367H12.8125C5.73359 5.12367 0 10.8578 0 17.9373ZM41 23.0627C41 21.6452 39.8549 20.5 38.4375 20.5C37.0201 20.5 35.875 21.6452 35.875 23.0627C35.875 27.3072 32.4316 30.7509 28.1875 30.7509H15.375V28.1882C15.375 27.1551 14.7504 26.2181 13.7895 25.8176C12.8285 25.4172 11.7314 25.6415 10.9947 26.3702L5.86973 31.4957C4.86875 32.4967 4.86875 34.1225 5.86973 35.1235L10.9947 40.249C11.7314 40.9858 12.8285 41.202 13.7895 40.8016C14.7504 40.4011 15.375 39.4722 15.375 38.431V35.8683H28.1875C35.2664 35.8683 41 30.1342 41 23.0547V23.0627Z" fill="#14141B"/>
</svg>
