<svg width="36" height="36" viewBox="0 0 36 36" fill="none" xmlns="http://www.w3.org/2000/svg">
<path d="M28.8486 16.2457L29.6431 15.4512L27.2595 13.0676L22.8931 8.70117L20.5095 6.31758L19.715 7.11211L18.1259 8.70117L4.11969 22.7074C3.38844 23.4387 2.85407 24.3457 2.55875 25.3371L0.0696918 33.8027C-0.106089 34.3934 0.0556292 35.0332 0.498598 35.4691C0.941567 35.9051 1.57438 36.0668 2.165 35.898L10.6236 33.409C11.615 33.1137 12.522 32.5793 13.2533 31.848L27.2595 17.8418L28.8486 16.2457ZM11.2494 28.0863L10.6095 29.6824C10.3283 29.9004 10.0119 30.0621 9.67438 30.1676L4.17594 31.7848L5.79313 26.2934C5.89157 25.9488 6.06032 25.6324 6.27829 25.3582L7.87438 24.7184V26.9684C7.87438 27.5871 8.38063 28.0934 8.99938 28.0934H11.2494V28.0863ZM25.5017 1.31836L24.4892 2.33789L22.9002 3.92695L22.0986 4.72148L24.4822 7.10508L28.8486 11.4715L31.2322 13.8551L32.0267 13.0605L33.6158 11.4715L34.6353 10.452C36.3931 8.69414 36.3931 5.84648 34.6353 4.08867L31.872 1.31836C30.1142 -0.439453 27.2666 -0.439453 25.5088 1.31836H25.5017ZM22.1689 13.1309L12.0439 23.2559C11.608 23.6918 10.8908 23.6918 10.4548 23.2559C10.0189 22.8199 10.0189 22.1027 10.4548 21.6668L20.5798 11.5418C21.0158 11.1059 21.733 11.1059 22.1689 11.5418C22.6048 11.9777 22.6048 12.6949 22.1689 13.1309Z" fill="#FDFDFD"/>
</svg>
