<svg width="26" height="27" viewBox="0 0 26 27" fill="none" xmlns="http://www.w3.org/2000/svg">
<path opacity="0.57" d="M4.87397 10.9671C4.87397 13.3873 5.63065 15.6229 6.90532 17.4367L0.476099 24.1172C-0.158698 24.7763 -0.158698 25.8466 0.476099 26.5057C1.1109 27.1648 2.14181 27.1648 2.7766 26.5057L9.20582 19.8252C10.9528 21.1539 13.106 21.9343 15.437 21.9343C21.272 21.9343 26 17.0254 26 10.9671C26 4.90885 21.272 0 15.437 0C9.60193 0 4.87397 4.90885 4.87397 10.9671ZM15.437 18.5598C14.4766 18.5598 13.5257 18.3634 12.6385 17.9818C11.7512 17.6003 10.9451 17.041 10.266 16.3359C9.58695 15.6309 9.04829 14.7939 8.68079 13.8727C8.31328 12.9515 8.12413 11.9642 8.12413 10.9671C8.12413 9.97006 8.31328 8.98275 8.68079 8.06157C9.04829 7.14039 9.58695 6.30338 10.266 5.59834C10.9451 4.8933 11.7512 4.33403 12.6385 3.95246C13.5257 3.5709 14.4766 3.37451 15.437 3.37451C16.3973 3.37451 17.3483 3.5709 18.2355 3.95246C19.1227 4.33403 19.9289 4.8933 20.608 5.59834C21.287 6.30338 21.8257 7.14039 22.1932 8.06157C22.5607 8.98275 22.7498 9.97006 22.7498 10.9671C22.7498 11.9642 22.5607 12.9515 22.1932 13.8727C21.8257 14.7939 21.287 15.6309 20.608 16.3359C19.9289 17.041 19.1227 17.6003 18.2355 17.9818C17.3483 18.3634 16.3973 18.5598 15.437 18.5598Z" fill="#14141B"/>
</svg>
