<svg width="84" height="85" viewBox="0 0 84 85" fill="none" xmlns="http://www.w3.org/2000/svg">
<rect width="84" height="85" rx="42" fill="#14141B"/>
<path d="M27 21.4858V61.2157C27 62.5229 28.0828 63.573 29.4062 63.573C30.0953 63.573 30.7625 63.2837 31.2219 62.7694L40.2562 52.644L46.6109 65.1052C47.475 66.7981 49.575 67.4838 51.3031 66.6373C53.0312 65.7909 53.7313 63.7337 52.8672 62.0408L46.6656 49.8582H59.5828C60.9172 49.8582 62 48.7974 62 47.4903C62 46.8152 61.7047 46.1724 61.1906 45.7223L31.2219 19.6322C30.7516 19.225 30.1609 19 29.5375 19C28.1375 19 27 20.1143 27 21.4858Z" fill="#FDFDFD"/>
</svg>
