<svg width="22" height="22" viewBox="0 0 22 22" fill="none" xmlns="http://www.w3.org/2000/svg">
<circle cx="11" cy="11" r="11" fill="#D53E41"/>
<path d="M17.1153 7.22013C17.6228 6.71256 17.6228 5.88826 17.1153 5.38068C16.6077 4.87311 15.7834 4.87311 15.2758 5.38068L11 9.66055L6.72013 5.38474C6.21256 4.87717 5.38826 4.87717 4.88068 5.38474C4.37311 5.89232 4.37311 6.71662 4.88068 7.22419L9.16055 11.5L4.88474 15.7799C4.37717 16.2874 4.37717 17.1117 4.88474 17.6193C5.39232 18.1269 6.21662 18.1269 6.72419 17.6193L11 13.3394L15.2799 17.6153C15.7874 18.1228 16.6117 18.1228 17.1193 17.6153C17.6269 17.1077 17.6269 16.2834 17.1193 15.7758L12.8394 11.5L17.1153 7.22013Z" fill="#FDFDFD"/>
</svg>
