<svg width="4" height="14" viewBox="0 0 4 14" fill="none" xmlns="http://www.w3.org/2000/svg">
<path d="M2.01065 10.044C1.54422 10.044 1.09688 10.2241 0.767065 10.5448C0.437244 10.8655 0.251953 11.3004 0.251953 11.7538C0.251953 12.2073 0.437244 12.6422 0.767065 12.9629C1.09688 13.2835 1.54422 13.4637 2.01065 13.4637C2.47709 13.4637 2.92442 13.2835 3.25424 12.9629C3.58406 12.6422 3.76935 12.2073 3.76935 11.7538C3.76935 11.3004 3.58406 10.8655 3.25424 10.5448C2.92442 10.2241 2.47709 10.044 2.01065 10.044ZM2.01065 5.15872C1.54422 5.15872 1.09688 5.33886 0.767065 5.65952C0.437244 5.98018 0.251953 6.41509 0.251953 6.86857C0.251953 7.32205 0.437244 7.75695 0.767065 8.07761C1.09688 8.39827 1.54422 8.57841 2.01065 8.57841C2.47709 8.57841 2.92442 8.39827 3.25424 8.07761C3.58406 7.75695 3.76935 7.32205 3.76935 6.86857C3.76935 6.41509 3.58406 5.98018 3.25424 5.65952C2.92442 5.33886 2.47709 5.15872 2.01065 5.15872ZM3.76935 1.98329C3.76935 1.52981 3.58406 1.0949 3.25424 0.77424C2.92442 0.453582 2.47709 0.273438 2.01065 0.273438C1.54422 0.273438 1.09688 0.453582 0.767065 0.77424C0.437244 1.0949 0.251953 1.52981 0.251953 1.98329C0.251953 2.43677 0.437244 2.87167 0.767065 3.19233C1.09688 3.51299 1.54422 3.69313 2.01065 3.69313C2.47709 3.69313 2.92442 3.51299 3.25424 3.19233C3.58406 2.87167 3.76935 2.43677 3.76935 1.98329Z" fill="black"/>
</svg>
