<svg width="27" height="8" viewBox="0 0 27 8" fill="none" xmlns="http://www.w3.org/2000/svg">
<path d="M19.7593 4C19.7593 4.92826 20.1144 5.8185 20.7464 6.47487C21.3785 7.13125 22.2358 7.5 23.1296 7.5C24.0235 7.5 24.8808 7.13125 25.5128 6.47487C26.1449 5.8185 26.5 4.92826 26.5 4C26.5 3.07174 26.1449 2.1815 25.5128 1.52513C24.8808 0.868749 24.0235 0.5 23.1296 0.5C22.2358 0.5 21.3785 0.868749 20.7464 1.52513C20.1144 2.1815 19.7593 3.07174 19.7593 4ZM10.1296 4C10.1296 4.92826 10.4847 5.8185 11.1168 6.47487C11.7489 7.13125 12.6061 7.5 13.5 7.5C14.3939 7.5 15.2511 7.13125 15.8832 6.47487C16.5153 5.8185 16.8704 4.92826 16.8704 4C16.8704 3.07174 16.5153 2.1815 15.8832 1.52513C15.2511 0.868749 14.3939 0.5 13.5 0.5C12.6061 0.5 11.7489 0.868749 11.1168 1.52513C10.4847 2.1815 10.1296 3.07174 10.1296 4ZM3.87037 0.5C2.97649 0.5 2.11923 0.868749 1.48716 1.52513C0.855092 2.1815 0.5 3.07174 0.5 4C0.5 4.92826 0.855092 5.8185 1.48716 6.47487C2.11923 7.13125 2.97649 7.5 3.87037 7.5C4.76425 7.5 5.62151 7.13125 6.25358 6.47487C6.88565 5.8185 7.24074 4.92826 7.24074 4C7.24074 3.07174 6.88565 2.1815 6.25358 1.52513C5.62151 0.868749 4.76425 0.5 3.87037 0.5Z" fill="black"/>
</svg>
