<svg width="36" height="36" viewBox="0 0 36 36" fill="none" xmlns="http://www.w3.org/2000/svg">
<rect x="-0.5" y="0.5" width="34.0507" height="34.0507" rx="17.0253" transform="matrix(-1 0 0 1 34.0508 0)" fill="#14141B" stroke="#FDFDFD"/>
<mask id="mask0_2016_208" style="mask-type:alpha" maskUnits="userSpaceOnUse" x="0" y="0" width="36" height="36">
<rect width="35.0507" height="35.0507" rx="17.5253" transform="matrix(-1 0 0 1 35.0508 0)" fill="#D9D9D9"/>
</mask>
<g mask="url(#mask0_2016_208)">
<path d="M17.5185 16.8948C16.0209 16.8948 14.5846 16.3071 13.5256 15.2609C12.4667 14.2148 11.8717 12.7959 11.8717 11.3163C11.8717 9.83684 12.4667 8.41794 13.5256 7.37177C14.5846 6.3256 16.0209 5.73787 17.5185 5.73787C19.0161 5.73787 20.4524 6.3256 21.5114 7.37177C22.5704 8.41794 23.1653 9.83684 23.1653 11.3163C23.1653 12.7959 22.5704 14.2148 21.5114 15.2609C20.4524 16.3071 19.0161 16.8948 17.5185 16.8948ZM19.5346 18.9868C23.88 18.9868 27.4004 22.4646 27.4004 26.7574C27.4004 27.4721 26.8137 28.0518 26.0902 28.0518H8.94687C8.22337 28.0518 7.63664 27.4721 7.63664 26.7574C7.63664 22.4646 11.1571 18.9868 15.5024 18.9868H19.5346Z" fill="#FDFDFD"/>
</g>
</svg>
