<svg width="27" height="24" viewBox="0 0 27 24" fill="none" xmlns="http://www.w3.org/2000/svg">
<path opacity="0.47" d="M0 3.42857C0 1.5375 1.51348 0 3.375 0H23.625C25.4865 0 27 1.5375 27 3.42857V20.5714C27 22.4625 25.4865 24 23.625 24H3.375C1.51348 24 0 22.4625 0 20.5714V3.42857ZM2.53125 18V19.7143C2.53125 20.1857 2.91094 20.5714 3.375 20.5714H5.0625C5.52656 20.5714 5.90625 20.1857 5.90625 19.7143V18C5.90625 17.5286 5.52656 17.1429 5.0625 17.1429H3.375C2.91094 17.1429 2.53125 17.5286 2.53125 18ZM21.9375 17.1429C21.4734 17.1429 21.0938 17.5286 21.0938 18V19.7143C21.0938 20.1857 21.4734 20.5714 21.9375 20.5714H23.625C24.0891 20.5714 24.4688 20.1857 24.4688 19.7143V18C24.4688 17.5286 24.0891 17.1429 23.625 17.1429H21.9375ZM2.53125 11.1429V12.8571C2.53125 13.3286 2.91094 13.7143 3.375 13.7143H5.0625C5.52656 13.7143 5.90625 13.3286 5.90625 12.8571V11.1429C5.90625 10.6714 5.52656 10.2857 5.0625 10.2857H3.375C2.91094 10.2857 2.53125 10.6714 2.53125 11.1429ZM21.9375 10.2857C21.4734 10.2857 21.0938 10.6714 21.0938 11.1429V12.8571C21.0938 13.3286 21.4734 13.7143 21.9375 13.7143H23.625C24.0891 13.7143 24.4688 13.3286 24.4688 12.8571V11.1429C24.4688 10.6714 24.0891 10.2857 23.625 10.2857H21.9375ZM2.53125 4.28571V6C2.53125 6.47143 2.91094 6.85714 3.375 6.85714H5.0625C5.52656 6.85714 5.90625 6.47143 5.90625 6V4.28571C5.90625 3.81429 5.52656 3.42857 5.0625 3.42857H3.375C2.91094 3.42857 2.53125 3.81429 2.53125 4.28571ZM21.9375 3.42857C21.4734 3.42857 21.0938 3.81429 21.0938 4.28571V6C21.0938 6.47143 21.4734 6.85714 21.9375 6.85714H23.625C24.0891 6.85714 24.4688 6.47143 24.4688 6V4.28571C24.4688 3.81429 24.0891 3.42857 23.625 3.42857H21.9375ZM8.4375 5.14286V8.57143C8.4375 9.51964 9.1916 10.2857 10.125 10.2857H16.875C17.8084 10.2857 18.5625 9.51964 18.5625 8.57143V5.14286C18.5625 4.19464 17.8084 3.42857 16.875 3.42857H10.125C9.1916 3.42857 8.4375 4.19464 8.4375 5.14286ZM10.125 13.7143C9.1916 13.7143 8.4375 14.4804 8.4375 15.4286V18.8571C8.4375 19.8054 9.1916 20.5714 10.125 20.5714H16.875C17.8084 20.5714 18.5625 19.8054 18.5625 18.8571V15.4286C18.5625 14.4804 17.8084 13.7143 16.875 13.7143H10.125Z" fill="black"/>
</svg>
