<svg width="520" height="515" viewBox="0 0 520 515" fill="none" xmlns="http://www.w3.org/2000/svg">
<path d="M55.1841 389L58.0864 383.102C137.891 220.928 366.89 214.851 455.184 372.563V372.563" stroke="#3E52D5" stroke-width="34" stroke-linecap="round"/>
<path d="M4.12663 218.832C-2.00544 211.722 -1.21289 200.988 5.89683 194.855C13.0065 188.723 23.7411 189.516 29.8732 196.626L4.12663 218.832ZM60.8772 284.63L4.12663 218.832L29.8732 196.626L86.6238 262.424L60.8772 284.63Z" fill="#4A4A5F"/>
<path d="M4.12663 218.832C-2.00544 211.722 -1.21289 200.988 5.89683 194.855C13.0065 188.723 23.7411 189.516 29.8732 196.626L4.12663 218.832ZM60.8772 284.63L4.12663 218.832L29.8732 196.626L86.6238 262.424L60.8772 284.63Z" fill="#3E52D5"/>
<path d="M515.476 217.582C521.33 210.242 520.125 199.546 512.784 193.692C505.444 187.838 494.748 189.043 488.894 196.383L515.476 217.582ZM461.298 285.515L515.476 217.582L488.894 196.383L434.716 264.316L461.298 285.515Z" fill="#4A4A5F"/>
<path d="M515.476 217.582C521.33 210.242 520.125 199.546 512.784 193.692C505.444 187.838 494.748 189.043 488.894 196.383L515.476 217.582ZM461.298 285.515L515.476 217.582L488.894 196.383L434.716 264.316L461.298 285.515Z" fill="#3E52D5"/>
<ellipse cx="257.684" cy="389" rx="131.5" ry="126" fill="#4A4A5F"/>
<ellipse cx="257.684" cy="389" rx="131.5" ry="126" fill="#3E52D5"/>
<path d="M274.211 109.545C274.211 100.156 266.6 92.5448 257.212 92.5447C247.823 92.5447 240.211 100.156 240.211 109.545L274.211 109.545ZM274.211 196.695L274.211 109.545L240.211 109.545L240.211 196.695L274.211 196.695Z" fill="#4A4A5F"/>
<path d="M274.211 109.545C274.211 100.156 266.6 92.5448 257.212 92.5447C247.823 92.5447 240.211 100.156 240.211 109.545L274.211 109.545ZM274.211 196.695L274.211 109.545L240.211 109.545L240.211 196.695L274.211 196.695Z" fill="#3E52D5"/>
</svg>
