<svg width="90" height="90" viewBox="0 0 90 90" fill="none" xmlns="http://www.w3.org/2000/svg">
<circle cx="45" cy="45" r="45" fill="#FDFDFD"/>
<path d="M73.4937 30.5734C72.8047 27.9812 70.7812 25.9469 68.2109 25.2578C63.5516 24 44.8703 24 44.8703 24C44.8703 24 26.1891 24 21.5297 25.2578C18.9594 25.9469 16.9359 27.9812 16.2469 30.5734C15 35.2656 15 45.0437 15 45.0437C15 45.0437 15 54.8219 16.2469 59.5141C16.9359 62.1063 18.9594 64.0531 21.5297 64.7422C26.1891 66 44.8703 66 44.8703 66C44.8703 66 63.5516 66 68.2109 64.7422C70.7812 64.0531 72.8047 62.0953 73.4937 59.5141C74.7406 54.8219 74.7406 45.0437 74.7406 45.0437C74.7406 45.0437 74.7406 35.2656 73.4937 30.5734ZM38.7672 53.925V36.1625L54.375 45.0437L38.7672 53.925Z" fill="#14141B"/>
</svg>
